<svg xmlns="http://www.w3.org/2000/svg" viewBox="0 0 425 300">
	<defs>
		<style>
			.svg-guides-cls-1{fill:#ed1e79;}.svg-guides-cls-2{fill:#e70a77;}.svg-guides-cls-3,.svg-guides-cls-4{fill:#fff;}.svg-guides-cls-5{fill:#742e89;}.svg-guides-cls-6{fill:#b8babc;}.svg-guides-cls-7{fill:#b25a93;}.svg-guides-cls-8{fill:#becbeb;}.svg-guides-cls-9{fill:#e43438;}.svg-guides-cls-10{fill:#e37cb1;}.svg-guides-cls-11{fill:#130436;}.svg-guides-cls-12{fill:#141334;}.svg-guides-cls-13{fill:#717171;}.svg-guides-cls-14{fill:#726cb2;}.svg-guides-cls-15{fill:#a5acba;mix-blend-mode:multiply;}.svg-guides-cls-16{fill:#989898;}.svg-guides-cls-16,.svg-guides-cls-4{mix-blend-mode:soft-light;}.svg-guides-cls-17{isolation:isolate;}
		</style>
	</defs>
	<g class="svg-guides-cls-17">
		<g>
			<g>
				<g>
					<g>
						<path class="svg-guides-cls-13" d="M83.13,51.36h240.46c2.6,0,4.71,2.11,4.71,4.71V213.01c0,2.6-2.11,4.71-4.71,4.71H83.13c-2.6,0-4.71-2.11-4.71-4.71V56.06c0-2.6,2.11-4.71,4.71-4.71Z" />
						<rect class="svg-guides-cls-11" x="84.53" y="60.86" width="237.66" height="147.36" />
						<path class="svg-guides-cls-13" d="M38.81,274.8H367.92v4.67c.49,3.83-2.16,4.67-7.55,4.64H45.86c-2.81,.01-7.05,.02-7.05-4.65v-4.66Z" />
						<path class="svg-guides-cls-6" d="M320.54,217.72c4.05,0,8.15,1.17,9.18,2.62l37.6,53.02c1.95,2.78-1.06,4.66-6.47,4.64H45.87c-5.4,.02-8.42-1.86-6.46-4.64l37.6-53.02c1.02-1.45,5.14-2.62,9.18-2.62h234.35Z" />
						<path class="svg-guides-cls-13" d="M315.41,223.81c1.9,0,3.83,.55,4.31,1.23l20.98,29.79c.92,1.31-.5,2.19-3.04,2.18H69.05c-2.54,.01-3.95-.87-3.04-2.18l19.32-29.79c.48-.68,2.41-1.23,4.31-1.23h225.76Z" />
						<g>
							<path class="svg-guides-cls-13" d="M232.38,260.31c.87,0,1.76,.25,1.98,.56l8.11,11.44c.42,.6-.23,1.01-1.4,1h-75.44c-1.17,0-1.81-.4-1.39-1l8.11-11.44c.22-.31,1.11-.56,1.98-.56h58.04Z" />
							<path class="svg-guides-cls-16" d="M242.48,272.31l-8.11-11.44c-.22-.31-1.11-.56-1.98-.56h-58.04c-.87,0-1.76,.25-1.98,.56l-8.11,11.44c-.42,.6,.23,1.01,1.39,1h1.07l7.01-10.34c.21-.31,1.06-.56,1.89-.56h55.5c.83,0,1.68,.25,1.89,.56l7.01,10.34h1.06c1.16,0,1.81-.4,1.4-1Z" />
						</g>
						<g>
							<path class="svg-guides-cls-16" d="M314.17,238.12s0-.05,0-.07c.01-.02,0-.05,0-.08,.01-.02,0-.05,0-.07,.02-.04,.03-.08-.01-.13-1.17-1.61-1.75-2.42-2.92-4.03-.13-.18-.62-.32-1.09-.32h-10.33s.06-.07,.05-.11c.01-.02,0-.05,0-.07,.01-.02,0-.05,0-.07,.01-.02,0-.05,0-.07,.01-.02,0-.05,0-.07,.01-.02,0-.05,0-.07,.01-.02,0-.05,0-.07,.01-.02,0-.05,0-.07,.01-.02,0-.05,0-.07,.01-.02,0-.05,0-.07,.01-.02,0-.05,0-.07,.01-.02,0-.05,0-.07,.01-.02,0-.05,0-.07,.01-.02,0-.05,0-.07,.01-.02,0-.05,0-.07,.01-.02,0-.05,0-.07,.01-.02,0-.05,0-.07,.01-.02,0-.05,0-.07,.01-.02,0-.05,0-.07,.01-.02,0-.05,0-.07,.01-.02,0-.05,0-.07,.02-.04,.03-.08,0-.13-1.06-1.61-1.59-2.42-2.65-4.03-.12-.18-.58-.32-1.04-.32h-10.51c-.41,0-.66,.11-.65,.26-.01,.02,0,.05,0,.07-.01,.02,0,.05,0,.07-.01,.02,0,.05,0,.07-.01,.02,0,.05,0,.07-.01,.02,0,.05,0,.07-.01,.02,0,.05,0,.07-.01,.02,0,.05,0,.07-.01,.02,0,.05,0,.07-.01,.02,0,.05,0,.07-.01,.02,0,.05,0,.07-.01,.02,0,.05,0,.07-.01,.02,0,.05,0,.07-.01,.02,0,.05,0,.07-.01,.02,0,.05,0,.07-.01,.02,0,.05,0,.07-.01,.02,0,.05,0,.07-.01,.02,0,.05,0,.07-.01,.02,0,.05,0,.07-.01,.02,0,.05,0,.07-.01,.02,0,.05,0,.07-.02,.04-.02,.08,0,.13,.93,1.61,1.38,2.42,2.31,4.03,.04,.06,.13,.12,.25,.17h-3.89c-.48,0-.79,.14-.69,.32h0s-.01,.05,0,.07h0s-.01,.05,0,.07h0s-.01,.05,0,.07h0s-.01,.05,0,.07h0s-.01,.05,0,.07h0s-.01,.05,0,.07h0s-.01,.05,0,.07h0s-.01,.05,0,.07h0s-.01,.05,0,.07h0s-.01,.05,0,.07h0s-.01,.05,0,.07h0s-.01,.05,0,.07h0s-.01,.05,0,.07h0s-.01,.05,0,.07h0s-.01,.05,0,.07h0s-.01,.05,0,.07h0s-.01,.04,0,.07h0s-.01,.05,0,.07h0s-.01,.05,0,.07h0s-.01,.05,0,.07h0s-.01,.05,0,.07c.86,1.61,1.29,2.42,2.15,4.03,.06,.11,.28,.2,.54,.26h-5.04c.21-.06,.33-.15,.27-.26,0,0,0,0,0,0,0-.02,.02-.04,0-.07,0,0,0,0,0,0,0-.02,.02-.04,0-.06,0,0,0,0,0,0,0-.02,.02-.04,0-.07,0,0,0,0,0,0,0-.02,.02-.04,0-.06,0,0,0,0,0,0,0-.02,.02-.04,0-.07,0,0,0,0,0,0,0-.02,.02-.04,0-.06,0,0,0,0,0,0,0-.02,.02-.04,0-.06,0,0,0,0,0,0,0-.02,.02-.04,0-.06,0,0,0,0,0,0,0-.02,.02-.04,0-.06,0,0,0,0,0,0,0-.02,.02-.04,0-.07,0,0,0,0,0,0,0-.02,.02-.04,0-.07,0,0,0,0,0,0,0-.02,.02-.04,0-.06,0,0,0,0,0,0,0-.02,.02-.04,0-.06,0,0,0,0,0,0,0-.02,.02-.04,0-.06,0,0,0,0,0,0,0-.02,.02-.04,0-.06,0,0,0,0,0,0,0-.02,.02-.04,0-.06,0,0,0,0,0,0,0-.02,.02-.04,0-.07,0,0,0,0,0,0,0-.02,.02-.04,0-.07,0,0,0,0,0,0,0-.02,.02-.04,0-.07,0,0,0,0,0,0,0-.02,.02-.04,0-.07,0,0,0,0,0,0,0-.02,.02-.04,0-.07-.82-1.61-1.22-2.42-2.04-4.03-.03-.07-.13-.12-.24-.17h3.95c.47,0,.78-.14,.68-.31h0s.01-.05,0-.07h0s.01-.05,0-.07h0v-.02s.02-.08,0-.12h0s.01-.04,0-.07h0s.01-.05,0-.07h0v-.02s.02-.08,0-.12h0s.01-.05,0-.07h0s.01-.05,0-.07h0s.01-.05,0-.07h0s.01-.05,0-.07h0s.01-.05,0-.07h0v-.02s.02-.08,0-.13h0s.01-.05,0-.07h0s.01-.05,0-.07h0s0-.01,0-.02c.02-.04,.02-.08,0-.12h0s.01-.05,0-.07h0s.01-.05,0-.07c-.88-1.61-1.31-2.42-2.19-4.03-.1-.18-.54-.32-1-.32h-10.51c-.46,0-.76,.14-.68,.32,0,0,0,0,0,.01,0,.02-.01,.04,0,.06,0,0,0,0,0,0,0,.02-.01,.04,0,.06,0,0,0,0,0,.01,0,.02-.01,.04,0,.06,0,0,0,0,0,.01,0,.02-.01,.04,0,.06,0,0,0,0,0,0,0,.02-.01,.04,0,.06,0,0,0,0,0,0,0,.02-.01,.04,0,.06,0,0,0,0,0,.01,0,.02-.01,.04,0,.06,0,0,0,0,0,0,0,.02-.01,.04,0,.06,0,0,0,0,0,0,0,.02-.01,.04,0,.06,0,0,0,0,0,.01,0,.02-.01,.04,0,.06,0,0,0,0,0,0,0,.02-.01,.04,0,.06,0,0,0,0,0,.01,0,.02-.01,.04,0,.06,0,0,0,0,0,0,0,.02-.01,.04,0,.06,0,0,0,0,0,.01,0,.02-.01,.04,0,.06,0,0,0,0,0,0,0,.02-.01,.04,0,.06,0,0,0,0,0,0,0,.02-.01,.04,0,.07,0,0,0,0,0,0,0,.02-.01,.04,0,.06,0,0,0,0,0,0,0,.02-.01,.04,0,.07,0,0,0,0,0,0,0,.02-.01,.04,0,.06,0,0,0,0,0,0,0,.02-.01,.04,0,.06,0,0,0,0,0,.01,0,.02-.01,.04,0,.06,.74,1.61,1.11,2.42,1.85,4.03,.03,.06,.12,.12,.23,.17h-4.06c-.14,0-.25,.02-.36,.03,.11-.05,.16-.12,.13-.2,0,0,0-.01,0-.02,0-.02,.01-.04,0-.06,0,0,0,0,0-.01,0-.02,.01-.04,0-.06,0,0,0-.01,0-.02,0-.02,.01-.03,0-.06,0,0,0,0,0-.01,0-.02,.01-.04,0-.06,0,0,0,0,0-.02,0-.02,.01-.04,0-.05,0,0,0-.01,0-.02,0-.02,.01-.04,0-.06,0,0,0,0,0-.01,0-.02,.01-.04,0-.06,0,0,0-.01,0-.02,0-.02,.01-.04,0-.06,0,0,0,0,0-.01,0-.02,.01-.04,0-.06,0,0,0-.01,0-.02,0-.02,.01-.04,0-.06,0,0,0,0,0-.01,0-.02,.01-.04,0-.06,0,0,0,0,0-.02,0-.02,.01-.04,0-.06,0,0,0,0,0-.02,0-.02,.01-.04,0-.06,0,0,0-.01,0-.01,0-.02,.01-.04,0-.06,0,0,0-.01,0-.02,0-.02,.01-.03,0-.06,0,0,0-.01,0-.01,0-.02,.01-.03,0-.06,0,0,0-.01,0-.01,0-.02,.01-.04,0-.06,0,0,0,0,0-.01,0-.02,.01-.04,0-.06,0,0,0-.01,0-.02,0-.02,.01-.04,0-.06,0,0,0,0,0-.02,0-.02,.01-.04,0-.06,0,0,0-.01,0-.01,0-.02,.01-.04,0-.06-.69-1.61-1.04-2.42-1.73-4.03-.08-.18-.51-.32-.96-.32h-10.51c-.46,0-.78,.14-.72,.32,0,0,0,.02,0,.02,0,.02-.02,.03,0,.05,0,.01,0,.02,0,.02,0,.02-.02,.03,0,.05,0,0,0,.02,0,.03,0,.02-.02,.03,0,.05,0,0,0,.02,0,.03,0,.02-.02,.03,0,.05,0,0,0,.02,0,.02,0,.02-.02,.03,0,.05,0,0,0,.02,0,.02,0,.02-.02,.03,0,.05,0,0,0,.02,0,.02,0,.02-.02,.03,0,.05,0,0,0,.02,0,.02,0,.02-.02,.03,0,.05,0,0,0,.02,0,.03,0,.02-.02,.03,0,.05,0,0,0,.02,0,.03,0,.02-.02,.03,0,.05,0,0,0,.02,0,.02,0,.02-.02,.03,0,.05,0,0,0,.01,0,.02,0,.02-.02,.03,0,.05,0,0,0,.02,0,.02,0,.02-.02,.03,0,.05,0,.01,0,.02,0,.03,0,.01-.02,.03,0,.05,0,0,0,.02,0,.02,0,.02-.02,.03,0,.05,0,.01,0,.02,0,.03,0,.02-.02,.03,0,.05,0,0,0,.02,0,.03,0,.02-.02,.03,0,.05,0,.01,0,.02,0,.03,0,.01-.02,.03,0,.05,0,0,0,.02,0,.02,0,.02-.02,.03,0,.05,0,0,0,.02,0,.02,0,.02-.02,.03,0,.05,0,.01,0,.02,0,.03,0,.01-.02,.03,0,.05,.55,1.61,.83,2.42,1.38,4.03,.02,.06,.11,.12,.22,.17h-4.24c-.05,0-.1,0-.15,.01,.09-.05,.14-.11,.12-.18,0-.01,0-.02,0-.03,0-.01,.01-.03,0-.04,0-.01,0-.02,0-.03,0-.01,.01-.03,0-.04,0-.01,0-.02,0-.03,0-.01,.01-.03,0-.04,0-.01,0-.02,0-.03,0-.02,.01-.03,0-.04,0-.01,0-.02,0-.03,0-.02,.01-.03,0-.04,0-.01,0-.02,0-.03,0-.01,.01-.03,0-.04,0-.01,0-.02,0-.03,0-.02,.01-.03,0-.04,0-.01,0-.02,0-.03,0-.01,.01-.03,0-.04,0-.01,0-.02,0-.03,0-.02,.01-.03,0-.04,0-.01,0-.02,0-.03,0-.02,.01-.03,0-.05,0,0,0-.02,0-.03,0-.01,.01-.03,0-.04,0-.01,0-.02,0-.03,0-.01,.01-.03,0-.04,0-.01,0-.02,0-.03,0-.01,.01-.03,0-.04,0-.01,0-.02,0-.03,0-.01,.01-.03,0-.04,0-.01,0-.02,0-.03,0-.02,.01-.03,0-.05,0-.01,0-.02,0-.03,0-.01,.01-.03,0-.04,0-.01,0-.02,0-.03,0-.01,.01-.03,0-.04,0,0,0-.02,0-.03,0-.02,.01-.03,0-.04,0-.01,0-.02,0-.03,0-.02,.01-.03,0-.04,0-.01,0-.02,0-.03,0-.01,.01-.03,0-.04,0-.01,0-.02,0-.03,0-.02,.01-.03,0-.04-.51-1.61-.76-2.42-1.27-4.03-.05-.18-.47-.32-.93-.32h-10.51c-.46,0-.8,.14-.76,.32,0,.01,0,.03,0,.04,0,.01-.01,.02,0,.03,0,.01,0,.03,0,.04s-.01,.02,0,.03c0,.01,0,.03,0,.04,0,.01-.01,.02,0,.03,0,.02,0,.03,0,.04,0,.01-.01,.02,0,.03,0,.01,0,.02,0,.04,0,0-.01,.02,0,.03,0,.02,0,.03,0,.04,0,.01-.01,.02,0,.03,0,.01,0,.03,0,.04,0,0-.01,.02,0,.03,0,.01,0,.02,0,.04,0,.01-.01,.02,0,.03,0,.02,0,.03,0,.04,0,.01-.01,.02,0,.03,0,.01,0,.03,0,.04,0,.01-.01,.02,0,.03,0,.01,0,.02,0,.04,0,.01-.01,.02,0,.03,0,.01,0,.03,0,.04,0,0-.01,.02,0,.03,0,.01,0,.03,0,.04,0,.01-.01,.02,0,.03,0,.01,0,.03,0,.04,0,0-.01,.02,0,.03,0,.01,0,.03,0,.04,0,.01-.01,.02,0,.03,0,.02,0,.03,0,.04,0,0-.01,.02,0,.03,0,.01,0,.03,0,.04,0,.01-.01,.02,0,.03,0,.02,0,.03,0,.04,0,.01-.01,.02,0,.03,0,.01,0,.03,0,.04,0,0-.01,.02,0,.03,0,.01,0,.03,0,.04,0,.01-.01,.02,0,.03,0,.02,0,.03,0,.04,0,.01-.01,.02,0,.03,.37,1.61,.56,2.42,.93,4.03,.02,.06,.09,.12,.19,.17h-4.38c.08-.05,.13-.11,.12-.17,0-.02,0-.03,0-.05,0-.01,0-.02,0-.03,0-.02,0-.03,0-.05,0,0,0-.02,0-.03,0-.02,0-.03,0-.05,0,0,0-.02,0-.03,0-.01,0-.03,0-.04,0,0,0-.02,0-.03,0-.02,0-.03,0-.04,0,0,0-.02,0-.02,0-.02,0-.03,0-.05,0,0,0-.02,0-.03,0-.02,0-.03,0-.05,0,0,0-.02,0-.03,0-.02,0-.03,0-.05,0-.01,0-.02,0-.03,0-.01,0-.03,0-.05,0,0,0-.02,0-.02,0-.02,0-.03,0-.05,0,0,0-.02,0-.03,0-.01,0-.03,0-.05,0,0,0-.02,0-.03,0-.02,0-.03,0-.05,0,0,0-.02,0-.03,0-.02,0-.03,0-.05,0-.01,0-.02,0-.03,0-.02,0-.03,0-.05,0,0,0-.02,0-.03,0-.02,0-.03,0-.04,0,0,0-.02,0-.03,0-.01,0-.03,0-.05,0,0,0-.02,0-.03,0-.02,0-.03,0-.05,0,0,0-.02,0-.03,0-.01,0-.03,0-.04,0,0,0-.02,0-.03,0-.02,0-.03,0-.05,0-.01,0-.02,0-.03,0-.02,0-.03,0-.05,0,0,0-.02,0-.03,0-.02,0-.03,0-.05,0,0,0-.02,0-.03-.32-1.61-.49-2.42-.81-4.03-.04-.18-.44-.32-.89-.32h-10.5c-.46,0-.81,.14-.79,.32,0,.02,0,.04,0,.06,0,0,0,0,0,.01,0,.02,0,.04,0,.06,0,0,0,.01,0,.02,0,.02,0,.04,0,.06,0,0,0,0,0,.02,0,.02,0,.04,0,.06,0,0,0,.01,0,.02,0,.02,0,.04,0,.06,0,0,0,.01,0,.02,0,.02,0,.04,0,.06,0,0,0,0,0,.01,0,.02,0,.04,0,.06,0,0,0,0,0,.02,0,.02,0,.04,0,.06,0,0,0,.01,0,.02,0,.02,0,.04,0,.06,0,0,0,.01,0,.02,0,.02,0,.04,0,.06,0,0,0,.01,0,.02,0,.02,0,.04,0,.06,0,0,0,0,0,.02,0,.02,0,.04,0,.06,0,0,0,0,0,.02,0,.02,0,.04,0,.06,0,0,0,0,0,.01,0,.02,0,.04,0,.06,0,0,0,.01,0,.02,0,.02,0,.04,0,.06,0,0,0,.01,0,.02,0,.02,0,.04,0,.06,0,0,0,0,0,.02,0,.02,0,.04,0,.05,0,0,0,.01,0,.02,0,.02,0,.04,0,.06,0,0,0,.01,0,.02,0,.02,0,.04,0,.06,0,0,0,0,0,.02,0,.02,0,.04,0,.06,0,0,0,.01,0,.01,0,.02,0,.04,0,.06,0,0,0,.01,0,.02,.19,1.61,.28,2.42,.47,4.03,0,.06,.08,.12,.17,.17h-4.38c.09-.05,.15-.11,.14-.17,0-.02,0-.04,0-.06,0,0,0,0,0-.01,0-.02,0-.04,0-.06,0,0,0,0,0-.01,0-.02,0-.04,0-.06,0,0,0,0,0-.01,0-.02,0-.04,0-.06,0,0,0,0,0-.01,0-.02,0-.04,0-.06,0,0,0,0,0-.01,0-.02,0-.04,0-.06,0,0,0,0,0-.01,0-.02,0-.04,0-.06,0,0,0,0,0-.01,0-.02,0-.04,0-.06,0,0,0,0,0-.01,0-.02,0-.04,0-.06,0,0,0,0,0-.01,0-.02,0-.04,0-.06,0,0,0,0,0-.01,0-.02,0-.04,0-.06,0,0,0,0,0-.01,0-.02,0-.04,0-.06,0,0,0,0,0-.01,0-.02,0-.04,0-.06,0,0,0,0,0-.01,0-.02,0-.04,0-.06,0,0,0,0,0-.01,0-.02,0-.04,0-.06,0,0,0,0,0-.01,0-.02,0-.04,0-.06,0,0,0,0,0-.01,0-.02,0-.04,0-.06,0,0,0-.01,0-.01,0-.02,0-.04,0-.06,0,0,0,0,0-.01,0-.02,0-.04,0-.06,0,0,0,0,0-.01,0-.02,0-.04,0-.06,0,0,0,0,0,0,0-.02,0-.04,0-.06,0,0,0,0,0-.01-.14-1.61-.21-2.42-.35-4.03-.02-.18-.4-.32-.86-.32h-10.51c-.46,0-.83,.14-.83,.32v.07h0v.15h0v.07h0v.07h0v.28h0v.08h0v.07h0v.07h0v.07h0v.07h0v.07h0v.15h0v.07h0v.07h0v.07h0c0,.58,0,1.05,0,1.49,0,.83,0,1.54,0,2.61,0,.06,.06,.12,.15,.17h-4.38c.09-.05,.16-.11,.16-.17,.04-1.61,.06-2.41,.1-4.02,0,0,0,0,0,0,0-.02,0-.04,0-.07h0s0-.05,0-.07c0,0,0,0,0,0,0-.02,0-.04,0-.07,0,0,0,0,0,0,0-.02,0-.04,0-.07,0,0,0,0,0,0,0-.02,0-.05,0-.07,0,0,0,0,0,0,0-.02,0-.04,0-.07,0,0,0,0,0,0,0-.02,0-.05,0-.07h0s0-.05,0-.07h0s0-.05,0-.07c0,0,0,0,0,0,0-.02,0-.05,0-.07h0s0-.05,0-.07c0,0,0,0,0,0,0-.02,0-.04,0-.07,0,0,0,0,0,0,0-.02,0-.04,0-.07,0,0,0,0,0,0,0-.03,0-.05,0-.07,0,0,0,0,0,0,0-.02,0-.05,0-.07,0,0,0,0,0,0,0-.02,0-.05,0-.07h0s0-.05,0-.07c0,0,0,0,0,0,0-.02,0-.04,0-.07h0s0-.05,0-.07h0s0-.05,0-.07c0,0,0,0,0,0,0-.02,0-.04,0-.07,0-.18-.36-.32-.82-.32h-10.51c-.46,0-.85,.14-.87,.32-.18,1.61-.27,2.42-.45,4.03,0,0,0,0,0,.02,0,.02,0,.04,0,.06,0,0,0,.01,0,.02,0,.02,0,.04,0,.06,0,0,0,0,0,.02,0,.02,0,.04,0,.06,0,0,0,0,0,.01,0,.02,0,.04,0,.06,0,0,0,0,0,.01,0,.02,0,.04,0,.06,0,0,0,.01,0,.02,0,.02,0,.04,0,.06,0,0,0,.01,0,.02,0,.02,0,.04,0,.06,0,0,0,0,0,.02,0,.02,0,.04,0,.06,0,0,0,.01,0,.02,0,.02,0,.04,0,.06,0,0,0,0,0,.01,0,.02,0,.04,0,.06,0,0,0,.01,0,.01,0,.02,0,.04,0,.06,0,0,0,0,0,.01,0,.02,0,.04,0,.06,0,0,0,0,0,.01,0,.02,0,.04,0,.06,0,0,0,.01,0,.02,0,.02,0,.04,0,.06,0,0,0,0,0,.02,0,.02,0,.04,0,.06,0,0,0,.01,0,.02,0,.02,0,.04,0,.06,0,0,0,0,0,.01,0,.02,0,.04,0,.06,0,0,0,.01,0,.01,0,.02,0,.04,0,.06,0,0,0,.01,0,.02,0,.02,0,.04,0,.06,0,0,0,.01,0,.01,0,.02,0,.04,0,.06,0,0,0,.01,0,.02,0,.02,0,.04,0,.06-.01,.06,.05,.12,.13,.17h-4.37c.09-.05,.17-.11,.18-.17,.23-1.61,.34-2.42,.57-4.03,0,0,0-.01,0-.02,0-.02,0-.03,0-.05,0,0,0-.01,0-.02,0-.02,0-.04,0-.05,0,0,0-.01,0-.02,0-.02,0-.03,0-.05,0,0,0-.01,0-.02,0-.02,0-.03,0-.05,0,0,0-.01,0-.02,0-.02,0-.03,0-.05,0,0,0-.02,0-.02,0-.02,0-.04,0-.05,0,0,0-.01,0-.02,0-.02,0-.04,0-.05,0,0,0-.01,0-.02,0-.02,0-.03,0-.05,0,0,0-.01,0-.02,0-.02,0-.04,0-.05,0,0,0-.01,0-.02,0-.02,0-.03,0-.05,0,0,0-.01,0-.02,0-.02,0-.03,0-.05,0,0,0-.01,0-.02,0-.02,0-.04,0-.05,0,0,0-.01,0-.02,0-.02,0-.03,0-.05,0,0,0-.01,0-.02,0-.02,0-.04,0-.05,0,0,0-.02,0-.02,0-.02,0-.03,0-.05,0,0,0-.01,0-.02,0-.02,0-.03,0-.05,0,0,0-.01,0-.02,0-.02,0-.04,0-.05,0,0,0-.01,0-.02,0-.02,0-.03,0-.05,0,0,0-.01,0-.02,0-.02,0-.03,0-.05,0,0,0-.01,0-.02,0-.02,0-.03,0-.05,0,0,0-.01,0-.02,0-.02,0-.03,0-.05,.03-.18-.33-.32-.78-.32h-10.51c-.46,0-.86,.14-.9,.32-.37,1.61-.55,2.42-.92,4.03,0,.01,.01,.02,.01,.03,0,.01,0,.03-.01,.04,0,.01,.01,.02,.01,.03,0,.01,0,.03,0,.04,0,.01,0,.02,0,.03,0,.01,0,.03-.01,.04,0,0,.01,.02,.01,.03,0,.02,0,.03-.01,.04,0,.01,.01,.02,.01,.03,0,.01,0,.03-.01,.04,0,.01,.01,.02,.01,.03,0,.01,0,.03-.01,.04,0,.01,.01,.02,.01,.03,0,.02,0,.03-.01,.04,0,.01,.01,.02,.01,.03,0,.01,0,.03-.01,.04,0,.01,.01,.02,.01,.03,0,.01,0,.03-.01,.04,0,.01,.01,.02,.01,.03,0,.02,0,.03-.01,.04,0,.01,.01,.02,.01,.03,0,.02,0,.03-.01,.04,0,0,.01,.02,.01,.03,0,.02,0,.03-.01,.04,0,.01,.01,.02,.01,.03,0,.01,0,.03-.01,.04,0,.01,.01,.02,.01,.03,0,.02,0,.03-.01,.04,0,.01,.01,.02,.01,.03,0,.02,0,.03-.01,.04,0,.01,.01,.02,.01,.03,0,.01,0,.03,0,.04,0,0,0,.02,0,.03,0,.02,0,.03-.01,.04,0,.01,.01,.02,.01,.03,0,.01,0,.02-.01,.04,0,.01,.01,.02,.01,.03,0,.01,0,.02-.01,.04,0,.01,.01,.02,.01,.03,0,.02,0,.03-.01,.04,0,.01,.01,.02,.01,.03,0,.01,0,.03-.01,.04-.01,.06,.04,.12,.12,.17h-4.38c.11-.05,.18-.11,.2-.17,.41-1.61,.62-2.42,1.03-4.03,0-.01-.01-.02-.01-.03,0-.01,0-.02,.01-.04,0-.01-.01-.02-.01-.04,0-.01,0-.02,.01-.04,0-.01-.01-.02-.01-.03,0-.02,0-.02,.01-.04,0-.01-.01-.02-.01-.04,0-.01,0-.02,.01-.04,0-.01-.01-.02-.01-.04,0-.01,0-.02,.01-.04,0-.01-.01-.02-.01-.04,0-.01,0-.02,.01-.04,0-.01-.01-.02-.01-.03,0-.01,0-.02,.01-.04,0-.01-.01-.02-.01-.03,0-.01,0-.02,.01-.04,0-.01-.01-.02-.01-.03,0-.01,0-.02,.01-.04,0-.01-.01-.02-.01-.04,0-.02,0-.02,.01-.04,0-.01-.01-.02-.01-.04,0-.01,0-.02,.01-.04,0-.01-.01-.02-.01-.04,0-.01,0-.02,.01-.04,0-.01-.01-.02-.01-.03,0-.01,0-.03,.01-.04,0-.01-.01-.02-.01-.03,0-.01,0-.02,.01-.04,0-.01-.01-.02-.01-.03,0-.02,0-.03,.01-.04,0-.01-.01-.02-.01-.03,0-.02,0-.03,.01-.04,0-.01-.01-.02-.01-.03,0-.01,0-.02,.01-.04,0-.01-.01-.02-.01-.04,0-.01,0-.02,.01-.04,0-.01-.01-.02-.01-.04,0-.01,0-.02,.01-.04,0-.01-.01-.02-.01-.03,0-.01,0-.03,.01-.04,0-.01-.01-.02-.01-.04,0-.01,0-.02,.01-.04,.05-.18-.29-.32-.75-.32h-10.51c-.46,0-.88,.14-.94,.32-.55,1.61-.82,2.41-1.37,4.03,0,.02,0,.03,0,.05,0,.01,0,.02,0,.03,0,.02,0,.03,.01,.05,0,.01,0,.02-.01,.03,0,.02,0,.03,0,.04,0,0,0,.02,0,.03,0,.01,0,.03,.01,.05,0,0,0,.02-.01,.03,0,.02,0,.03,.01,.04,0,.01,0,.02-.01,.03,0,.02,0,.03,0,.05,0,0,0,.02,0,.03,0,.02,0,.03,0,.05,0,0,0,.02,0,.03,0,.02,0,.03,0,.05,0,0,0,.02,0,.03,0,.02,0,.03,0,.05,0,.01,0,.02,0,.03,0,.02,0,.03,.01,.05,0,0,0,.02-.01,.03,0,.02,0,.03,.01,.05,0,.01,0,.02-.01,.03,0,.02,0,.03,0,.05,0,.01,0,.02,0,.03,0,.02,0,.03,.01,.05,0,.01,0,.02-.01,.03,0,.02,0,.03,.01,.05,0,0,0,.02-.01,.03,0,.02,0,.03,0,.05,0,0,0,.02,0,.03,0,.02,0,.03,.01,.05,0,0,0,.02-.01,.03,0,.01,0,.03,0,.04,0,0,0,.02,0,.03,0,.02,0,.03,0,.05,0,0,0,.02,0,.02,0,.02,0,.03,0,.05,0,0,0,.02,0,.03,0,.02,0,.03,.01,.05,0,0,0,.02-.01,.03,0,.02,0,.03,0,.05,0,.01,0,.02,0,.03-.02,.07,.02,.12,.1,.17h-4.38c.11-.05,.19-.11,.22-.17,.59-1.61,.89-2.42,1.49-4.03,0-.02,0-.03-.01-.05,0,0,0-.01,.01-.02,0-.02,0-.03-.01-.05,0,0,0-.01,.01-.02,0-.02,0-.03-.01-.05,0,0,0-.01,.01-.02,0-.02,0-.03-.01-.05,0,0,0-.01,.01-.02,0-.02,0-.03-.01-.05,0,0,0-.02,.01-.02,0-.02,0-.03-.01-.05,0,0,0-.01,.01-.02,0-.02,0-.03-.01-.05,0,0,0-.01,.01-.02,0-.02,0-.03-.01-.05,0,0,0-.01,.01-.02,0-.02,0-.03-.01-.05,0,0,0-.01,.01-.02,0-.02,0-.03-.01-.05,0,0,0-.01,.01-.02,0-.02,0-.03-.01-.05,0,0,0-.01,.01-.02,0-.02,0-.04-.01-.05,0,0,0-.01,.01-.02,0-.02,0-.04-.01-.05,0,0,0-.02,.01-.02,0-.02,0-.03-.01-.05,0,0,0-.02,.01-.02,0-.02,0-.03-.01-.05,0,0,0-.01,.01-.02,0-.02,0-.03-.01-.05,0,0,0-.02,.01-.02,0-.02,0-.03-.01-.05,0,0,0-.01,.01-.02,0-.02,0-.04-.01-.05,0,0,0-.01,.01-.02,0-.02,0-.03-.01-.05,0,0,0-.02,.01-.02,0-.02,0-.03-.01-.05,0,0,0-.01,.01-.02,0-.02,0-.03-.01-.05,0,0,0-.01,.01-.02,.06-.18-.25-.32-.72-.32h-10.5c-.46,0-.89,.14-.97,.32-.73,1.61-1.1,2.42-1.83,4.03,0,.02,0,.04,0,.06,0,0,0,0,0,.01,0,.02,0,.04,0,.06,0,0,0,0,0,.01,0,.02,0,.04,0,.06,0,0,0,0,0,.01,0,.02,0,.04,0,.06,0,0,0,0,0,.01,0,.02,0,.04,0,.06,0,0,0,0,0,.01,0,.02,0,.04,0,.06,0,0,0,0,0,.01,0,.02,0,.04,0,.06,0,0,0,0,0,.01,0,.02,0,.04,0,.06,0,0,0,0,0,.01,0,.02,0,.04,0,.06,0,0,0,0,0,.01,0,.02,0,.04,0,.06,0,0,0,0,0,.01,0,.02,0,.04,0,.06,0,0,0,0,0,.01,0,.02,0,.04,0,.06,0,0,0,0,0,.01,0,.02,0,.04,0,.06,0,0,0,0,0,.01,0,.02,0,.04,0,.06,0,0,0,0,0,.01,0,.02,0,.04,0,.06,0,0,0,0,0,.01,0,.02,0,.04,0,.06,0,0,0,0,0,.01-.01,.02,0,.04,0,.06,0,0,0,0,0,0,0,.02,0,.04,0,.06,0,0,0,0,0,.01,0,.02,0,.04,0,.06,0,0,0,0,0,.01,0,.02,0,.04,0,.06,0,0,0,0,0,.01,0,.02,0,.04,0,.06,0,0,0,0,0,.01-.03,.06,0,.12,.08,.17h-4.37c.11-.05,.2-.11,.23-.17,.78-1.61,1.17-2.42,1.95-4.03,.01-.02,0-.05,0-.07,0,0,0,0,0,0,.01-.02,0-.04,0-.06,0,0,0,0,0,0,.01-.02,0-.05,0-.07,0,0,0,0,0,0,.01-.02,0-.04,0-.06,0,0,0,0,0,0,.01-.02,0-.04,0-.07,0,0,0,0,0,0,.01-.02,0-.05,0-.07,0,0,0,0,0,0,.01-.02,0-.04,0-.06,0,0,0,0,0,0,.01-.02,0-.04,0-.07,0,0,0,0,0,0,.01-.02,0-.04,0-.06,0,0,0,0,0,0,.01-.02,0-.04,0-.07,0,0,0,0,0,0,.01-.02,0-.05,0-.07,0,0,0,0,0,0,.01-.02,0-.04,0-.07,0,0,0,0,0,0,.01-.02,0-.04,0-.06,0,0,0,0,0,0,.01-.02,0-.04,0-.07h0s0-.05,0-.07c0,0,0,0,0,0,.01-.02,0-.05,0-.07,0,0,0,0,0,0,.01-.02,0-.05,0-.07h0s0-.05,0-.07c0,0,0,0,0,0,.01-.02,0-.04,0-.07,0,0,0,0,0,0,.01-.02,0-.04,0-.06,0,0,0,0,0,0,.01-.02,0-.04,0-.06,0,0,0,0,0,0,.08-.18-.22-.32-.68-.32h-10.5c-.46,0-.91,.14-1.01,.32-.91,1.61-1.37,2.42-2.29,4.03-.02,.05-.02,.09,0,.13,0,.03-.01,.05,0,.07,0,.03-.01,.05,0,.07,0,.02-.01,.05,0,.07,0,.02-.01,.05,0,.07,0,.02-.01,.05,0,.07,0,.02-.01,.05,0,.07,0,.02-.01,.05,0,.07,0,.02-.01,.05,0,.07,0,.03-.01,.05,0,.07,0,.03-.01,.05,0,.07,0,.02-.01,.05,0,.07,0,.03-.01,.05,0,.07,0,.03-.01,.05,0,.07,0,.03-.01,.05,0,.07,0,.02-.01,.05,0,.07,0,.02-.01,.05,0,.07,0,.02-.01,.05,0,.07,0,.02-.01,.05,0,.07,0,.02-.01,.05,0,.07,0,.03-.01,.05,0,.07,0,.04,.01,.08,.06,.12h-4.38c.12-.05,.22-.11,.26-.17,.96-1.61,1.44-2.42,2.41-4.03,.02-.05,.02-.09,0-.13,0-.03,.01-.05,0-.07,0-.03,.01-.05,0-.07,0-.03,.01-.05,0-.07,0-.03,.01-.05,0-.07,0-.02,.01-.05,0-.07,0-.02,.01-.05,0-.07,0-.03,.01-.05,0-.07,0-.02,.01-.05,0-.07,0-.03,.01-.05,0-.07,0-.02,.01-.05,0-.07,0-.02,.01-.05,0-.07,0-.03,.01-.05,0-.07,0-.02,.01-.05,0-.07,0-.03,.01-.05,0-.08,0-.02,.01-.05,0-.07,0-.03,.01-.05,0-.07,0-.02,.01-.05,0-.07,0-.02,.01-.05,0-.07,0-.02,.01-.05,0-.07,0-.02,.01-.05,0-.07,.02-.15-.24-.26-.64-.26h-10.51c-.46,0-.93,.14-1.04,.32-1.1,1.61-1.65,2.42-2.75,4.03-.03,.05-.03,.09,0,.13,0,.02-.01,.05,0,.07,0,.02-.01,.05,0,.07,0,.03-.01,.05,0,.07,0,.02-.01,.05,0,.07,0,.03-.01,.05,0,.07,0,.02-.01,.05,0,.07,0,.02-.01,.05,0,.07,0,.03-.01,.05,0,.07,0,.03-.01,.05,0,.07,0,.03-.01,.05,0,.07,0,.03-.01,.05,0,.07,0,.02-.01,.05,0,.07,0,.03-.01,.05,0,.07,0,.02-.01,.05,0,.07,0,.02-.01,.05,0,.07,0,.03-.01,.05,0,.07,0,.02-.01,.05,0,.07,0,.03-.01,.05,0,.07,0,.02-.01,.05,0,.07,0,.02-.01,.05,0,.07,0,.04,0,.08,.05,.11h-5.81c-.48,0-.97,.14-1.09,.32-1.16,1.61-1.74,2.42-2.9,4.03-.04,.05-.03,.09,0,.13,0,.03-.01,.05,0,.07,0,.03-.01,.05,0,.07,0,.03-.01,.05,0,.07,0,.02-.01,.05,0,.07,0,.02-.01,.05,0,.07,0,.03-.01,.05,0,.07,0,.02-.01,.05,0,.07,0,.03-.01,.05,0,.07,0,.02-.01,.05,0,.07,0,.03-.01,.05,0,.07,0,.02-.01,.05,0,.07,0,.03-.01,.05,0,.07,0,.03-.01,.05,0,.07,0,.03-.01,.05,0,.08,0,.02-.01,.05,0,.07,0,.02-.01,.05,0,.07,0,.03-.01,.05,0,.07,0,.02-.01,.05,0,.07,0,.02-.01,.05,0,.07,0,.03-.01,.05,0,.07-.02,.15,.24,.26,.67,.26h4.12c-.28,.06-.51,.15-.58,.26-1.1,1.61-1.65,2.41-2.75,4.03-.03,.05-.03,.09,0,.13,0,.02-.01,.05,0,.07,0,.02-.01,.05,0,.07,0,.02-.01,.05,0,.07,0,.02-.02,.05,0,.07,0,.02-.01,.05,0,.07,0,.03-.01,.05,0,.07,0,.02-.01,.05,0,.07,0,.02-.01,.05,0,.07,0,.03-.01,.05,0,.07,0,.03-.01,.05,0,.07,0,.03-.01,.05,0,.07,0,.03-.01,.05,0,.07,0,.02-.01,.05,0,.07,0,.02-.01,.05,0,.07,0,.02-.01,.05,0,.07,0,.03-.01,.05,0,.08,0,.02-.01,.05,0,.07,0,.02-.01,.05,0,.07,0,.02-.01,.05,0,.07,0,.02-.01,.05,0,.07-.02,.14,.24,.24,.65,.25h-.56c-.52,0-1.04,.14-1.16,.32-1.1,1.61-1.65,2.42-2.74,4.03-.03,.04-.03,.09,0,.13,0,.03-.01,.05,0,.07,0,.02-.01,.05,0,.07,0,.03-.01,.05,0,.07,0,.02-.01,.05,0,.07,0,.03-.01,.05,0,.07,0,.02-.01,.05,0,.07,0,.02-.01,.05,0,.07,0,.03-.01,.05,0,.07,0,.03-.01,.05,0,.07,0,.03-.01,.05,0,.07,0,.02-.01,.05,0,.07,0,.02-.01,.05,0,.07,0,.02-.01,.05,0,.08,0,.02-.01,.05,0,.07,0,.02-.01,.05,0,.07,0,.03-.01,.05,0,.07,0,.02-.01,.05,0,.07,0,.02-.01,.05,0,.07,0,.03-.01,.05,0,.07,0,.02-.01,.05,0,.07-.02,.15,.28,.26,.75,.26h12.22c.53,0,1.05-.14,1.16-.32,.96-1.61,1.44-2.42,2.39-4.02,.02-.03,0-.05,0-.07,0-.02,.01-.04,0-.05v-.02s.01-.04,0-.05v-.02s.01-.04,0-.05v-.02s.03-.09,0-.13v-.02s.01-.04,0-.05c0-.02,.01-.05,0-.07v-.02h0s0-.05,0-.07c0-.02,.01-.03,0-.05v-.02s.01-.03,0-.05v-.02s.01-.04,0-.05v-.02s.01-.03,0-.05v-.02s.01-.03,0-.05c0-.02,.01-.05,0-.07v-.02h0s0-.05,0-.07c.03-.04,.03-.09,0-.12v-.02s.01-.04,0-.05v-.02s.01-.03,0-.05v-.02s.01-.04,0-.05v-.02s.01-.03,0-.05c.01-.14-.26-.25-.68-.26h.46c.51,0,1.01-.14,1.12-.32,.96-1.61,1.44-2.41,2.4-4.03,.03-.04,.02-.09,0-.12,0-.03,.01-.05,0-.08,0-.02,.01-.05,0-.07,0-.02,.01-.05,0-.07,0-.03,.01-.05,0-.08,0-.02,.01-.05,0-.07,0-.03,.01-.05,0-.08,0-.02,.01-.05,0-.07,0-.03,.01-.05,0-.07,0-.02,.01-.05,0-.07,0-.02,.01-.05,0-.07,0-.02,.01-.05,0-.07,0-.03,.01-.05,0-.07,0-.03,.01-.05,0-.07,0-.02,.01-.05,0-.07,0-.02,.01-.05,0-.07,0-.02,.01-.05,0-.07,0-.02,.01-.05,0-.07,0-.03,.01-.05,0-.07,0-.02,.01-.05,0-.07,0-.03,.01-.05,0-.07,.01-.15-.27-.27-.71-.27h-4.24c.27-.06,.5-.15,.57-.26,1.02-1.61,1.53-2.42,2.55-4.03,.03-.05,.03-.09,0-.13,0-.02,.01-.05,0-.07,0-.03,.01-.05,0-.07,0-.03,.01-.05,0-.07,0-.03,.01-.05,0-.07,0-.02,.01-.05,0-.07,0-.03,.01-.05,0-.08,0-.02,.01-.05,0-.07,0-.03,.01-.05,0-.07,0-.02,.01-.05,0-.08,0-.02,.01-.05,0-.07,0-.02,.01-.05,0-.07,0-.02,.01-.05,0-.07,0-.03,.01-.05,0-.07,0-.02,.01-.05,0-.07,0-.03,.01-.05,0-.07,0-.03,.01-.05,0-.07,0-.03,.01-.05,0-.07,0-.02,.01-.05,0-.07,0-.02,.01-.05,0-.07,0-.02,.01-.05,0-.07,0-.04-.01-.08-.05-.12h4.43c-.12,.05-.22,.11-.26,.17-.97,1.61-1.46,2.42-2.44,4.03-.03,.05-.03,.09,0,.13,0,.02-.01,.05,0,.07,0,.03-.01,.05,0,.07,0,.03-.01,.05,0,.07,0,.03-.01,.05,0,.07,0,.02-.01,.05,0,.07,0,.02-.01,.05,0,.07,0,.02-.01,.05,0,.08,0,.02-.01,.05,0,.07,0,.02-.01,.05,0,.07,0,.03-.01,.05,0,.07,0,.03-.01,.05,0,.07,0,.03-.01,.05,0,.07,0,.03-.01,.05,0,.07,0,.02-.01,.05,0,.07,0,.02-.01,.05,0,.07,0,.02-.01,.05,0,.07,0,.02-.01,.05,0,.07,0,.03-.01,.05,0,.07,0,.03-.01,.05,0,.07,0,.02-.01,.05,0,.07-.02,.15,.26,.27,.7,.27h4.3c-.27,.06-.49,.15-.55,.26-.92,1.61-1.37,2.41-2.29,4.03-.01,.02,0,.05,0,.07h0s0,.05,0,.07h0s0,.05,0,.07h0s0,.05,0,.07h0s0,.05,0,.07h0s0,.05,0,.07h0s0,.05,0,.07h0s0,.05,0,.07h0s0,.05,0,.07h0s0,.05,0,.07h0s0,.05,0,.07h0s0,.05,0,.07h0s0,.05,0,.07h0s0,.05,0,.07h0s0,.05,0,.07h0s0,.05,0,.07h0s0,.05,0,.07h0s0,.05,0,.07h0s0,.05,0,.07h0s0,.05,0,.07h0s0,.05,0,.07h0c-.1,.17,.21,.3,.67,.31h-.39c-.52,0-1.02,.14-1.12,.32-.91,1.61-1.37,2.42-2.28,4.03-.01,.02,0,.04,0,.07,0,0,0,0,0,0-.01,.02,0,.04,0,.07,0,0,0,0,0,0-.01,.02,0,.04,0,.07,0,0,0,0,0,0-.01,.03,0,.04,0,.07,0,0,0,0,0,0-.01,.02,0,.04,0,.07,0,0,0,0,0,0-.01,.02,0,.04,0,.07,0,0,0,0,0,0-.01,.02,0,.05,0,.07,0,0,0,0,0,0-.01,.02,0,.05,0,.07,0,0,0,0,0,0-.01,.02,0,.05,0,.07t0,0s0,.05,0,.07c0,0,0,0,0,0-.01,.03,0,.05,0,.07,0,0,0,0,0,0-.01,.03,0,.04,0,.07,0,0,0,0,0,0-.01,.03,0,.05,0,.07,0,0,0,0,0,0-.01,.02,0,.04,0,.07,0,0,0,0,0,0-.01,.02,0,.05,0,.07,0,0,0,0,0,0-.01,.02,0,.05,0,.07,0,0,0,0,0,0-.01,.03,0,.05,0,.07,0,0,0,0,0,0-.01,.02,0,.04,0,.07,0,0,0,0,0,0-.01,.02,0,.05,0,.07h0s0,.05,0,.07t0,0s0,.05,0,.07c0,0,0,0,0,0-.1,.18,.25,.32,.78,.32h12.22c.53,0,1.03-.14,1.12-.32,.77-1.61,1.16-2.42,1.93-4.02,.01-.02,0-.04,0-.06,0,0,0,0,0-.01,.01-.02,0-.04,0-.06,0,0,0-.01,0-.01,.01-.02,0-.04,0-.06,0,0,0,0,0-.01,.01-.02,0-.04,0-.06,0,0,0,0,0-.01,.01-.02,0-.04,0-.06,0,0,0-.01,0-.02,.01-.02,0-.04,0-.06,0,0,0,0,0-.01,.01-.02,0-.04,0-.06,0,0,0,0,0-.01,.01-.02,0-.04,0-.06,0,0,0,0,0-.01,.01-.02,0-.04,0-.06,0,0,0,0,0-.01,.01-.02,0-.04,0-.06,0,0,0,0,0-.01,.01-.02,0-.04,0-.06,0,0,0,0,0-.01,.01-.02,0-.04,0-.06,0,0,0,0,0-.02,.01-.02,0-.04,0-.06,0,0,0,0,0-.01,.01-.02,0-.04,0-.06,0,0,0-.01,0-.01,.01-.02,0-.04,0-.06,0,0,0,0,0-.02,.01-.02,0-.04,0-.06,0,0,0,0,0-.02,.01-.02,0-.04,0-.06,0,0,0,0,0-.01,.01-.02,0-.04,0-.06,0,0,0,0,0-.01,.01-.02,0-.04,0-.06,0,0,0,0,0-.01,.01-.02,0-.04,0-.06,0,0,0,0,0-.02,.01-.02,0-.04,0-.06,0,0,0,0,0-.02,.08-.16-.23-.29-.71-.31h.27c.51,0,1-.14,1.08-.32,.78-1.61,1.17-2.41,1.95-4.03,.01-.02,0-.04,0-.06,0,0,0,0,0-.01,.01-.02,0-.04,0-.06,0,0,0,0,0-.01,.01-.02,0-.04,0-.06,0,0,0,0,0-.01,.01-.02,0-.04,0-.06,0,0,0,0,0-.01,.01-.02,0-.04,0-.06,0,0,0,0,0-.01,.01-.02,0-.04,0-.06,0,0,0,0,0-.01,.01-.02,0-.04,0-.06,0,0,0,0,0-.01,.01-.02,0-.04,0-.06,0,0,0,0,0-.01,.01-.02,0-.04,0-.06,0,0,0,0,0-.01,.01-.02,0-.04,0-.06,0,0,0,0,0-.01,.01-.02,0-.04,0-.06,0,0,0,0,0-.01,.01-.02,0-.04,0-.06,0,0,0,0,0-.01,.01-.02,0-.04,0-.06,0,0,0,0,0-.01,.01-.02,0-.04,0-.06,0,0,0,0,0-.01,.01-.02,0-.04,0-.06,0,0,0,0,0-.01,.01-.02,0-.04,0-.06,0,0,0,0,0-.01,.01-.02,0-.04,0-.06,0,0,0,0,0-.01,.01-.02,0-.04,0-.06,0,0,0,0,0-.01,.01-.02,0-.04,0-.06,0,0,0,0,0-.01,.01-.02,0-.04,0-.06,0,0,0-.01,0-.01,.01-.02,0-.04,0-.06,0,0,0,0,0,0,.09-.18-.25-.32-.75-.32h-4.41c.27-.06,.48-.15,.54-.26,.84-1.61,1.26-2.42,2.1-4.03,.01-.02,0-.05,0-.07h0s0-.05,0-.07h0s0-.05,0-.07h0s0-.05,0-.07h0s0-.05,0-.07h0s0-.05,0-.07h0s0-.05,0-.07h0s0-.05,0-.07h0s0-.05,0-.07h0s0-.05,0-.07h0s0-.05,0-.08h0s0-.05,0-.07h0s0-.05,0-.07h0s0-.05,0-.07h0s0-.05,0-.07h0s0-.05,0-.07h0s0-.05,0-.07h0s0-.05,0-.07h0s0-.05,0-.07h0s0-.05,0-.07h0s0-.05,0-.07h0c.03-.07,0-.12-.07-.18h4.43c-.11,.05-.21,.11-.24,.17-.79,1.61-1.19,2.42-1.98,4.03,0,.02,0,.04,0,.07,0,0,0,0,0,0,0,.02,0,.04,0,.06,0,0,0,0,0,0,0,.02,0,.04,0,.06,0,0,0,0,0,0,0,.02,0,.04,0,.06,0,0,0,0,0,0,0,.02,0,.04,0,.06,0,0,0,0,0,0,0,.02,0,.04,0,.06,0,0,0,0,0,.01,0,.02,0,.04,0,.06,0,0,0,0,0,0,0,.02,0,.04,0,.06,0,0,0,0,0,0,0,.02,0,.04,0,.06,0,0,0,0,0,0,0,.02,0,.04,0,.06,0,0,0,0,0,0,0,.02,0,.04,0,.06,0,0,0,0,0,0,0,.02,0,.04,0,.06,0,0,0,0,0,0,0,.02,0,.04,0,.06,0,0,0,0,0,0,0,.02,0,.04,0,.06,0,0,0,0,0,.01,0,.02,0,.04,0,.06,0,0,0,0,0,.01,0,.02,0,.04,0,.06,0,0,0,0,0,.01,0,.02,0,.04,0,.06,0,0,0,0,0,.01,0,.02,0,.04,0,.06,0,0,0,0,0,0,0,.02,0,.04,0,.07,0,0,0,0,0,0,0,.02,0,.04,0,.06,0,0,0,0,0,0,0,.02,0,.04,0,.06,0,0,0,0,0,0-.09,.17,.24,.32,.73,.32h4.47c-.26,.06-.47,.15-.52,.26-.73,1.61-1.1,2.41-1.83,4.03-.01,.02,0,.04,0,.06,0,0,0,0,0,.02-.01,.02,0,.03,0,.05,0,0,0,0,0,.02-.01,.02,0,.04,0,.06,0,0,0,.01,0,.02-.01,.02,0,.04,0,.06,0,0,0,.01,0,.02-.01,.02,0,.04,0,.06,0,0,0,.01,0,.02-.01,.02,0,.04,0,.06,0,0,0,.01,0,.02-.01,.02,0,.04,0,.06,0,0,0,.01,0,.02-.01,.02,0,.04,0,.06,0,0,0,0,0,.02-.01,.02,0,.04,0,.06,0,0,0,0,0,.02-.01,.02,0,.04,0,.05,0,0,0,.01,0,.02-.01,.02,0,.04,0,.06,0,0,0,.01,0,.01-.01,.02,0,.04,0,.06,0,0,0,.01,0,.02-.01,.02,0,.04,0,.05,0,0,0,.01,0,.02-.01,.02,0,.04,0,.06,0,0,0,.01,0,.02-.01,.02,0,.04,0,.05,0,0,0,.01,0,.02-.01,.02,0,.04,0,.06,0,0,0,.01,0,.02-.01,.02,0,.04,0,.06,0,0,0,.01,0,.02-.01,.02,0,.04,0,.06,0,0,0,0,0,.02-.01,.02,0,.04,0,.06,0,0,0,0,0,.01-.01,.02,0,.04,0,.06,0,0,0,.01,0,.02-.01,.02,0,.04,0,.06,0,0,0,0,0,.02-.07,.16,.24,.3,.71,.31h-.21c-.52,0-1.01,.14-1.08,.32-.73,1.61-1.09,2.42-1.82,4.03,0,.02,0,.03,0,.05,0,0,0,.01,0,.02,0,.02,0,.04,0,.05,0,0,0,.01,0,.02,0,.02,0,.03,0,.05,0,0,0,.01,0,.02,0,.02,0,.04,0,.05,0,0,0,.01,0,.02,0,.02,0,.04,0,.06,0,0,0,.01,0,.02,0,.02,0,.03,0,.05,0,0,0,.01,0,.02,0,.02,0,.04,0,.05,0,0,0,.01,0,.02,0,.02,0,.04,0,.05,0,0,0,.01,0,.02,0,.02,0,.04,0,.05,0,0,0,.01,0,.02,0,.02,0,.04,0,.05,0,0,0,.01,0,.02,0,.02,0,.04,0,.05,0,0,0,.01,0,.02,0,.02,0,.04,0,.05,0,0,0,.01,0,.02,0,.02,0,.04,0,.06,0,0,0,.01,0,.02,0,.02,0,.04,0,.05,0,0,0,.01,0,.02,0,.02,0,.04,0,.06,0,0,0,0,0,.02,0,.02,0,.04,0,.06,0,0,0,.01,0,.02,0,.02,0,.03,0,.06,0,0,0,.01,0,.02,0,.02,0,.04,0,.05,0,0,0,.01,0,.02,0,.02,0,.04,0,.05,0,0,0,.01,0,.02,0,.02,0,.04,0,.05,0,0,0,.01,0,.02,0,.02,0,.04,0,.05,0,0,0,.01,0,.02-.08,.18,.29,.32,.82,.32h12.22c.53,0,1.02-.14,1.08-.32,.59-1.61,.89-2.41,1.48-4.02,0-.02,0-.03-.01-.05,0,0,0-.02,.01-.03,0-.02,0-.03-.01-.05,0,0,0-.02,.01-.03,0-.02,0-.03-.01-.05,0-.01,0-.02,.01-.03,0-.02,0-.03-.01-.04,0,0,0-.02,.01-.03,0-.02,0-.03-.01-.04,0-.01,0-.02,.01-.03,0-.02,0-.03-.01-.04,0-.01,0-.02,.01-.03,0-.02,0-.03-.01-.05,0,0,0-.02,.01-.03,0-.02,0-.03-.01-.05,0-.01,0-.02,.01-.03,0-.02,0-.03,0-.04,0,0,0-.02,0-.03,0-.02,0-.03-.01-.04,0-.01,0-.02,.01-.03,0-.01,0-.03-.01-.04,0,0,0-.02,.01-.03,0-.01,0-.03-.01-.04,0,0,0-.02,.01-.03,0-.02,0-.03-.01-.04,0-.01,0-.02,.01-.03,0-.02,0-.03-.01-.04,0-.01,0-.02,.01-.03,0-.02,0-.03,0-.05,0-.01,0-.02,0-.03,0-.02,0-.03-.01-.05,0,0,0-.02,.01-.03,0-.02,0-.03-.01-.04,0-.01,0-.02,.01-.03,0-.02,0-.03-.01-.05,0-.01,0-.02,.01-.03,0-.01,0-.03-.01-.05,0,0,0-.02,.01-.03,0-.02,0-.03-.01-.05,0,0,0-.02,.01-.03,0-.01,0-.03-.01-.04,0,0,0-.02,.01-.03,.06-.17-.27-.3-.74-.31h.09c.51,0,.98-.14,1.05-.32,.59-1.61,.89-2.41,1.48-4.03,0-.01-.01-.03-.01-.05,0,0,0-.02,.01-.03,0-.02-.01-.03-.01-.05,0,0,0-.02,.01-.03,0-.02-.01-.03-.01-.05,0,0,0-.01,.01-.03,0-.02-.01-.03-.01-.05,0,0,0-.02,.01-.03,0-.01-.01-.03-.01-.05,0,0,0-.02,.01-.03,0-.02-.01-.03-.01-.05,0,0,0-.02,.01-.02,0-.02-.01-.03-.01-.05,0-.01,0-.02,.01-.03,0-.02-.01-.03-.01-.05,0,0,0-.02,.01-.03,0-.02-.01-.03-.01-.05,0,0,0-.02,.01-.02,0-.02-.01-.03-.01-.05,0,0,0-.02,.01-.03,0-.02-.01-.03-.01-.05,0,0,0-.02,.01-.02,0-.02-.01-.03-.01-.05,0-.01,0-.02,.01-.03,0-.02-.01-.03-.01-.05,0,0,0-.02,.01-.03,0-.01-.01-.03-.01-.05,0,0,0-.02,.01-.03,0-.02-.01-.03-.01-.05,0,0,0-.02,.01-.03,0-.02-.01-.03-.01-.05,0,0,0-.02,.01-.03,0-.02-.01-.03-.01-.05,0,0,0-.02,.01-.03,0-.02-.01-.03-.01-.05,0,0,0-.01,.01-.02,0-.02-.01-.03-.01-.05,0,0,0-.02,.01-.02,0-.02-.01-.03-.01-.05,0,0,0-.02,.01-.02,0-.02-.01-.03-.01-.05,0,0,0-.02,.01-.02,.07-.18-.28-.32-.78-.32h-4.59c.26-.06,.46-.15,.51-.26,.66-1.61,.98-2.42,1.63-4.03,.01-.02,0-.03,0-.05,0,0,0-.01,0-.02,.01-.02,0-.03,0-.05,0,0,0-.01,0-.02,.01-.02,0-.04,0-.06,0,0,0-.01,0-.02,.01-.02,0-.04,0-.06,0,0,0-.01,0-.02,.01-.02,0-.04,0-.05,0,0,0-.01,0-.02,.01-.02,0-.04,0-.06,0,0,0-.01,0-.02,.01-.02,0-.04,0-.05,0,0,0-.01,0-.02,.01-.02,0-.03,0-.05,0,0,0-.01,0-.02,.01-.02,0-.04,0-.05,0,0,0-.01,0-.02,.01-.02,0-.03,0-.05,0,0,0-.01,0-.02,.01-.02,0-.04,0-.05,0,0,0-.01,0-.02,.01-.02,0-.04,0-.05,0,0,0-.01,0-.02,.01-.02,0-.04,0-.05,0,0,0-.01,0-.02,.01-.02,0-.03,0-.05,0,0,0-.01,0-.02,.01-.02,0-.04,0-.05,0,0,0-.01,0-.02,.01-.02,0-.04,0-.05,0,0,0-.01,0-.02,.01-.02,0-.04,0-.05,0,0,0-.01,0-.02,.01-.02,0-.04,0-.06,0,0,0-.01,0-.02,.01-.02,0-.03,0-.05,0,0,0-.01,0-.02,.01-.02,0-.04,0-.05,0,0,0-.01,0-.02,.01-.02,0-.04,0-.06,0,0,0-.01,0-.02,.03-.07-.02-.12-.09-.17h4.43c-.11,.05-.2,.11-.22,.17-.61,1.61-.92,2.42-1.52,4.03,0,.02,0,.03,.01,.05,0,0,0,.02-.01,.02,0,.02,0,.03,.01,.05,0,0,0,.02-.01,.02,0,.02,0,.03,.01,.05,0,.01,0,.02-.01,.02,0,.02,0,.03,.01,.05,0,0,0,.02-.01,.02,0,.02,0,.03,.01,.05,0,0,0,.02-.01,.03,0,.02,0,.03,.01,.05,0,0,0,.01-.01,.02,0,.02,0,.03,.01,.05,0,0,0,.01-.01,.02,0,.02,0,.03,.01,.05,0,0,0,.01-.01,.02,0,.02,0,.03,.01,.05,0,0,0,.02-.01,.02,0,.02,0,.03,.01,.05,0,0,0,.02-.01,.02,0,.02,0,.03,.01,.05,0,0,0,.02-.01,.02,0,.02,0,.03,.01,.05,0,0,0,.02-.01,.02,0,.02,0,.03,.01,.05,0,0,0,.02-.01,.02,0,.02,0,.03,.01,.05,0,0,0,.02-.01,.03,0,.01,0,.03,.01,.05,0,0,0,.02-.01,.03,0,.02,0,.03,.01,.05,0,0,0,.01-.01,.02,0,.02,0,.03,.01,.05,0,.01,0,.01-.01,.02,0,.02,0,.03,.01,.05,0,.01,0,.02-.01,.03,0,.02,0,.03,.01,.05,0,0,0,.02-.01,.02,0,.02,0,.03,.01,.05,0,0,0,.02-.01,.03,0,.02,0,.03,.01,.05,0,0,0,.01-.01,.02-.07,.17,.28,.32,.77,.32h4.64c-.26,.06-.46,.15-.49,.26-.55,1.61-.82,2.41-1.37,4.03,0,.01,.01,.03,.01,.04,0,.01,0,.02-.01,.03,0,.01,.01,.02,.01,.04,0,0,0,.02-.01,.03,0,.02,.01,.03,.01,.04,0,.01,0,.02-.01,.03,0,.01,.01,.03,.01,.04,0,.01,0,.02-.01,.03,0,.01,.01,.03,.01,.04,0,.01,0,.02-.01,.03,0,.01,.01,.03,.01,.04,0,.01,0,.02-.01,.03,0,.02,.01,.03,.01,.04,0,.01,0,.02-.01,.03,0,.01,.01,.03,.01,.04,0,0,0,.02-.01,.03,0,.01,.01,.03,.01,.04,0,0,0,.02-.01,.03,0,.01,.01,.03,.01,.04,0,.01,0,.02-.01,.03,0,.01,.01,.03,.01,.04,0,.01,0,.02-.01,.03,0,.01,.01,.03,.01,.04,0,0,0,.02-.01,.03,0,.02,.01,.02,.01,.04,0,.01,0,.02-.01,.03,0,.01,.01,.03,.01,.04,0,.01,0,.02-.01,.03,0,.01,.01,.03,.01,.04,0,.01,0,.02-.01,.03,0,.02,.01,.03,.01,.04,0,0,0,.02-.01,.03,0,.02,.01,.03,.01,.04,0,.01,0,.02-.01,.03,0,.01,.01,.03,.01,.04,0,0,0,.02-.01,.03,0,.01,.01,.03,.01,.04,0,.01,0,.02-.01,.03,0,.02,.01,.03,.01,.04,0,.01,0,.02-.01,.03,0,.02,.01,.03,.01,.04,0,.01,0,.02-.01,.03-.06,.16,.27,.3,.74,.31h-.04c-.52,0-.98,.14-1.04,.32-.55,1.61-.81,2.42-1.36,4.03,0,.01,.01,.02,.01,.04,0,.01,0,.02-.01,.03,0,.01,.01,.03,.01,.04,0,.01,0,.02-.01,.03,0,.01,.01,.02,.01,.04,0,.01,0,.02-.01,.03,0,.01,.01,.02,.01,.04,0,.01,0,.02-.01,.03,0,.02,.01,.03,.01,.04,0,.01,0,.02-.01,.03,0,.01,.01,.02,.01,.04,0,.01,0,.02-.01,.03,0,.02,.01,.03,.01,.04,0,.01,0,.02-.01,.03,0,.02,.01,.03,.01,.04,0,.01,0,.02-.01,.03,0,.01,.01,.03,.01,.04,0,.01,0,.02-.01,.03,0,.01,.01,.03,.01,.04,0,.01,0,.02-.01,.03,0,.02,.01,.03,.01,.04,0,.01,0,.02-.01,.03,0,.02,.01,.03,.01,.04,0,.01,0,.02-.01,.03,0,.02,.01,.03,.01,.04,0,.01,0,.02-.01,.03,0,.01,.01,.03,.01,.04,0,.01,0,.02-.01,.03,0,.01,.01,.03,.01,.04,0,0,0,.02-.01,.03,0,.01,.01,.03,.01,.04,0,.01,0,.02-.01,.03,0,.01,.01,.03,.01,.04,0,.01,0,.02-.01,.03,0,.01,.01,.03,.01,.04,0,.01,0,.02-.01,.03,0,.01,.01,.03,.01,.04,0,.01,0,.02-.01,.03,0,.01,.01,.03,.01,.04,0,.01,0,.02-.01,.03,0,.02,.01,.03,.01,.04,0,.01,0,.02-.01,.03-.06,.18,.32,.32,.85,.32h12.22c.53,0,1-.14,1.05-.32,.41-1.61,.61-2.42,1.01-4.02,0-.01-.01-.02-.01-.03,0-.01,0-.03,.01-.04,0-.01-.01-.02-.01-.03,0-.02,0-.03,.01-.04,0-.01-.01-.02-.01-.03,0-.01,0-.03,.01-.04,0,0-.01-.02-.01-.03,0-.02,0-.03,.01-.04,0,0-.01-.02-.01-.03,0-.01,0-.03,.01-.04,0-.01-.01-.02-.01-.03,0-.01,0-.03,.01-.04,0-.01-.01-.02-.01-.03,0-.02,0-.03,.01-.04,0-.01-.01-.02-.01-.03,0-.01,0-.03,.01-.04,0-.01-.01-.02-.01-.03,0-.02,0-.03,.01-.04,0,0-.01-.02-.01-.03,0-.01,0-.03,.01-.04,0-.01-.01-.02-.01-.03,0-.01,0-.03,.01-.04,0-.01-.01-.02-.01-.03,0-.01,0-.03,.01-.04,0,0-.01-.02-.01-.03,0-.01,0-.03,.01-.04,0-.01-.01-.02-.01-.03,0-.02,0-.03,.01-.04,0-.01-.01-.02-.01-.03,0-.01,0-.03,.01-.04,0-.01-.01-.02-.01-.03,0-.02,0-.03,.01-.04,0,0-.01-.02-.01-.03,0-.01,0-.03,.01-.04,0-.01-.01-.02-.01-.03,0-.01,0-.03,.01-.04,0-.01-.01-.02-.01-.03,0-.02,0-.03,.01-.04,0-.01-.01-.02-.01-.03,0-.02,0-.03,.01-.04,0,0-.01-.02-.01-.03,0-.02,0-.03,.01-.04,.04-.17-.32-.3-.81-.31,.49,0,.92-.14,.97-.32,.41-1.61,.62-2.41,1.03-4.03,0,0-.01-.02-.01-.03,0-.02,0-.03,.01-.04,0-.01-.01-.02-.01-.04,0-.01,0-.02,.01-.04,0-.01-.01-.02-.01-.03,0-.01,0-.03,.01-.04,0-.01-.01-.02-.01-.03,0-.01,0-.03,.01-.04,0-.01-.01-.02-.01-.03,0-.01,0-.03,.01-.04,0-.01-.01-.02-.01-.03,0-.01,0-.03,.01-.04,0-.01-.01-.02-.01-.03,0-.01,0-.02,.01-.04,0-.01-.01-.02-.01-.03,0-.01,0-.03,.01-.04,0-.01-.01-.02-.01-.03,0-.01,0-.02,.01-.04,0-.01-.01-.02-.01-.03,0-.01,0-.03,.01-.04,0-.01-.01-.02-.01-.03,0-.02,0-.02,.01-.04,0-.01-.01-.02-.01-.03,0-.01,0-.03,.01-.04,0,0-.01-.02-.01-.03,0-.01,0-.03,.01-.04,0,0-.01-.02-.01-.03,0-.01,.01-.03,.01-.04,0-.01-.01-.02-.01-.03,0-.02,0-.03,.01-.04,0-.01-.01-.02-.01-.03,0-.01,0-.03,.01-.04,0-.01-.01-.02-.01-.03,0-.01,0-.02,.01-.04,0-.01-.01-.02-.01-.03,0-.02,0-.03,.01-.04,0-.01-.01-.02-.01-.03,0-.01,0-.02,.01-.04,0-.01-.01-.02-.01-.03,0-.02,0-.03,.01-.04,0-.01-.01-.02-.01-.03,0-.02,0-.03,.01-.04,.04-.18-.33-.32-.82-.32h-4.76c.25-.06,.45-.15,.48-.26,.47-1.61,.7-2.42,1.18-4.03,0-.01-.01-.02-.01-.04,0-.01,0-.02,.01-.03,0-.01-.01-.02-.01-.04,0-.01,0-.02,.01-.03,0-.01-.01-.02-.01-.04,0-.01,0-.02,.01-.04,0-.01-.01-.03-.01-.04,0,0,0-.02,.01-.03,0-.01-.01-.03-.01-.04,0-.01,0-.02,.01-.03,0-.02-.01-.03-.01-.04,0-.01,0-.02,.01-.03,0-.01-.01-.03-.01-.04,0-.01,0-.02,.01-.04,0-.01-.01-.02-.01-.04,0-.01,0-.02,.01-.04,0-.01-.01-.02-.01-.04,0-.01,0-.02,.01-.04,0-.01-.01-.02-.01-.04,0-.01,0-.02,.01-.03,0-.02-.01-.03-.01-.04,0-.01,0-.02,.01-.03,0-.01-.01-.02-.01-.04,0-.01,0-.02,.01-.03,0-.01-.01-.03-.01-.04,0-.01,0-.02,.01-.04,0-.01-.01-.02-.01-.04,0-.01,0-.02,.01-.03,0-.01-.01-.03-.01-.04,0-.01,0-.02,.01-.03,0-.01-.01-.03-.01-.04,0-.01,0-.02,.01-.03,0-.01-.01-.02-.01-.04,0-.01,0-.02,.01-.03,0-.01-.01-.03-.01-.04,0-.01,0-.02,.01-.03,0-.01-.01-.02-.01-.04,0-.01,0-.02,.01-.03,0-.01-.01-.03-.01-.04,0-.01,0-.02,.01-.03,0-.02-.01-.03-.01-.04,0-.01,0-.02,.01-.03,.02-.07-.03-.12-.11-.17h4.43c-.1,.05-.19,.11-.2,.17-.42,1.61-.64,2.42-1.06,4.03,0,.01,.01,.02,.01,.03,0,.01,0,.02-.01,.04,0,.01,.01,.02,.01,.03,0,.01,0,.03-.01,.04,0,.01,.01,.02,.01,.03,0,.01,0,.03-.01,.04,0,.01,.01,.02,.01,.04,0,.01,0,.02-.01,.04,0,.01,.01,.02,.01,.03,0,.01,0,.03-.01,.04,0,.01,0,.02,.01,.03,0,0,0,.02-.01,.04,0,.01,0,.02,.01,.03,0,.01,0,.03-.01,.04,0,.01,0,.02,.01,.04,0,.01,0,.02-.01,.04,0,.01,.01,.02,.01,.03,0,.02,0,.02-.01,.04,0,.01,.01,.02,.01,.04,0,.01,0,.02-.01,.04,0,.01,.01,.02,.01,.04,0,.01,0,.02-.01,.04,0,.01,.01,.02,.01,.04,0,.01,0,.02-.01,.04,0,.01,.01,.02,.01,.03,0,.01,0,.03-.01,.04,0,0,0,.02,.01,.03,0,.01,0,.03-.01,.04,0,.01,0,.02,.01,.03,0,.01,0,.02-.01,.04,0,.01,.01,.02,.01,.03,0,.01,0,.02-.01,.04,0,.01,.01,.02,.01,.03,0,.01,0,.03-.01,.04,0,.01,.01,.02,.01,.03,0,.01,0,.02-.01,.04,0,.01,.01,.02,.01,.04,0,.01,0,.02-.01,.04,0,.01,.01,.02,.01,.03,0,.01,0,.02-.01,.04,0,.01,0,.02,.01,.03,0,.02,0,.03-.01,.04-.05,.17,.31,.32,.8,.32h4.82c-.25,.06-.44,.15-.46,.26-.37,1.61-.55,2.41-.91,4.03,0,0,.01,.02,.01,.03,0,.02,0,.03-.01,.05,0,0,.01,.02,.01,.03,0,.01,0,.03-.01,.04,0,.01,.01,.02,.01,.03,0,.02,0,.03-.01,.05,0,0,.01,.02,.01,.03,0,.02,0,.03-.01,.04,0,0,.01,.02,.01,.03,0,.02,0,.03-.01,.05,0,0,.01,.02,.01,.03,0,.02,0,.03-.01,.04,0,0,.01,.02,.01,.03,0,.01,0,.03-.01,.05,0,0,.01,.02,.01,.03,0,.02,0,.03-.01,.04,0,.01,.01,.02,.01,.03,0,.02,0,.03-.01,.05,0,0,.01,.02,.01,.03,0,.01,0,.03-.01,.04,0,0,.01,.02,.01,.03,0,.02,0,.03-.01,.05,0,0,.01,.02,.01,.03,0,.02,0,.03-.01,.05,0,0,.01,.02,.01,.03,0,.02,0,.03-.01,.05,0,0,.01,.02,.01,.03,0,.01,0,.03-.01,.05,0,0,.01,.01,.01,.03,0,.01,0,.03-.01,.04,0,.01,.01,.02,.01,.03,0,.02,0,.03-.01,.05,0,.01,.01,.02,.01,.03,0,.01,0,.03-.01,.04,0,0,.01,.02,.01,.03,0,.02,0,.03-.01,.05,0,0,.01,.02,.01,.03,0,.02,0,.03-.01,.04,0,.01,.01,.02,.01,.03,0,.01,0,.03-.01,.04,0,.01,.01,.02,.01,.03,0,.02,0,.03-.01,.05-.04,.18,.34,.32,.85,.32-.49,.01-.91,.15-.94,.31-.36,1.61-.54,2.42-.9,4.03,0,0,.01,.02,.01,.03,0,.02,0,.03-.01,.05,0,0,.01,.02,.01,.03,0,.01,0,.03-.01,.05,0,0,.01,.02,.01,.02,0,.02,0,.03-.01,.05,0,.01,.01,.02,.01,.03,0,.02,0,.03-.01,.05,0,0,.01,.02,.01,.02,0,.02,0,.03-.01,.05,0,0,.01,.02,.01,.02,0,.02,0,.03-.01,.05,0,0,.01,.02,.01,.03,0,.01,0,.03-.01,.04,0,.01,.01,.02,.01,.03,0,.02,0,.03-.01,.05,0,0,.01,.02,.01,.03,0,.02,0,.03-.01,.04,0,.01,.01,.02,.01,.03,0,.01,0,.03-.01,.04,0,0,.01,.02,.01,.03,0,.02,0,.03-.01,.05,0,.01,.01,.02,.01,.03,0,.02,0,.03-.01,.04,0,.01,.01,.02,.01,.03,0,.02,0,.03-.01,.05,0,0,.01,.02,.01,.03,0,.02,0,.03-.01,.05,0,.01,.01,.02,.01,.03,0,.01,0,.03-.01,.04,0,.01,.01,.02,.01,.03,0,.02,0,.03-.01,.04,0,.01,.01,.02,.01,.03,0,.02,0,.03-.01,.05,0,0,.01,.02,.01,.03,0,.02,0,.03-.01,.05,0,0,.01,.02,.01,.03,0,.02,0,.03-.01,.04,0,.01,.01,.02,.01,.03,0,.01,0,.03-.01,.04,0,0,.01,.02,.01,.03,0,.02,0,.03-.01,.05-.04,.18,.36,.32,.89,.32h69.15c.53,0,.94-.14,.9-.32,0-.02,0-.03,0-.05,0,0,.01-.02,0-.03,0-.02,0-.03,0-.05,0,0,.01-.02,0-.03,0-.01,0-.03,0-.05,0,0,.01-.02,0-.02,0-.02,0-.03,0-.05,0,0,.01-.02,0-.02,0-.02,0-.03,0-.05,0,0,.01-.01,0-.03,0-.02,0-.03,0-.05,0,0,.01-.02,0-.03,0-.01,0-.03,0-.05,0,0,.01-.02,0-.02,0-.02,0-.03,0-.05,0,0,.01-.02,0-.02,0-.02,0-.03,0-.05,0,0,.01-.02,0-.03,0-.02,0-.03,0-.05,0-.01,.01-.02,0-.03,0-.02,0-.03,0-.05,0-.01,.01-.02,0-.03,0-.02,0-.03,0-.05,0,0,.01-.02,0-.03,0-.02,0-.03,0-.05,0,0,.01-.02,0-.02,0-.02,0-.03,0-.05,0,0,.01-.01,0-.02,0-.02,0-.03,0-.05,0,0,.01-.02,0-.02,0-.02,0-.03,0-.05,0,0,.01-.02,0-.02,0-.02,0-.03,0-.05,0,0,.01-.01,0-.02,0-.02,0-.03,0-.05,0,0,.01-.02,0-.03,0-.02,0-.03,0-.05,0,0,.01-.02,0-.02,0-.02,0-.03,0-.05,0,0,.01-.02,0-.02,0-.02,0-.03,0-.05,0,0,.01-.02,0-.03-.34-1.61-.51-2.42-.84-4.03-.04-.17-.48-.32-1-.32h-1.33c.47-.01,.82-.15,.79-.31,0-.02,0-.03,0-.05,0,0,0-.02,0-.02,0-.02,0-.03,0-.05,0,0,0-.02,0-.02,0-.02,0-.03,0-.05,0-.01,0-.02,0-.03,0-.02,0-.03,0-.05,0,0,0-.02,0-.03,0-.02,0-.03,0-.05,0,0,0-.02,0-.03,0-.02,0-.03,0-.05,0,0,0-.02,0-.03,0-.02,0-.03,0-.05,0,0,0-.01,0-.02,0-.02,0-.03,0-.05,0,0,0-.02,0-.03,0-.02,0-.03,0-.05,0,0,0-.02,0-.02,0-.02,0-.03,0-.05,0,0,0-.02,0-.02,0-.01,0-.03,0-.05,0,0,0-.02,0-.02,0-.02,0-.03,0-.05,0,0,0-.02,0-.02,0-.02,0-.03,0-.05,0,0,0-.02,0-.03,0-.02,0-.03,0-.05,0,0,0-.02,0-.03,0-.02,0-.03,0-.05,0-.01,0-.02,0-.03,0-.02,0-.03,0-.04,0-.01,0-.02,0-.03,0-.02,0-.03,0-.05,0-.01,0-.02,0-.02,0-.02,0-.03,0-.05,0-.01,0-.02,0-.02,0-.02,0-.03,0-.05,0,0,0-.02,0-.02,0-.02,0-.03,0-.05,0,0,0-.02,0-.02,0-.02,0-.03,0-.05,0,0,0-.01,0-.02-.33-1.61-.49-2.42-.81-4.03-.02-.11-.21-.2-.46-.26h5.1c-.23,.06-.37,.15-.35,.26,0,.01,0,.03,0,.04,0,.01-.01,.02,0,.03,0,.01,0,.03,.01,.04,0,.01-.02,.02-.01,.03,0,.02,0,.03,0,.04,0,.01-.01,.02,0,.03,0,.02,0,.03,0,.04,0,.01-.01,.02,0,.03,0,.02,0,.03,.01,.04,0,.01-.02,.02-.01,.03,0,.01,0,.03,.01,.04,0,.01-.02,.02-.01,.03,0,.02,0,.03,.01,.04,0,.01-.02,.02-.01,.03,0,.02,0,.03,0,.04,0,0-.01,.02,0,.03,0,.02,0,.03,.01,.04,0,.01-.02,.02-.01,.03,0,.02,0,.03,0,.04,0,.01-.01,.02,0,.03,0,.02,0,.03,0,.04,0,.01-.01,.02,0,.03,0,.02,0,.03,.01,.04,0,.01-.02,.02-.01,.03,0,.01,0,.03,0,.04,0,0-.01,.02,0,.03,0,.01,0,.03,.01,.04,0,0-.02,.02-.01,.03,0,.02,0,.03,.01,.04,0,0-.02,.02-.01,.03,0,.02,0,.03,0,.04,0,0-.01,.02,0,.03,0,.02,0,.03,.01,.04,0,0-.02,.02-.01,.03,0,.01,0,.03,0,.04,0,.01-.01,.02,0,.03,0,.02,0,.03,0,.04,0,.01-.01,.02,0,.03,0,.01,0,.03,.01,.04,0,.01-.02,.02-.01,.03,0,.02,0,.03,0,.04,0,0-.01,.02,0,.03,.37,1.61,.55,2.42,.93,4.03,.04,.18,.49,.32,1,.32h.69c-.48,.01-.84,.15-.8,.31,0,.02,0,.03,.01,.04,0,.01-.01,.02-.01,.03,0,.02,0,.03,.01,.05,0,0-.01,.02-.01,.03,0,.01,0,.03,.01,.04,0,.01-.01,.02-.01,.03,0,.01,0,.03,.01,.04,0,.01-.01,.02-.01,.03,0,.01,0,.03,.01,.05,0,0-.01,.02-.01,.03,0,.02,0,.03,.01,.05,0,0-.01,.02-.01,.03,0,.02,0,.03,.01,.04,0,.01-.01,.02-.01,.03,0,.01,0,.03,.01,.04,0,0-.01,.02-.01,.03,0,.02,0,.03,.01,.05,0,0-.01,.02-.01,.03,0,.02,0,.03,.01,.05,0,0-.01,.02-.01,.03,0,.02,0,.03,.01,.04,0,0-.01,.02-.01,.03,0,.02,0,.03,.01,.05,0,0-.01,.02-.01,.03,0,.02,0,.03,.01,.04,0,.01-.01,.02-.01,.03,0,.02,0,.03,.01,.04,0,.01-.01,.02-.01,.03,0,.01,0,.03,.01,.04,0,.01-.01,.02-.01,.03,0,.02,0,.03,.01,.04,0,.01-.01,.02-.01,.03,0,.02,0,.03,.01,.05,0,0-.01,.02-.01,.03,0,.02,0,.03,.01,.05,0,0-.01,.02-.01,.03,0,.02,0,.03,.01,.05,0,0-.01,.02-.01,.03,0,.02,0,.03,.01,.04,0,.01-.01,.02-.01,.03,0,.02,0,.03,.01,.04,0,0-.01,.02-.01,.03,.37,1.61,.56,2.41,.94,4.02,.04,.18,.51,.32,1.04,.32h12.22c.53,0,.92-.14,.86-.32,0,0,0-.02,0-.03,0-.01,.02-.02,0-.04,0-.01,0-.02,0-.04,0-.01,.01-.02,0-.04,0-.01,0-.02,0-.04,0-.01,.02-.02,0-.04,0-.01,0-.02,0-.04,0-.01,.01-.02,0-.04,0-.01,0-.02,0-.04,0-.01,.01-.02,0-.04,0-.01,0-.02,0-.04,0-.01,.02-.02,0-.04,0-.01,0-.02,0-.03,0-.01,.01-.02,0-.04,0-.01,0-.02,0-.03,0-.01,.02-.02,0-.04,0-.01,0-.02,0-.04,0-.01,.02-.02,0-.04,0,0,0-.02,0-.03,0-.01,.01-.03,0-.04,0-.01,0-.02,0-.04,0-.01,.02-.02,0-.04,0-.01,0-.02,0-.03,0-.01,.02-.02,0-.04,0-.01,0-.02,0-.04,0-.01,.01-.02,0-.04,0-.01,0-.02,0-.03,0-.01,.01-.02,0-.04,0-.01,0-.02,0-.03,0-.01,.02-.02,0-.04,0-.01,0-.02,0-.04,0-.01,.01-.02,0-.04,0-.01,0-.02,0-.04,0-.01,.01-.02,0-.04,0-.01,0-.02,0-.03,0-.02,.01-.03,0-.04,0-.01,0-.02,0-.03,0-.02,.02-.02,0-.04,0-.01,0-.02,0-.03,0-.01,.01-.03,0-.04,0-.01,0-.02,0-.03,0-.01,.02-.03,0-.04-.51-1.61-.77-2.42-1.28-4.03-.06-.17-.52-.32-1.04-.32h-.79c.46-.01,.8-.15,.75-.31,0-.01,0-.02,0-.03,0-.01,.01-.03,0-.04,0-.01,0-.02,0-.03,0-.01,.01-.03,0-.04,0-.01,0-.02,0-.03,0-.01,.01-.03,0-.04,0-.01,0-.02,0-.04,0-.01,.01-.02,0-.04,0-.01,0-.02,0-.04,0-.01,.01-.02,0-.04,0-.01,0-.02,0-.04,0-.01,.01-.02,0-.04,0-.01,0-.02,0-.03,0-.01,.02-.02,0-.04,0-.01,0-.03,0-.04,0-.01,.01-.02,0-.04,0-.01,0-.02,0-.03,0-.01,.01-.03,0-.04,0-.01,0-.02,0-.03,0-.01,.01-.03,0-.04,0-.01,0-.02,0-.03,0-.01,.01-.03,0-.04,0-.01,0-.02,0-.03,0-.02,.01-.03,0-.04,0-.01,0-.02,0-.03,0-.01,.01-.02,0-.04,0-.01,0-.02,0-.03,0-.01,.01-.03,0-.04,0-.01,0-.02,0-.03,0-.01,.01-.02,0-.04,0,0,0-.02,0-.03,0-.01,.01-.02,0-.04,0-.01,0-.02,0-.03,0-.01,.02-.03,0-.04,0-.01,0-.02,0-.03,0-.02,.02-.03,0-.04,0-.01,0-.02,0-.04,0-.01,.01-.02,0-.04,0-.01,0-.02,0-.04,0-.01,.01-.02,0-.03,0-.01,0-.02,0-.04,0-.01,.01-.02,0-.04-.51-1.61-.76-2.42-1.27-4.03-.04-.11-.24-.2-.5-.26h5.1c-.22,.06-.36,.15-.32,.26,0,0,0,.02,.01,.03,0,.02-.02,.03-.01,.05,0,0,0,.02,.01,.03,0,.01-.02,.03-.01,.04,0,0,0,.02,.01,.03,0,.02-.02,.03-.01,.04,0,0,0,.02,.01,.03,0,.01-.02,.03-.01,.04,0,.01,0,.02,.01,.03,0,.01-.02,.03-.01,.04,0,0,0,.02,.01,.03,0,.02-.02,.03-.01,.04,0,.01,0,.02,.01,.03,0,.01-.02,.03-.01,.04,0,.01,0,.02,.01,.03,0,.02-.02,.03-.01,.04,0,.01,0,.02,.01,.03,0,.01-.02,.03-.01,.04,0,.01,0,.02,.01,.03,0,.02-.02,.03-.01,.05,0,0,0,.02,.01,.03,0,.01-.02,.03-.01,.04,0,.01,0,.02,.01,.03,0,.01-.02,.03-.01,.05,0,0,0,.02,.01,.03,0,.02-.02,.03-.01,.04,0,0,0,.02,.01,.03,0,.02-.02,.03-.01,.04,0,.01,0,.02,.01,.03,0,.01-.02,.03-.01,.04,0,.01,0,.02,.01,.03,0,.01-.02,.03-.01,.04,0,.01,0,.02,.01,.03,0,.01-.02,.03-.01,.04,0,0,0,.02,.01,.03,0,.02-.02,.03-.01,.04,0,.01,0,.02,.01,.03,0,.01-.02,.03-.01,.04,0,0,0,.02,.01,.03,0,.02-.02,.03-.01,.04,0,.01,0,.02,.01,.03,0,.02-.02,.03-.01,.04,.56,1.61,.84,2.42,1.39,4.03,.06,.18,.53,.32,1.04,.32h.85c-.47,.02-.8,.15-.75,.31,0,.01,0,.02,.01,.03,0,.02-.02,.03-.01,.04,0,.01,0,.02,.01,.03,0,.02-.02,.03-.01,.04,0,.01,0,.02,.01,.03,0,.01-.02,.03-.01,.04,0,0,0,.02,.01,.03,0,.02-.02,.03-.01,.04,0,.01,0,.02,.01,.03,0,.02-.02,.03-.01,.04,0,.01,0,.02,.01,.03,0,.01-.02,.03-.01,.04,0,.01,0,.02,.01,.03,0,.02-.02,.03-.01,.04,0,.01,0,.02,.01,.03,0,.01-.02,.03-.01,.04,0,.01,0,.02,.01,.03,0,.01-.02,.03-.01,.04,0,.01,0,.02,.01,.03,0,.01-.02,.03-.01,.04,0,0,0,.02,.01,.03,0,.01-.02,.03-.01,.04,0,.01,0,.02,.01,.03,0,.01-.02,.03-.01,.04,0,0,0,.02,.01,.03,0,.01-.02,.02-.01,.04,0,0,0,.02,.01,.03,0,.01-.02,.03-.01,.04,0,.01,0,.02,.01,.03,0,.01-.02,.03-.01,.04,0,0,0,.02,.01,.03,0,.02-.02,.03-.01,.04,0,.01,0,.02,.01,.03,0,.01-.02,.02-.01,.04,0,.01,0,.02,.01,.03,0,.01-.02,.03-.01,.04,0,.01,0,.02,.01,.03,0,.01-.02,.03-.01,.04,0,.01,0,.02,.01,.03,0,.01-.02,.02-.01,.04,0,.01,0,.02,.01,.03,0,.02-.02,.03-.01,.04,.56,1.61,.84,2.42,1.4,4.02,.06,.18,.54,.32,1.08,.32h12.22c.53,0,.9-.14,.83-.32,0,0,0-.01-.01-.02,0-.02,.02-.03,.01-.05,0,0,0-.01-.01-.02,0-.02,.02-.03,.01-.05,0,0,0-.01-.01-.02,0-.02,.02-.04,.01-.05,0,0,0-.01-.01-.02,0-.02,.02-.03,.01-.05,0,0,0-.01-.01-.02,0-.02,.02-.03,.01-.05,0,0,0-.01-.01-.02,0-.02,.02-.04,.01-.05,0,0,0-.01-.01-.02,0-.02,.02-.03,.01-.05,0,0,0-.01-.01-.02,0-.02,.02-.03,.01-.05,0,0,0-.01-.01-.02,0-.02,.02-.03,.01-.05,0,0,0-.01-.01-.02,0-.02,.02-.03,.01-.05,0,0,0-.01-.01-.02,0-.02,.02-.03,.01-.05,0,0,0-.01-.01-.02,0-.02,.02-.03,.01-.05,0,0,0-.01-.01-.02,0-.02,.02-.03,.01-.05,0,0,0-.01-.01-.02,0-.02,.02-.03,.01-.05,0,0,0-.01-.01-.02,0-.02,.02-.03,.01-.05,0,0,0-.01-.01-.02,0-.02,.02-.03,.01-.05,0,0,0-.02-.01-.02,0-.02,.02-.04,.01-.05,0,0,0-.01-.01-.02,0-.02,.02-.03,.01-.05,0,0,0-.01-.01-.02,0-.02,.02-.03,.01-.05,0,0,0-.02-.01-.02,0-.02,.02-.03,.01-.05,0-.01,0-.01-.01-.02,0-.02,.02-.03,.01-.05-.7-1.61-1.05-2.42-1.74-4.03-.07-.17-.56-.32-1.08-.32h-.96c.47-.01,.79-.15,.71-.31,0,0,0-.01,0-.02,0-.02,.02-.03,0-.05,0,0,0-.01,0-.02,0-.02,.02-.03,0-.06,0,0,0-.01,0-.02,0-.02,.02-.04,0-.05,0,0,0-.01,0-.02,0-.01,.02-.03,0-.05,0,0,0-.01,0-.02,0-.02,.02-.04,0-.05,0,0,0-.01,0-.02,0-.02,.02-.03,0-.05,0,0,0-.01,0-.02,0-.02,.02-.03,0-.05,0,0,0-.01,0-.02,0-.02,.02-.03,0-.05,0,0,0-.01,0-.02,0-.02,.02-.03,0-.05,0,0,0-.02,0-.02,0-.02,.02-.03,0-.06,0,0,0-.01,0-.02,0-.02,.02-.03,0-.05,0,0,0-.01,0-.02,0-.02,.02-.04,0-.05,0,0,0-.01,0-.02,0-.02,.02-.03,0-.05,0,0,0-.01,0-.02,0-.02,.02-.04,0-.05,0,0,0-.01,0-.02,0-.02,.02-.03,0-.05,0,0,0-.01,0-.02,0-.02,.02-.03,0-.05,0,0,0-.01,0-.02,0-.02,.02-.04,0-.05,0,0,0-.01,0-.02,0-.02,.02-.03,0-.05,0,0,0-.01,0-.02,0-.02,.02-.03,0-.05,0,0,0-.01,0-.02,0-.02,.02-.03,0-.05,0,0,0-.01,0-.02,0-.02,.02-.03,0-.05-.69-1.61-1.04-2.42-1.73-4.03-.05-.11-.25-.2-.52-.26h5.1c-.21,.06-.34,.15-.29,.26,0,0,0,0,0,.01,0,.02-.02,.04,0,.06,0,0,0,0,0,.01,0,.02-.02,.04,0,.06,0,0,0,0,0,.02,0,.02-.02,.04,0,.06,0,0,0,0,0,.01,0,.02-.02,.04,0,.06,0,0,0,0,0,.02,0,.02-.02,.03,0,.06,0,0,0,0,0,.01,0,.02-.02,.04,0,.06,0,0,0,.01,0,.01,0,.02-.02,.04,0,.06,0,0,0,0,0,.01,0,.02-.02,.04,0,.06,0,0,0,.01,0,.02,0,.02-.02,.04,0,.06,0,0,0,.01,0,.02,0,.02-.02,.04,0,.06,0,0,0,0,0,.01,0,.02-.02,.04,0,.06,0,0,0,.01,0,.02,0,.02-.02,.04,0,.06,0,0,0,0,0,.01,0,.02-.02,.04,0,.06,0,0,0,0,0,.01,0,.02-.02,.04,0,.06,0,0,0,.01,0,.02,0,.02-.02,.04,0,.06,0,0,0,0,0,.02,0,.02-.02,.04,0,.06,0,0,0,0,0,.02,0,.02-.02,.04,0,.06,0,0,0,0,0,.01,0,.02-.02,.04,0,.06,0,0,0,.01,0,.02,0,.02-.02,.04,0,.06,0,0,0,0,0,.01,0,.02-.02,.04,0,.06,0,0,0,0,0,.01,0,.02-.02,.04,0,.06,.74,1.61,1.11,2.42,1.85,4.03,.08,.18,.57,.32,1.07,.32h1.03c-.47,.01-.79,.15-.72,.31,0,0,0,.01,0,.02,0,.02-.02,.04,0,.06,0,0,0,.01,0,.02,0,.02-.02,.04,0,.06,0,0,0,.01,0,.02,0,.02-.02,.04,0,.06,0,0,0,0,0,.02,0,.02-.02,.04,0,.06,0,0,0,.01,0,.01,0,.02-.02,.04,0,.06,0,0,0,.01,0,.02,0,.02-.02,.04,0,.05,0,0,0,.01,0,.02,0,.02-.02,.03,0,.06,0,0,0,.01,0,.02,0,.02-.02,.03,0,.06,0,0,0,.01,0,.02,0,.02-.02,.04,0,.06,0,0,0,.01,0,.02,0,.02-.02,.04,0,.06,0,0,0,0,0,.02,0,.02-.02,.04,0,.06,0,0,0,.01,0,.02,0,.02-.02,.04,0,.06,0,0,0,0,0,.02,0,.02-.02,.04,0,.06,0,0,0,0,0,.02,0,.02-.02,.03,0,.06,0,0,0,.01,0,.02,0,.02-.02,.04,0,.05,0,0,0,0,0,.02,0,.02-.02,.04,0,.06,0,0,0,.01,0,.02,0,.02-.02,.04,0,.06,0,0,0,.01,0,.02,0,.02-.02,.04,0,.06,0,0,0,.01,0,.02,0,.02-.02,.04,0,.06,0,0,0,.01,0,.02,0,.02-.02,.04,0,.06,0,0,0,.01,0,.02,0,.02-.02,.04,0,.06,.74,1.61,1.11,2.42,1.85,4.02,.08,.18,.58,.32,1.11,.32h12.22c.53,0,.89-.14,.79-.32,0,0,0,0,0,0,0-.02,.02-.04,0-.06,0,0,0,0,0,0,0-.02,.01-.04,0-.06,0,0,0,0,0,0,0-.02,.02-.04,0-.07,0,0,0,0,0,0,0-.02,.01-.04,0-.06,0,0,0,0,0,0,0-.02,.01-.04,0-.06,0,0,0,0,0,0,0-.02,.02-.04,0-.07,0,0,0,0,0,0,0-.02,.01-.04,0-.06,0,0,0,0,0,0,0-.02,.02-.04,0-.06,0,0,0,0,0,0,0-.02,.02-.04,0-.07,0,0,0,0,0,0,0-.02,.01-.04,0-.06,0,0,0,0,0,0,0-.02,.02-.04,0-.07,0,0,0,0,0,0,0-.02,.02-.04,0-.07,0,0,0,0,0,0,0-.02,.01-.04,0-.07t0,0s.01-.04,0-.06t0,0s.02-.04,0-.07c0,0,0,0,0,0,0-.02,.01-.04,0-.06,0,0,0,0,0,0,0-.02,.01-.04,0-.07,0,0,0,0,0,0,0-.02,.01-.04,0-.07t0,0s.02-.04,0-.06c0,0,0,0,0,0,0-.02,.01-.04,0-.06,0,0,0,0,0-.01,0-.02,.02-.04,0-.06-.88-1.61-1.32-2.42-2.21-4.03-.1-.17-.6-.32-1.11-.32h-1.14c.46-.01,.77-.15,.68-.31,0,0,0,0,0,0,0-.02,.01-.04,0-.07,0,0,0,0,0,0,0-.03,.01-.04,0-.07,0,0,0,0,0,0,0-.02,.02-.04,0-.07,0,0,0,0,0,0,0-.02,.01-.04,0-.06,0,0,0,0,0,0,0-.02,.02-.04,0-.07t0,0s.02-.05,0-.07c0,0,0,0,0,0,0-.02,.02-.04,0-.06,0,0,0,0,0,0,0-.02,.02-.04,0-.07t0,0s.01-.04,0-.06c0,0,0,0,0,0,0-.02,.01-.04,0-.07,0,0,0,0,0,0,0-.02,.02-.04,0-.07,0,0,0,0,0,0,0-.02,.01-.04,0-.07t0,0s.01-.04,0-.07c0,0,0,0,0,0,0-.02,.02-.04,0-.07,0,0,0,0,0,0,0-.02,.02-.04,0-.07,0,0,0,0,0,0,0-.02,.01-.04,0-.07,0,0,0,0,0,0,0-.02,.01-.05,0-.07t0,0s.01-.04,0-.07c0,0,0,0,0,0,0-.02,.02-.04,0-.07,0,0,0,0,0,0,0-.02,.01-.04,0-.06,0,0,0,0,0,0,0-.02,.02-.04,0-.07-.88-1.61-1.32-2.42-2.2-4.03-.06-.11-.27-.2-.54-.26h5.09c-.17,.05-.26,.12-.26,.21-.02,.02,0,.05,0,.07-.02,.02,0,.05,0,.07-.02,.02,0,.05,0,.07-.02,.04-.03,.08,0,.12h0v.02s0,.05,0,.07c-.02,.04-.03,.08,0,.13h0v.02s0,.05,0,.07c-.02,.02,0,.05,0,.07-.02,.02,0,.05,0,.07-.02,.02,0,.05,0,.07-.02,.02,0,.05,0,.07-.02,.04-.03,.08,0,.12h0v.02s0,.05,0,.07c-.02,.02,0,.05,0,.07-.02,.02,0,.05,0,.07-.02,.02,0,.05,0,.07-.02,.02,0,.05,0,.07-.02,.04-.02,.08,0,.12,.92,1.61,1.38,2.42,2.31,4.03,.1,.18,.6,.32,1.11,.32h1.2c-.47,.01-.77,.15-.68,.31h0s-.01,.05,0,.07h0s-.01,.05,0,.07h0s-.01,.05,0,.07h0s-.01,.05,0,.07h0s-.01,.05,0,.07h0s-.01,.05,0,.07h0s-.01,.05,0,.07h0s-.01,.05,0,.07h0s-.01,.05,0,.07h0s-.01,.05,0,.07h0s-.01,.05,0,.07h0s-.01,.05,0,.07h0s-.01,.05,0,.07h0s-.01,.05,0,.07h0s-.01,.05,0,.07h0s-.01,.05,0,.07h0s-.01,.05,0,.07h0s-.01,.05,0,.07h0s-.01,.05,0,.07h0s-.01,.05,0,.07h0s-.01,.05,0,.07c.93,1.61,1.39,2.42,2.31,4.02,.1,.18,.62,.32,1.14,.32h12.22c.48,0,.78-.11,.76-.26,.01-.02,0-.05,0-.07,.01-.02,0-.05,0-.07,.01-.02,0-.05,0-.07,.01-.02,0-.05,0-.07,.01-.02,0-.05,0-.07,.01-.02,0-.05,0-.07,.01-.02,0-.05,0-.07,.01-.02,0-.05,0-.08,.01-.02,0-.04,0-.07,.01-.02,0-.05,0-.07,.01-.02,0-.05,0-.07,.01-.02,0-.05,0-.07,.01-.02,0-.05,0-.07,.01-.02,0-.05,0-.07,.01-.02,0-.05,0-.07,.01-.02,0-.05,0-.07,.01-.02,0-.05,0-.07,.01-.02,0-.05,0-.07,.01-.02,0-.05,0-.07,.01-.02,0-.05,0-.07,.03-.04,.03-.08,0-.13-1.07-1.61-1.6-2.42-2.66-4.03-.12-.17-.63-.32-1.14-.32h-1.32c.41-.01,.67-.12,.65-.26,.02-.02,0-.05,0-.07,.02-.02,0-.05,0-.07,.02-.02,0-.05,0-.07,.02-.02,0-.05,0-.07,.02-.02,0-.05,0-.07,.02-.02,0-.05,0-.07,.02-.02,0-.05,0-.07,.02-.02,0-.05,0-.07,.02-.02,0-.05,0-.07,.02-.02,0-.05,0-.07,.02-.02,0-.05,0-.07,.02-.02,0-.05,0-.07,.02-.02,0-.05,0-.07,.02-.02,0-.05,0-.08,.02-.02,0-.04,0-.07,.02-.02,0-.05,0-.07,.02-.02,0-.05,0-.07,.02-.02,0-.05,0-.07,.02-.02,0-.05,0-.07,.02-.02,0-.05,0-.07,.03-.04,.03-.08,0-.13-1.06-1.61-1.59-2.42-2.65-4.03-.07-.11-.3-.2-.58-.26h8.86c.43,0,.69-.11,.67-.26,.01-.02,0-.05,0-.07,.01-.02,0-.05,0-.07,.01-.02,0-.05,0-.07,.01-.02,0-.05,0-.07,.01-.02,0-.05,0-.07,.01-.02,0-.05,0-.07,.01-.02,0-.05,0-.07,.01-.02,0-.05,0-.07,.01-.02,0-.05,0-.07,.01-.02,0-.05,0-.07,.01-.02,0-.05,0-.07,.01-.02,0-.05,0-.07,.01-.02,0-.05,0-.07,.01-.02,0-.05,0-.07,.01-.02,0-.05,0-.07,.01-.02,0-.05,0-.07,.01-.02,0-.05,0-.07Zm-15.97,1.23s0-.05,0-.07c.01-.02,0-.05,0-.07,.01-.02,0-.05,0-.07,.01-.02,0-.05,0-.07,.01-.02,0-.05,0-.07,.01-.02,0-.05,0-.07,.01-.02,0-.05,0-.07,.01-.02,0-.05,0-.07,.01-.02,0-.05,0-.07,.01-.02,0-.05,0-.07,.01-.02,0-.05,0-.07,.01-.02,0-.05,0-.07,.01-.02,0-.05,0-.07,.01-.02,0-.05,0-.07,.01-.02,0-.05,0-.07,.01-.02,0-.05,0-.07,.01-.02,0-.05,0-.07,.01-.02,0-.05,0-.07,.01-.02,0-.05,0-.07,.01-.02,0-.05,0-.07,.02-.04,.03-.08,0-.13-1-1.61-1.5-2.42-2.5-4.03-.04-.07-.15-.12-.26-.17h3.14s-.06,.08-.06,.12c-.01,.02,0,.05,0,.07-.01,.02,0,.05,0,.07-.01,.02,0,.05,0,.07-.01,.02,0,.05,0,.07-.01,.02,0,.05,0,.07-.01,.02,0,.05,0,.07-.01,.02,0,.05,0,.07-.01,.02,0,.05,0,.07-.01,.02,0,.05,0,.07-.01,.02,0,.05,0,.07-.01,.02,0,.05,0,.07-.01,.02,0,.05,0,.08-.01,.02,0,.05,0,.07-.01,.02,0,.05,0,.07-.01,.02,0,.05,0,.07-.01,.02,0,.05,0,.08-.01,.02,0,.05,0,.07-.01,.02,0,.05,0,.07-.01,.02,0,.05,0,.07-.01,.02,0,.05,0,.07-.02,.04-.02,.08,0,.13,1.03,1.61,1.55,2.42,2.58,4.03,.07,.11,.3,.2,.57,.26h-3.71c.16-.05,.25-.12,.24-.21Zm-32.05-5.61s0,0,0,.02c0,.02-.01,.04,0,.06,0,0,0,.01,0,.02,0,.02-.01,.04,0,.06,0,0,0,.01,0,.02,0,.02-.01,.04,0,.06,0,0,0,.01,0,.02,0,.02-.01,.04,0,.06,0,0,0,.01,0,.02,0,.02-.01,.04,0,.05,0,0,0,.01,0,.02,0,.02-.01,.04,0,.05,0,0,0,.01,0,.02,0,.02-.01,.04,0,.06,0,0,0,0,0,.02,0,.02-.01,.04,0,.06,0,0,0,0,0,.02,0,.02-.01,.04,0,.06,0,0,0,.01,0,.02,0,.02-.01,.03,0,.05,0,0,0,.01,0,.01,0,.02-.01,.04,0,.06,0,0,0,.01,0,.02,0,.02-.01,.04,0,.05,0,0,0,.01,0,.02,0,.02-.01,.04,0,.06,0,0,0,.01,0,.02,0,.02-.01,.04,0,.06,0,0,0,.01,0,.02,0,.02-.01,.04,0,.05,0,0,0,0,0,.02,0,.02-.01,.04,0,.06,0,0,0,0,0,.02,0,.02-.01,.03,0,.06,0,0,0,0,0,.01,0,.02-.01,.04,0,.06,0,0,0,.01,0,.02,0,.02-.01,.03,0,.06,0,0,0,.01,0,.01,0,.02-.01,.04,0,.06,0,0,0,.01,0,.02,0,.02-.01,.04,0,.05,.68,1.61,1.02,2.42,1.7,4.03,.05,.11,.25,.2,.52,.26h-5.05c.21-.06,.34-.15,.3-.26,0,0,0-.01,0-.02,0-.02,.02-.03,0-.05,0,0,0-.01,0-.02,0-.02,.02-.03,0-.05,0,0,0-.01,0-.02,0-.02,.02-.03,0-.05,0,0,0-.02,0-.02,0-.02,.02-.03,0-.05,0,0,0-.01,0-.02,0-.02,.02-.03,0-.05,0,0,0-.02,0-.02,0-.02,.02-.03,0-.05,0,0,0-.02,0-.02,0-.02,.02-.03,0-.05,0,0,0-.02,0-.02,0-.02,.02-.03,0-.05,0,0,0-.01,0-.02,0-.02,.02-.03,0-.05,0,0,0-.01,0-.02,0-.02,.02-.03,0-.05,0,0,0-.01,0-.02,0-.02,.02-.03,0-.05,0,0,0-.01,0-.02,0-.02,.02-.03,0-.05,0,0,0-.02,0-.02,0-.02,.02-.03,0-.05,0,0,0-.01,0-.02,0-.02,.02-.03,0-.05,0,0,0-.01,0-.02,0-.02,.02-.03,0-.05,0,0,0-.01,0-.02,0-.02,.02-.04,0-.05,0,0,0-.01,0-.02,0-.02,.02-.03,0-.05,0,0,0-.01,0-.02,0-.02,.02-.03,0-.05,0,0,0-.01,0-.02,0-.02,.02-.03,0-.05,0,0,0-.01,0-.02,0-.02,.02-.03,0-.05,0,0,0-.01,0-.02,0-.02,.02-.03,0-.05-.63-1.61-.95-2.42-1.58-4.03-.03-.07-.12-.12-.23-.17h4.13c.13,0,.24-.01,.35-.03-.11,.06-.16,.13-.13,.21Zm-16.83,0s0,.02,0,.03c0,.01-.01,.02,0,.04,0,.01,0,.02,0,.03,0,.01-.01,.03,0,.04,0,.01,0,.02,0,.03,0,.01-.01,.03,0,.04,0,.01,0,.02,0,.03,0,.01-.01,.03,0,.04,0,.01,0,.02,0,.03,0,.02-.01,.03,0,.04,0,.01,0,.02,0,.03,0,.01-.01,.03,0,.04,0,.01,0,.02,0,.03,0,.01-.01,.03,0,.04,0,.01,0,.02,0,.03,0,.01-.01,.02,0,.04,0,0,0,.02,0,.03,0,.01-.01,.03,0,.04,0,0,0,.02,0,.03,0,.02-.01,.03,0,.04,0,.01,0,.02,0,.03,0,.01-.01,.03,0,.04,0,.01,0,.02,0,.03,0,.01-.01,.03,0,.04,0,.01,0,.02,0,.03,0,.02-.01,.03,0,.04,0,.01,0,.02,0,.03,0,.01-.01,.03,0,.04,0,.01,0,.02,0,.03,0,.01-.01,.03,0,.04,0,.01,0,.02,0,.03,0,.01-.01,.02,0,.04,0,.01,0,.02,0,.03,0,.01-.01,.03,0,.04,0,.01,0,.02,0,.03,0,.01-.01,.03,0,.04,0,.01,0,.02,0,.03,0,.01-.01,.03,0,.04,0,.01,0,.02,0,.03,0,.02-.01,.03,0,.04,0,.01,0,.02,0,.03,0,.01-.01,.03,0,.04,.49,1.61,.74,2.42,1.23,4.03,.03,.11,.23,.2,.49,.26h-5.04c.22-.06,.36-.15,.33-.26,0-.01,0-.02-.01-.04,0-.01,.02-.02,.01-.03,0-.01,0-.02-.01-.04,0-.01,.02-.02,.01-.04,0-.01,0-.02-.01-.04,0-.01,.02-.02,.01-.04,0-.01,0-.03-.01-.04,0-.01,.02-.02,.01-.03,0-.01,0-.02-.01-.04,0-.01,.02-.02,.01-.04,0-.01,0-.02-.01-.04,0-.01,.02-.02,.01-.04,0-.02,0-.03-.01-.04,0,0,.02-.02,.01-.03,0-.01,0-.02-.01-.04,0-.01,.02-.02,.01-.03,0-.01,0-.02-.01-.04,0-.01,.02-.02,.01-.04,0-.01,0-.02-.01-.04,0-.01,.02-.02,.01-.04,0-.01,0-.02-.01-.04,0-.01,.02-.02,.01-.04,0-.01,0-.02-.01-.04,0-.01,.02-.02,.01-.04,0-.01,0-.02-.01-.04,0-.01,.02-.02,.01-.04,0-.01-.01-.02-.01-.04,0-.01,.02-.02,.01-.04,0-.01,0-.02-.01-.04,0-.01,.02-.02,.01-.04,0-.01-.01-.02-.01-.04,0-.01,.02-.02,.01-.03,0-.01,0-.02-.01-.04,0-.01,.02-.02,.01-.04,0-.01,0-.02-.01-.04,0-.01,.02-.02,.01-.04,0-.01,0-.02-.01-.04,0-.01,.02-.02,.01-.04,0-.01,0-.02-.01-.03,0-.01,.02-.02,.01-.04,0-.01,0-.02-.01-.04,0-.01,.02-.02,.01-.04-.45-1.61-.68-2.42-1.12-4.03-.02-.07-.1-.12-.21-.17h4.3c.05,0,.1,0,.14,0-.09,.05-.14,.11-.12,.18Zm-50.5,0c-.06,1.61-.09,2.42-.15,4.03,0,0,0,0,0,0,0,.02,0,.04,0,.07,0,0,0,0,0,0,0,.02,0,.04,0,.07,0,0,0,0,0,0,0,.02,0,.04,0,.07,0,0,0,0,0,0,0,.02,0,.05,0,.07,0,0,0,0,0,0,0,.03,0,.04,0,.07,0,0,0,0,0,0,0,.02,0,.04,0,.07,0,0,0,0,0,0,0,.02,0,.04,0,.07,0,0,0,0,0,0,0,.02,0,.04,0,.07,0,0,0,0,0,0,0,.02,0,.04,0,.07,0,0,0,0,0,0,0,.02,0,.04,0,.07,0,0,0,0,0,0,0,.03,0,.04,0,.07,0,0,0,0,0,0,0,.02,0,.04,0,.07,0,0,0,0,0,0,0,.02,0,.04,0,.07,0,0,0,0,0,0,0,.02,0,.04,0,.07,0,0,0,0,0,0,0,.02,0,.04,0,.07,0,0,0,0,0,0,0,.02,0,.05,0,.07,0,0,0,0,0,0,0,.02,0,.04,0,.07,0,0,0,0,0,0,0,.03,0,.04,0,.07,0,0,0,0,0,0,0,.02,0,.04,0,.07,0,0,0,0,0,0,0,.02,0,.04,0,.07,0,0,0,0,0,0,0,.03,0,.05,0,.07,0,.11,.16,.2,.39,.26h-5.04c.24-.06,.41-.15,.42-.26,.1-1.61,.15-2.42,.26-4.03,0,0,0,0,0,0,0-.02,0-.04,0-.06,0,0,0,0,0,0,0-.02,0-.04,0-.06,0,0,0,0,0,0,0-.02,0-.04,0-.07,0,0,0,0,0-.01,0-.02,0-.04,0-.06,0,0,0,0,0,0,0-.02,0-.04,0-.06,0,0,0,0,0-.01,0-.02,0-.04,0-.06,0,0,0,0,0,0,0-.02,0-.04,0-.07,0,0,0,0,0,0,0-.02,0-.04,0-.07,0,0,0,0,0,0,0-.02,0-.04,0-.06,0,0,0,0,0,0,0-.02,0-.04,0-.06,0,0,0,0,0,0,0-.02,0-.04,0-.07,0,0,0,0,0,0,0-.02,0-.04,0-.06,0,0,0,0,0,0,0-.02,0-.04,0-.07,0,0,0,0,0,0,0-.02,0-.04,0-.06,0,0,0,0,0,0,0-.02,0-.04,0-.06,0,0,0,0,0-.01,0-.02,0-.04,0-.06,0,0,0,0,0,0,0-.02,0-.04,0-.06,0,0,0,0,0,0,0-.02,0-.04,0-.07,0,0,0,0,0,0,0-.02,0-.04,0-.06,0,0,0,0,0,0,0-.02,0-.04,0-.06,0,0,0,0,0-.01,0-.02,0-.04,0-.06,0-.07-.06-.12-.15-.17h4.43c-.09,.05-.16,.11-.16,.17Zm12.91,5.55s0-.04,0-.07c0,0,0,0,0,0,0-.02,0-.04,0-.07,0,0,0,0,0,0,0-.02,0-.05,0-.07,0,0,0,0,0,0,0-.02,0-.04,0-.07,0,0,0,0,0,0,0-.02,0-.04,0-.07,0,0,0,0,0,0,0-.02,0-.05,0-.07,0,0,0,0,0,0,0-.02,0-.04,0-.07,0,0,0,0,0,0,0-.02,0-.04,0-.07,0,0,0,0,0,0,0-.02,0-.04,0-.07,0,0,0,0,0,0,0-.02,0-.04,0-.07,0,0,0,0,0,0,0-.02,0-.04,0-.07,0,0,0,0,0,0,0-.02,0-.04,0-.07,0,0,0,0,0,0,0-.02,0-.04,0-.07,0,0,0,0,0,0,0-.02,0-.04,0-.07,0,0,0,0,0,0,0-.02,0-.04,0-.07,0,0,0,0,0,0,0-.02,0-.04,0-.06,0,0,0,0,0,0,0-.02,0-.04,0-.07,0,0,0,0,0,0,0-.02,0-.04,0-.07,0,0,0,0,0,0,0-.02,0-.04,0-.06,0,0,0,0,0,0,0-.02,0-.04,0-.07,0,0,0,0,0,0,0-.02,0-.04,0-.07,0,0,0,0,0,0-.08-1.61-.12-2.42-.2-4.03,0-.07-.07-.12-.16-.17h4.43c-.09,.05-.15,.11-.14,.17,0,.02,0,.04,0,.06,0,0,0,0,0,.01,0,.02,0,.04,0,.06,0,0,0,0,0,.01,0,.02,0,.04,0,.06,0,0,0,0,0,0,0,.02,0,.04,0,.07,0,0,0,0,0,0,0,.02,0,.04,0,.06,0,0,0,0,0,0,0,.02,0,.04,0,.06,0,0,0,0,0,.01,0,.02,0,.04,0,.06,0,0,0,0,0,0,0,.02,0,.04,0,.06,0,0,0,0,0,0,0,.02,0,.04,0,.06,0,0,0,0,0,.01,0,.02,0,.04,0,.06h0s0,.05,0,.07c0,0,0,0,0,.01,0,.02,0,.04,0,.06,0,0,0,0,0,0,0,.02,0,.04,0,.06,0,0,0,0,0,0,0,.02,0,.04,0,.06,0,0,0,0,0,0,0,.02,0,.04,0,.07,0,0,0,0,0,0,0,.02,0,.04,0,.06,0,0,0,0,0,.01,0,.02,0,.04,0,.06,0,0,0,0,0,0,0,.02,0,.04,0,.06,0,0,0,0,0,.01,0,.02,0,.04,0,.06,0,0,0,0,0,0,0,.02,0,.04,0,.06,0,0,0,0,0,0,0,.02,0,.04,0,.06,0,0,0,0,0,.01,.12,1.61,.19,2.42,.32,4.03,0,.11,.18,.2,.42,.26h-5.04c.23-.06,.39-.15,.39-.26Zm-34.58,0c.29-1.61,.43-2.42,.72-4.03,0,0-.01-.01-.01-.02,0-.02,0-.03,.01-.05,0,0-.01-.01-.01-.02,0-.02,0-.03,.01-.05,0,0-.01-.02-.01-.02,0-.02,0-.03,.01-.05,0-.01-.01-.02-.01-.03,0-.02,0-.03,.01-.05,0,0-.01-.01-.01-.02,0-.02,0-.03,.01-.05,0-.01-.01-.02-.01-.02,0-.02,0-.03,.01-.05,0,0-.01-.02-.01-.02,0-.02,0-.03,.01-.05,0,0-.01-.01-.01-.02,0-.02,0-.03,.01-.05,0,0-.01-.01-.01-.02,0-.02,0-.03,.01-.05,0,0-.01-.01-.01-.02,0-.02,0-.03,.01-.05,0,0-.01-.02-.01-.02,0-.02,0-.03,.01-.05,0,0-.01-.02-.01-.02,0-.02,0-.03,.01-.05,0,0-.01-.02-.01-.02,0-.02,0-.03,.01-.05,0,0-.01-.02-.01-.02,0-.02,0-.03,.01-.05,0,0-.01-.02-.01-.03,0-.02,0-.03,.01-.05,0-.01-.01-.02-.01-.02,0-.02,0-.03,.01-.05,0,0-.01-.01-.01-.02,0-.02,0-.03,.01-.05,0,0-.01-.01-.01-.02,0-.02,0-.03,.01-.05,0,0-.01-.01-.01-.02,0-.02,0-.03,.01-.05,0,0-.01-.02-.01-.02,0-.02,0-.03,.01-.05,0-.01-.01-.02-.01-.02,0-.02,0-.03,.01-.05,.01-.07-.05-.12-.13-.17,1.34,0,2.72,0,4.43,0-.1,.05-.17,.11-.18,.17-.24,1.61-.36,2.42-.61,4.03,0,0,0,.01,0,.02,0,.02,0,.03,0,.05,0,0,0,.01,0,.02,0,.02,0,.04,0,.05,0,0,0,.01,0,.02,0,.02,0,.03,0,.05,0,0,0,.01,0,.02,0,.02,0,.03,0,.05,0,0,0,.01,0,.02,0,.02,0,.03,0,.05,0,0,0,.01,0,.02,0,.02,0,.03,0,.05,0,0,0,.01,0,.02,0,.02,0,.03,0,.05,0,0,0,.01,0,.02,0,.02,0,.04,0,.05,0,0,0,.01,0,.02,0,.02,0,.04,0,.05,0,0,0,.01,0,.02,0,.02,0,.03,0,.05,0,0,0,.01,0,.02,0,.02,0,.04,0,.05,0,0,0,.01,0,.02,0,.02,0,.03,0,.05,0,0,0,.01,0,.02,0,.02,0,.03,0,.05,0,0,0,.01,0,.02,0,.02,0,.03,0,.06,0,0,0,.01,0,.02,0,.02,0,.04,0,.06,0,0,0,.01,0,.02,0,.02,0,.04,0,.05,0,0,0,.01,0,.02,0,.02,0,.03,0,.05,0,0,0,.01,0,.02,0,.02,0,.03,0,.05,0,0,0,.01,0,.02,0,.02,0,.04,0,.05,0,0,0,.01,0,.02,0,.02,0,.03,0,.05,0,0,0,.01,0,.02,0,.02,0,.03,0,.06-.02,.12,.15,.21,.41,.27-.05,0-.1-.01-.15-.01h-4.93c.25-.06,.43-.15,.45-.26Zm4.78,6.13c.23-1.61,.34-2.41,.56-4.03,0,0,0,0,0-.01,0-.02,0-.04,0-.06,0,0,0-.01,0-.02,0-.02,0-.04,0-.05,0,0,0-.01,0-.02,0-.02,0-.04,0-.06,0,0,0-.01,0-.02,0-.02,0-.04,0-.06,0,0,0-.01,0-.02,0-.02,0-.03,0-.06,0,0,0-.01,0-.02,0-.02,0-.03,0-.05,0,0,0-.01,0-.02,0-.02,0-.03,0-.06,0,0,0-.01,0-.02,0-.02,0-.03,0-.05,0,0,0-.01,0-.02,0-.02,0-.04,0-.05,0,0,0-.01,0-.02,0-.02,0-.04,0-.06,0,0,0-.01,0-.02,0-.02,0-.04,0-.05,0,0,0-.01,0-.02,0-.02,0-.04,0-.06,0,0,0,0,0-.02,0-.02,0-.04,0-.05,0,0,0,0,0-.02,0-.02,0-.03,0-.06,0,0,0-.01,0-.02,0-.02,0-.03,0-.05,0,0,0-.01,0-.02,0-.02,0-.04,0-.05,0,0,0-.01,0-.02,0-.02,0-.04,0-.06,0,0,0-.01,0-.02,0-.02,0-.04,0-.05,0,0,0-.01,0-.02,0-.02,0-.03,0-.05,0,0,0-.01,0-.02,0-.02,0-.03,0-.05,0,0,0-.01,0-.02,0-.02,0-.04,0-.05,.02-.12-.16-.21-.41-.27,.05,0,.1,.01,.15,.01h4.99c-.25,.06-.42,.15-.44,.26-.18,1.61-.27,2.41-.45,4.03,0,0,0,0,0,.01,0,.02,0,.04,0,.06,0,0,0,0,0,.01,0,.02,0,.04,0,.06,0,0,0,.01,0,.02,0,.02,0,.04,0,.06,0,0,0,0,0,.01,0,.02,0,.04,0,.06,0,0,0,0,0,.01,0,.02,0,.04,0,.06,0,0,0,0,0,.01,0,.02,0,.04,0,.06,0,0,0,0,0,.01,0,.02,0,.04,0,.06,0,0,0,.01,0,.01,0,.02,0,.04,0,.06,0,0,0,0,0,.01,0,.02,0,.04,0,.06,0,0,0,0,0,.01,0,.02,0,.04,0,.06,0,0,0,0,0,.01,0,.02,0,.04,0,.06,0,0,0,0,0,.01,0,.02,0,.04,0,.06,0,0,0,0,0,.01,0,.02,0,.04,0,.06,0,0,0,0,0,.01,0,.02,0,.04,0,.06,0,0,0,0,0,.01,0,.02,0,.04,0,.06,0,0,0,.01,0,.02,0,.02,0,.04,0,.06,0,0,0,0,0,.01,0,.02,0,.04,0,.06,0,0,0,0,0,.01,0,.02,0,.04,0,.06,0,0,0,0,0,.01,0,.02,0,.04,0,.06,0,0,0,0,0,.01,0,.02,0,.04,0,.06,0,0,0,0,0,.01,0,.02,0,.04,0,.06-.02,.17,.35,.3,.82,.31h-6.13c.48-.01,.88-.14,.91-.31Zm17.13,.31c.48-.01,.86-.15,.86-.31,.04-1.61,.06-2.41,.11-4.03h0v-.07h0v-.07h0v-.07h0v-.07h0v-.07h0v-.07h0v-.07h0v-.07h0v-.07h0v-.08h0v-.07h0v-.07h0v-.07h0v-.07h0v-.07h0v-.07h0v-.07h0v-.07h0v-.07h0v-.07h0v-.07c0-.11-.16-.2-.4-.26h5.09c-.24,.06-.4,.15-.4,.26v.07h0v.07h0v.07h0v.07h0v.07h0v.07h0v.07h0v.07h0v.07h0v.07h0v.07h0v.08h0v.07h0v.07h0v.07h0v.07h0v.07h0v.07h0v.07h0v.07h0v.07h0c0,1.02,0,1.72,0,2.51,0,.43,0,.89,0,1.45h0v.07c0,.17,.38,.3,.86,.31h-6.12Zm29.61-6.18c.23-.06,.38-.15,.36-.26,0-.02,0-.04,0-.05,0,0,0-.01,0-.02,0-.02,0-.03,0-.05,0,0,0-.01,0-.02,0-.02,0-.03,0-.05,0,0,0-.01,0-.02,0-.02,0-.03,0-.05,0,0,0-.01,0-.02,0-.02,0-.03,0-.05,0-.01,0-.02,0-.02,0-.02,0-.03,0-.05,0,0,0-.01,0-.02,0-.02,0-.03,0-.05,0,0,0-.02,0-.02,0-.02,0-.03,0-.05,0,0,0-.01,0-.02,0-.02,0-.03,0-.05,0,0,0-.01,0-.02,0-.02,0-.03,0-.05,0,0,0-.01,0-.02,0-.02,0-.03,0-.05,0,0,0-.01,0-.02,0-.02,0-.03,0-.05,0,0,0-.01,0-.02,0-.02,0-.03,0-.05,0,0,0-.01,0-.02,0-.02,0-.03,0-.05,0,0,0-.01,0-.02,0-.02,0-.03,0-.05,0,0,0-.01,0-.02,0-.02,0-.03,0-.05,0,0,0-.01,0-.02,0-.02,0-.03,0-.05,0,0,0-.01,0-.02,0-.02,0-.03,0-.05,0,0,0-.01,0-.02,0-.02,0-.03,0-.05,0,0,0-.01,0-.02,0-.02,0-.03,0-.05,0,0,0-.01,0-.02,0-.02,0-.04,0-.05,0,0,0-.02,0-.02-.26-1.61-.4-2.42-.66-4.03,0-.07-.08-.12-.18-.17h4.43c-.08,.05-.14,.11-.12,.17,0,.02,0,.03,.01,.05,0,0-.01,.02-.01,.03,0,.01,0,.03,.01,.05,0,0-.01,.02-.01,.03,0,.02,0,.03,.01,.05,0,0-.01,.02-.01,.02,0,.02,0,.03,.01,.05,0,0-.01,.02-.01,.03,0,.02,0,.03,.01,.05,0,0-.01,.02-.01,.02,0,.02,0,.03,.01,.05,0,.01-.01,.02-.01,.03,0,.02,0,.03,.01,.05,0,0-.01,.02-.01,.03,0,.02,0,.03,.01,.05,0,.01-.01,.02-.01,.03,0,.02,0,.03,.01,.05,0,0-.01,.02-.01,.03,0,.01,0,.03,.01,.05,0,.01-.01,.02-.01,.03,0,.01,0,.03,.01,.05,0,0-.01,.02-.01,.03,0,.01,0,.03,.01,.05,0,0-.01,.02-.01,.02,0,.02,0,.03,.01,.05,0,0-.01,.02-.01,.02,0,.02,0,.03,.01,.05,0,0-.01,.01-.01,.02,0,.02,0,.03,.01,.05,0,0-.01,.02-.01,.03,0,.02,0,.03,.01,.05,0,0-.01,.02-.01,.03,0,.02,0,.03,.01,.04,0,0-.01,.02-.01,.03,0,.02,0,.03,.01,.05,0,0-.01,.02-.01,.03,0,.02,0,.03,.01,.05,0,0-.01,.02-.01,.03,0,.01,0,.03,.01,.05,0,0-.01,.02-.01,.02,0,.02,0,.03,.01,.05,0,0-.01,.02-.01,.02,.31,1.61,.47,2.42,.78,4.03,.02,.11,.21,.2,.46,.26h-5.05Zm-11.58,6.18c.47-.01,.84-.15,.82-.31,0-.02,0-.04,0-.06,0,0,0,0,0-.01,0-.02,0-.04,0-.06,0,0,0,0,0-.01,0-.02,0-.04,0-.06,0,0,0,0,0,0,0-.02,0-.04,0-.06,0,0,0,0,0,0,0-.02,0-.04,0-.06,0,0,0,0,0-.01,0-.02,0-.04,0-.06,0,0,0,0,0-.01,0-.02,0-.04,0-.06,0,0,0,0,0,0,0-.03,0-.04,0-.06,0,0,0,0,0,0,0-.02,0-.04,0-.06,0,0,0,0,0,0,0-.02,0-.04,0-.06,0,0,0,0,0-.01,0-.02,0-.04,0-.06,0,0,0,0,0,0,0-.02,0-.04,0-.06,0,0,0,0,0,0,0-.02,0-.04,0-.06,0,0,0,0,0-.01,0-.02,0-.04,0-.06,0,0,0,0,0-.01,0-.02,0-.04,0-.06,0,0,0,0,0-.01,0-.02,0-.04,0-.06,0,0,0,0,0,0,0-.02,0-.04,0-.06,0,0,0,0,0-.01,0-.02,0-.04,0-.06,0,0,0,0,0,0,0-.02,0-.04,0-.06,0,0,0-.01,0-.01,0-.02,0-.04,0-.06,0,0,0,0,0,0,0-.02,0-.04,0-.06,0,0,0,0,0-.01-.14-1.61-.21-2.42-.35-4.03,0-.11-.18-.2-.42-.26h5.09c-.23,.06-.39,.15-.37,.26,0,.02,0,.04,0,.06,0,0,0,0,0,.01,0,.02,0,.04,0,.06,0,0,0,0,0,.01,0,.02,0,.04,0,.06,0,0,0,0,0,.02,0,.02,0,.04,0,.06,0,0,0,0,0,.01,0,.02,0,.04,0,.06,0,0,0,.01,0,.02,0,.02,0,.04,0,.06,0,0,0,0,0,.01,0,.02,0,.04,0,.06,0,0,0,.01,0,.02,0,.02,0,.04,0,.06,0,0,0,.01,0,.01,0,.02,0,.04,0,.06,0,0,0,.01,0,.01,0,.02,0,.04,0,.06,0,0,0,0,0,.02,0,.02,0,.04,0,.06,0,0,0,0,0,.01,0,.02,0,.04,0,.06,0,0,0,0,0,.02,0,.02,0,.04,0,.06,0,0,0,.01,0,.02,0,.02,0,.04,0,.06,0,0,0,.01,0,.01,0,.02,0,.04,0,.06,0,0,0,.01,0,.01,0,.02,0,.04,0,.06,0,0,0,.01,0,.01,0,.02,0,.04,0,.06,0,0,0,0,0,.01,0,.02,0,.04,0,.06,0,0,0,.01,0,.02,0,.02,0,.04,0,.06,0,0,0,0,0,.01,0,.02,0,.04,0,.06,0,0,0,0,0,.01,0,.02,0,.04,0,.06,0,0,0,0,0,.01,.19,1.61,.28,2.42,.47,4.03,.02,.16,.41,.3,.89,.31h-6.11Z" />
							<g>
								<path class="svg-guides-cls-6" d="M117.24,231.73c-.1,.18-.57,.32-1.04,.32-4.34,0-6.51,0-10.85,0-.47,0-.76-.14-.64-.32,1.1-1.61,1.65-2.42,2.75-4.03,.12-.18,.59-.32,1.04-.32h10.51c.46,0,.74,.14,.64,.32-.96,1.61-1.44,2.42-2.41,4.03Z" />
								<path class="svg-guides-cls-6" d="M133.84,231.73c-.08,.18-.53,.32-1.01,.32h-10.85c-.47,0-.78-.14-.67-.32,.92-1.61,1.38-2.42,2.29-4.03,.1-.18,.55-.32,1.01-.32h10.5c.46,0,.76,.14,.68,.32-.78,1.61-1.17,2.42-1.95,4.03Z" />
								<path class="svg-guides-cls-6" d="M150.44,231.73c-.07,.18-.5,.32-.97,.32h-10.85c-.48,0-.79-.14-.71-.32,.73-1.61,1.1-2.42,1.83-4.03,.08-.18,.52-.32,.97-.32h10.5c.46,0,.78,.14,.72,.32-.59,1.61-.89,2.42-1.49,4.03Z" />
								<path class="svg-guides-cls-6" d="M167.04,231.73c-.04,.18-.46,.32-.94,.32h-10.85c-.47,0-.81-.14-.75-.32,.55-1.61,.82-2.42,1.37-4.03,.06-.18,.48-.32,.94-.32h10.51c.46,0,.79,.14,.75,.32-.41,1.61-.61,2.42-1.03,4.03Z" />
								<path class="svg-guides-cls-6" d="M183.64,231.73c-.02,.18-.43,.32-.9,.32-4.34,0-6.51,0-10.85,0-.47,0-.83-.14-.79-.32,.37-1.61,.55-2.42,.92-4.03,.04-.18,.44-.32,.9-.32h10.51c.46,0,.81,.14,.78,.32-.22,1.61-.34,2.42-.57,4.03Z" />
								<path class="svg-guides-cls-6" d="M200.25,231.73c0,.18-.39,.32-.86,.32h-10.85c-.47,0-.84-.14-.82-.32,.18-1.61,.27-2.42,.45-4.03,.02-.18,.41-.32,.87-.32h10.51c.46,0,.83,.14,.82,.32-.04,1.61-.06,2.41-.1,4.03Z" />
								<path class="svg-guides-cls-6" d="M216.85,231.73c.02,.18-.36,.32-.83,.32h-10.85c-.47,0-.86-.14-.86-.32,0-1.61,0-2.42,0-4.03,0-.18,.37-.32,.83-.32h10.51c.46,0,.84,.14,.86,.32,.14,1.61,.21,2.42,.35,4.03Z" />
								<path class="svg-guides-cls-6" d="M233.45,231.73c.03,.18-.32,.32-.79,.32-4.34,0-6.52,0-10.86,0-.47,0-.87-.14-.89-.32-.19-1.61-.28-2.42-.47-4.03-.02-.18,.33-.32,.79-.32h10.5c.46,0,.86,.14,.89,.32,.33,1.61,.49,2.42,.81,4.03Z" />
								<path class="svg-guides-cls-6" d="M250.05,231.73c.06,.18-.28,.32-.75,.32h-10.86c-.47,0-.89-.14-.93-.32-.37-1.61-.55-2.42-.93-4.03-.04-.18,.3-.32,.76-.32h10.51c.45,0,.87,.14,.93,.32,.51,1.61,.77,2.42,1.27,4.03Z" />
								<path class="svg-guides-cls-6" d="M266.65,231.73c.08,.18-.25,.32-.72,.32-4.34,0-6.51,0-10.86,0-.47,0-.9-.14-.97-.32-.55-1.61-.83-2.42-1.38-4.03-.06-.18,.26-.32,.72-.32h10.51c.46,0,.89,.14,.96,.32,.69,1.61,1.04,2.42,1.73,4.03Z" />
								<path class="svg-guides-cls-6" d="M283.25,231.73c.1,.18-.21,.32-.68,.32-4.34,0-6.51,0-10.85,0-.47,0-.92-.14-1-.32-.74-1.61-1.11-2.42-1.85-4.03-.08-.18,.23-.32,.68-.32h10.51c.46,0,.91,.14,1,.32,.88,1.61,1.31,2.42,2.19,4.03Z" />
								<path class="svg-guides-cls-6" d="M299.86,231.73c.11,.18-.17,.32-.65,.32h-10.86c-.47,0-.94-.14-1.03-.32-.92-1.61-1.38-2.42-2.31-4.03-.1-.18,.19-.32,.65-.32h10.51c.46,0,.92,.14,1.04,.32,1.06,1.61,1.59,2.42,2.65,4.03Z" />
								<path class="svg-guides-cls-6" d="M109.97,243.9c-.11,.18-.61,.32-1.12,.32h-11.76c-.51,0-.83-.14-.71-.32,1.1-1.61,1.65-2.42,2.75-4.03,.12-.18,.62-.32,1.12-.32h11.41c.5,0,.81,.14,.71,.32-.96,1.61-1.45,2.41-2.4,4.03Z" />
								<path class="svg-guides-cls-6" d="M127.96,243.9c-.09,.18-.57,.32-1.08,.32h-11.76c-.51,0-.85-.14-.74-.32,.92-1.61,1.38-2.42,2.29-4.03,.1-.18,.58-.32,1.08-.32h11.41c.5,0,.84,.14,.75,.32-.78,1.61-1.17,2.41-1.95,4.03Z" />
								<path class="svg-guides-cls-6" d="M145.95,243.9c-.07,.18-.53,.32-1.05,.32h-11.76c-.51,0-.86-.14-.78-.32,.73-1.61,1.1-2.42,1.83-4.03,.08-.18,.55-.32,1.04-.32h11.42c.5,0,.85,.14,.78,.32-.59,1.61-.89,2.41-1.48,4.03Z" />
								<path class="svg-guides-cls-6" d="M163.94,243.9c-.04,.18-.5,.32-1.01,.32h-11.76c-.51,0-.88-.14-.82-.32,.55-1.61,.83-2.42,1.37-4.03,.06-.18,.51-.32,1.01-.32h11.41c.5,0,.87,.14,.82,.32-.41,1.61-.62,2.41-1.03,4.03Z" />
								<path class="svg-guides-cls-6" d="M181.94,243.9c-.03,.18-.46,.32-.97,.32h-11.76c-.51,0-.9-.14-.86-.32,.37-1.61,.55-2.42,.91-4.03,.04-.18,.47-.32,.97-.32h11.41c.5,0,.88,.14,.86,.32-.23,1.61-.34,2.41-.56,4.03Z" />
								<path class="svg-guides-cls-6" d="M199.92,243.9c0,.18-.42,.32-.93,.32h-11.76c-.51,0-.91-.14-.89-.32,.18-1.61,.27-2.42,.45-4.03,.02-.18,.44-.32,.94-.32h11.41c.5,0,.89,.14,.89,.32-.04,1.61-.06,2.41-.11,4.03Z" />
								<path class="svg-guides-cls-6" d="M217.92,243.9c.02,.18-.39,.32-.9,.32h-11.76c-.51,0-.93-.14-.93-.32,0-1.61,0-2.42,0-4.03,0-.18,.4-.32,.9-.32h11.42c.49,0,.91,.14,.93,.32,.14,1.61,.21,2.41,.35,4.03Z" />
								<path class="svg-guides-cls-6" d="M235.91,243.9c.03,.18-.35,.32-.86,.32h-11.76c-.51,0-.94-.14-.96-.32-.18-1.61-.28-2.42-.47-4.03-.02-.18,.37-.32,.86-.32h11.41c.5,0,.93,.14,.96,.32,.32,1.61,.49,2.41,.81,4.03Z" />
								<path class="svg-guides-cls-6" d="M253.9,243.9c.06,.18-.32,.32-.83,.32h-11.76c-.51,0-.96-.14-1-.32-.37-1.61-.56-2.42-.93-4.03-.04-.18,.33-.32,.82-.32h11.41c.5,0,.95,.14,1.01,.32,.51,1.61,.76,2.41,1.27,4.03Z" />
								<path class="svg-guides-cls-6" d="M271.89,243.9c.08,.18-.28,.32-.79,.32h-11.76c-.51,0-.98-.14-1.04-.32-.55-1.61-.83-2.42-1.39-4.03-.06-.18,.29-.32,.79-.32h11.41c.49,0,.96,.14,1.03,.32,.69,1.61,1.04,2.41,1.73,4.03Z" />
								<path class="svg-guides-cls-6" d="M289.89,243.9c.1,.18-.24,.32-.76,.32h-11.76c-.51,0-.99-.14-1.07-.32-.74-1.61-1.11-2.42-1.85-4.03-.08-.18,.26-.32,.76-.32h11.41c.5,0,.98,.14,1.08,.32,.88,1.61,1.32,2.41,2.2,4.03Z" />
								<path class="svg-guides-cls-6" d="M307.87,243.9c.12,.18-.21,.32-.72,.32h-11.76c-.51,0-1.01-.14-1.11-.32-.92-1.61-1.38-2.42-2.31-4.03-.1-.18,.22-.32,.72-.32h11.42c.49,0,.99,.14,1.11,.32,1.06,1.61,1.59,2.41,2.65,4.03Z" />
								<path class="svg-guides-cls-6" d="M107.99,237.77c-.11,.18-.6,.32-1.1,.32h-11.3c-.49,0-.79-.14-.66-.32,1.16-1.61,1.74-2.42,2.9-4.03,.13-.18,.62-.32,1.09-.32h10.95c.48,0,.78,.14,.66,.32-1.02,1.61-1.53,2.42-2.55,4.03Z" />
								<path class="svg-guides-cls-6" d="M125.28,237.77c-.09,.18-.56,.32-1.06,.32h-11.3c-.49,0-.8-.14-.7-.32,.98-1.61,1.47-2.42,2.44-4.03,.11-.18,.58-.32,1.06-.32h10.95c.48,0,.79,.14,.7,.32-.84,1.61-1.26,2.42-2.1,4.03Z" />
								<path class="svg-guides-cls-6" d="M142.57,237.77c-.07,.18-.53,.32-1.02,.32h-11.3c-.49,0-.82-.14-.73-.32,.79-1.61,1.19-2.42,1.98-4.03,.09-.18,.55-.32,1.02-.32h10.96c.48,0,.81,.14,.73,.32-.65,1.61-.98,2.42-1.63,4.03Z" />
								<path class="svg-guides-cls-6" d="M159.86,237.77c-.05,.18-.49,.32-.98,.32h-11.3c-.49,0-.84-.14-.77-.32,.61-1.61,.92-2.42,1.52-4.03,.07-.18,.51-.32,.98-.32h10.96c.47,0,.82,.14,.77,.32-.47,1.61-.71,2.42-1.18,4.03Z" />
								<path class="svg-guides-cls-6" d="M177.16,237.77c-.03,.18-.45,.32-.95,.32h-11.31c-.49,0-.85-.14-.8-.32,.42-1.61,.64-2.42,1.06-4.03,.05-.18,.47-.32,.95-.32h10.96c.48,0,.84,.14,.81,.32-.29,1.61-.43,2.42-.72,4.03Z" />
								<path class="svg-guides-cls-6" d="M194.45,237.77c-.01,.18-.42,.32-.91,.32h-11.3c-.49,0-.87-.14-.85-.32,.24-1.61,.36-2.42,.61-4.03,.03-.18,.44-.32,.91-.32h10.96c.48,0,.86,.14,.84,.32-.1,1.61-.16,2.42-.26,4.03Z" />
								<path class="svg-guides-cls-6" d="M211.74,237.77c0,.18-.38,.32-.87,.32h-11.3c-.49,0-.89-.14-.88-.32,.06-1.61,.09-2.42,.15-4.03,0-.18,.4-.32,.88-.32h10.95c.48,0,.87,.14,.88,.32,.08,1.61,.12,2.42,.2,4.03Z" />
								<path class="svg-guides-cls-6" d="M229.03,237.77c.03,.18-.35,.32-.84,.32h-11.3c-.49,0-.91-.14-.92-.32-.13-1.61-.19-2.42-.32-4.03-.02-.18,.36-.32,.84-.32h10.96c.48,0,.89,.14,.91,.32,.27,1.61,.4,2.42,.66,4.03Z" />
								<path class="svg-guides-cls-6" d="M246.33,237.77c.05,.18-.31,.32-.8,.32h-11.3c-.49,0-.92-.14-.96-.32-.31-1.61-.46-2.42-.78-4.03-.03-.18,.33-.32,.8-.32h10.96c.48,0,.9,.14,.95,.32,.45,1.61,.67,2.42,1.12,4.03Z" />
								<path class="svg-guides-cls-6" d="M263.61,237.77c.07,.18-.27,.32-.76,.32h-11.31c-.49,0-.94-.14-.99-.32-.49-1.61-.74-2.42-1.23-4.03-.05-.18,.29-.32,.76-.32h10.96c.48,0,.92,.14,.99,.32,.63,1.61,.95,2.42,1.58,4.03Z" />
								<path class="svg-guides-cls-6" d="M280.91,237.77c.09,.18-.24,.32-.73,.32h-11.3c-.49,0-.95-.14-1.03-.32-.67-1.61-1.02-2.42-1.7-4.03-.07-.18,.26-.32,.73-.32h10.96c.48,0,.94,.14,1.03,.32,.82,1.61,1.22,2.42,2.04,4.03Z" />
								<path class="svg-guides-cls-6" d="M298.2,237.77c.11,.18-.2,.32-.69,.32h-11.3c-.49,0-.97-.14-1.07-.32-.86-1.61-1.29-2.42-2.15-4.03-.09-.18,.22-.32,.69-.32h10.96c.48,0,.95,.14,1.06,.32,1,1.61,1.5,2.42,2.5,4.03Z" />
								<path class="svg-guides-cls-6" d="M314.16,237.77c.13,.18-.17,.32-.66,.32h-11.31c-.49,0-.98-.14-1.1-.32-1.03-1.61-1.55-2.42-2.58-4.03-.11-.18,.18-.32,.66-.32h10.96c.47,0,.97,.14,1.09,.32,1.17,1.61,1.76,2.42,2.92,4.03Z" />
								<path class="svg-guides-cls-6" d="M106.68,250.08c-.11,.18-.62,.32-1.16,.32h-12.22c-.53,0-.87-.14-.75-.32,1.1-1.61,1.64-2.42,2.74-4.03,.12-.17,.64-.32,1.16-.32h11.87c.52,0,.85,.14,.75,.32-.96,1.61-1.44,2.42-2.39,4.03Z" />
								<path class="svg-guides-cls-6" d="M125.38,250.08c-.08,.18-.58,.32-1.12,.32-4.89,0-7.33,0-12.22,0-.53,0-.88-.14-.78-.32,.91-1.61,1.37-2.42,2.28-4.03,.1-.17,.6-.32,1.12-.32h11.87c.52,0,.87,.14,.79,.32-.77,1.61-1.16,2.42-1.93,4.03Z" />
								<path class="svg-guides-cls-6" d="M144.07,250.08c-.06,.18-.55,.32-1.08,.32-4.89,0-7.33,0-12.22,0-.53,0-.9-.14-.82-.32,.73-1.61,1.09-2.42,1.82-4.03,.08-.17,.56-.32,1.08-.32h11.87c.52,0,.88,.14,.82,.32-.59,1.61-.89,2.42-1.48,4.03Z" />
								<path class="svg-guides-cls-6" d="M162.78,250.08c-.05,.18-.52,.32-1.05,.32h-12.22c-.53,0-.91-.14-.85-.32,.55-1.61,.82-2.42,1.36-4.03,.06-.17,.53-.32,1.04-.32h11.87c.52,0,.9,.14,.86,.32-.4,1.61-.61,2.42-1.01,4.03Z" />
								<path class="svg-guides-cls-6" d="M238.29,250.08c.04,.18-.36,.32-.9,.32h-69.15c-.53,0-.93-.14-.89-.32,.36-1.61,.54-2.42,.9-4.03,.04-.17,.49-.32,1.01-.32h67.19c.52,0,.97,.14,1,.32,.34,1.61,.51,2.42,.84,4.03Z" />
								<path class="svg-guides-cls-6" d="M256.26,250.08c.05,.18-.33,.32-.86,.32-4.89,0-7.33,0-12.22,0-.53,0-1-.14-1.04-.32-.37-1.61-.56-2.42-.94-4.03-.04-.17,.34-.32,.86-.32h11.87c.52,0,.98,.14,1.04,.32,.51,1.61,.77,2.42,1.28,4.03Z" />
								<path class="svg-guides-cls-6" d="M274.96,250.08c.07,.18-.29,.32-.83,.32h-12.22c-.53,0-1.01-.14-1.08-.32-.56-1.61-.84-2.42-1.4-4.03-.06-.17,.31-.32,.83-.32h11.87c.52,0,1,.14,1.08,.32,.7,1.61,1.05,2.42,1.74,4.03Z" />
								<path class="svg-guides-cls-6" d="M293.66,250.08c.1,.18-.26,.32-.79,.32h-12.22c-.53,0-1.03-.14-1.11-.32-.74-1.61-1.11-2.42-1.85-4.03-.08-.17,.27-.32,.79-.32h11.87c.51,0,1.01,.14,1.11,.32,.88,1.61,1.32,2.42,2.21,4.03Z" />
								<path class="svg-guides-cls-6" d="M312.35,250.08c.12,.18-.22,.32-.76,.32h-12.22c-.53,0-1.04-.14-1.14-.32-.92-1.61-1.39-2.42-2.31-4.03-.1-.17,.24-.32,.75-.32h11.88c.52,0,1.03,.14,1.14,.32,1.06,1.61,1.6,2.42,2.66,4.03Z" />
							</g>
						</g>
						<path class="svg-guides-cls-12" d="M205.63,56.56c0,1.25-1.02,2.27-2.27,2.27s-2.27-1.02-2.27-2.27,1.02-2.27,2.27-2.27,2.27,1.02,2.27,2.27Z" />
						<path class="svg-guides-cls-16" d="M168.34,51.36H83.13c-2.6,0-4.71,2.11-4.71,4.71V213.01c0,2.6,2.11,4.71,4.71,4.71h240.46c2.6,0,4.71-2.11,4.71-4.71L168.34,51.36Z" />
					</g>
					<path class="svg-guides-cls-15" d="M390.93,94.9V26.37c0-3.03-2.46-5.48-5.49-5.48h-129.16c-3.03,0-5.49,2.46-5.49,5.48V109.63c0,1.91,.98,3.6,2.46,4.58,.88,.61,1.95,.96,3.1,.96h10.43l-4.11,17.11,24.16-17.11h98.68c3.03,0,5.48-2.45,5.48-5.49v-14.79h-.08Z" />
					<g>
						<g>
							<polygon class="svg-guides-cls-7" points="264.84 97.51 257.68 127.28 285.62 107.5 264.84 97.51" />
							<path class="svg-guides-cls-10" d="M251.29,15.89h129.15c3.03,0,5.49,2.46,5.49,5.49V104.64c0,3.03-2.46,5.49-5.49,5.49H251.29c-3.03,0-5.49-2.46-5.49-5.49V21.38c0-3.03,2.46-5.49,5.49-5.49Z" />
							<path class="svg-guides-cls-7" d="M270.5,89.9c-3.03,0-5.49-2.46-5.49-5.49V15.94h-13.65c-3.03,0-5.49,2.46-5.49,5.49V104.69c0,3.03,2.46,5.49,5.49,5.49h129.16c3.03,0,5.48-2.45,5.48-5.49v-14.79h-115.51Z" />
							<g>
								<rect class="svg-guides-cls-3" x="278.88" y="61.5" width="54.76" height="2.5" />
								<rect class="svg-guides-cls-3" x="278.88" y="53.33" width="54.76" height="2.5" />
								<rect class="svg-guides-cls-3" x="278.88" y="45.45" width="54.76" height="2.5" />
							</g>
							<g>
								<rect class="svg-guides-cls-3" x="345.4" y="40.57" width="26.14" height="26.19" transform="translate(304.42 412.08) rotate(-89.94)" />
								<path class="svg-guides-cls-3" d="M348.07,43.28l20.82,.02-.02,20.76-20.82-.02,.02-20.77m-5.37-5.38l-.03,31.51,31.57,.03,.04-31.51-31.57-.03h0Z" />
							</g>
							<path class="svg-guides-cls-2" d="M354.14,48.77s-.03-.05-.05-.07l-4.64,2.71c1.92,2.75,3.77,5.59,6,8.09,1.03,1.15,2.74,.89,3.8,0,4.36-3.66,8.7-7.37,12.83-11.3,1.54-1.47,3.07-2.96,4.44-4.6,.25-.3,.49-.63,.77-.91,2.43-2.46-1.36-6.26-3.8-3.8-.72,.72-1.32,1.57-2.02,2.31-2.33,2.5-4.87,4.8-7.41,7.07-2.83,2.52-5.7,4.98-8.6,7.42h3.8c-1.23-1.38-2.01-2.49-3.18-4.14-.67-.95-1.32-1.91-1.99-2.86-.83-1.19-2.35-1.74-3.68-.96-1.24,.72-1.72,2.43-.96,3.68,.01,.02,.03,.05,.05,.07,1.9,2.87,6.55,.18,4.64-2.71h0Z" />
						</g>
						<path class="svg-guides-cls-4" d="M286,24.91h41.15c3.9,0,7.08,3.16,7.1,7.06v4.85h-55.36v-4.85c.03-3.9,3.2-7.06,7.1-7.06Z" />
					</g>
					<path class="svg-guides-cls-15" d="M168.71,85.39H39.56c-3.03,0-5.49,2.46-5.49,5.48v68.53h-.08v14.79c0,3.03,2.46,5.49,5.49,5.49h93.66l26.38,20.01-4.12-20.01h13.25c1.16,0,2.23-.36,3.12-.98,1.48-.98,2.45-2.66,2.45-4.57V90.87c0-3.03-2.46-5.48-5.49-5.48Z" />
					<g>
						<g>
							<polygon class="svg-guides-cls-14" points="158.33 164.69 164.51 194.68 137.24 173.99 158.33 164.69" />
							<path class="svg-guides-cls-5" d="M44.56,80.39H173.71c3.03,0,5.49,2.46,5.49,5.49v83.26c0,3.03-2.46,5.49-5.49,5.49H44.56c-3.03,0-5.49-2.46-5.49-5.49V85.87c0-3.03,2.46-5.48,5.48-5.48Z" />
							<path class="svg-guides-cls-14" d="M154.5,154.4c3.03,0,5.49-2.45,5.49-5.49V80.44h13.65c3.03,0,5.49,2.46,5.49,5.49v83.26c0,3.03-2.46,5.49-5.49,5.49H44.47c-3.03,0-5.49-2.45-5.49-5.49v-14.79h115.51Z" />
							<g>
								<rect class="svg-guides-cls-3" x="91.36" y="126" width="54.77" height="2.5" />
								<rect class="svg-guides-cls-3" x="91.36" y="117.82" width="54.77" height="2.5" />
								<rect class="svg-guides-cls-3" x="91.36" y="109.95" width="54.77" height="2.5" />
							</g>
							<g>
								<rect class="svg-guides-cls-3" x="52.34" y="105.07" width="26.14" height="26.2" transform="translate(-52.83 183.45) rotate(-89.94)" />
								<path class="svg-guides-cls-3" d="M55.01,107.77l20.82,.02-.02,20.76-20.82-.02,.02-20.77m-5.37-5.38l-.03,31.51,31.57,.03,.04-31.51-31.57-.03h0Z" />
							</g>
							<path class="svg-guides-cls-2" d="M61.08,113.26s-.03-.05-.05-.07l-4.64,2.71c1.9,2.75,3.77,5.59,6,8.09,1.03,1.15,2.74,.89,3.8,0,4.36-3.66,8.7-7.37,12.83-11.3,1.54-1.47,3.07-2.96,4.44-4.6,.25-.3,.49-.63,.77-.91,2.43-2.46-1.36-6.26-3.8-3.8-.72,.72-1.32,1.57-2.02,2.31-2.33,2.5-4.87,4.8-7.41,7.07-2.83,2.52-5.71,4.98-8.6,7.42h3.8c-1.23-1.38-2.01-2.49-3.18-4.14-.67-.95-1.32-1.91-1.98-2.86-.82-1.19-2.36-1.74-3.68-.96-1.23,.72-1.73,2.44-.96,3.68,.01,.02,.03,.05,.05,.07,.8,1.21,2.37,1.73,3.68,.96,1.2-.7,1.77-2.46,.96-3.68h0Z" />
						</g>
						<path class="svg-guides-cls-4" d="M98.48,91.18h41.15c3.91,0,7.08,3.16,7.1,7.06v4.85h-55.36v-4.85c.03-3.9,3.2-7.06,7.11-7.06Z" />
					</g>
				</g>
				<g>
					<path class="svg-guides-cls-15" d="M387.2,158.64H251.68c-2.84,0-5.15,1.92-5.15,4.3v67.15c0,2.38,2.3,4.3,5.15,4.3h135.52v-75.75Z" />
					<g>
						<path class="svg-guides-cls-3" d="M230.95,153.99h150.62c1.16,0,2.1,.94,2.1,2.1v71.55c0,1.16-.94,2.1-2.1,2.1H230.95c-1.16,0-2.1-.94-2.1-2.1v-71.55c0-1.16,.94-2.1,2.1-2.1Z" />
						<g>
							<g>
								<g>
									<rect class="svg-guides-cls-8" x="286.37" y="165.45" width="47.83" height="9.36" />
									<rect class="svg-guides-cls-8" x="286.37" y="180.85" width="60.99" height="9.36" />
									<rect class="svg-guides-cls-9" x="352.63" y="180.85" width="25.93" height="9.36" />
									<rect class="svg-guides-cls-8" x="337.84" y="165.45" width="13.33" height="9.36" transform="translate(689 340.26) rotate(180)" />
									<rect class="svg-guides-cls-8" x="354.36" y="165.45" width="20.8" height="9.36" transform="translate(729.52 340.26) rotate(180)" />
								</g>
								<g>
									<rect class="svg-guides-cls-8" x="286.37" y="196.26" width="47.83" height="9.36" />
									<rect class="svg-guides-cls-8" x="286.37" y="211.66" width="92.19" height="9.36" />
									<rect class="svg-guides-cls-1" x="337.84" y="196.26" width="13.33" height="9.36" transform="translate(689 401.88) rotate(180)" />
									<rect class="svg-guides-cls-8" x="354.36" y="196.26" width="20.8" height="9.36" transform="translate(729.52 401.88) rotate(180)" />
								</g>
							</g>
							<path class="svg-guides-cls-10" d="M266.18,190.47l9.07-20.82s0-.03-.02-.03h-36.36s-.02,0-.02,.02v3.31s0,.01,0,.02l5.99,4.18s.01,.02,0,.03l-6.49,5.66v.18h16.32s.02,.01,.02,.03l-4.69,10.09s0,.02,0,.02l5.23,5.36s0,.02,0,.02l-15.69,20.78,33.99-18.48,1.92-1.04-9.27-9.34Zm-13.87-15.9c-.16,.59-.64,1.07-1.23,1.23-1.4,.39-2.58-.55-2.58-1.86,0-1.1,.84-1.95,1.95-1.95,1.31,0,2.25,1.18,1.86,2.58Z" />
						</g>
					</g>
				</g>
			</g>
		</g>
	</g>
</svg>
