<svg xmlns="http://www.w3.org/2000/svg" viewBox="0 0 425 300">
	<defs>
		<style>
			.svg-api-cls-1,.svg-api-cls-2,.svg-api-cls-3,.svg-api-cls-4,.svg-api-cls-5,.svg-api-cls-6{fill:none;}.svg-api-cls-7{clip-path:url(#svg-api-clippath);}.svg-api-cls-8{fill:#68090e;}.svg-api-cls-9{fill:#ed1e79;}.svg-api-cls-10{fill:#e70a77;}.svg-api-cls-11,.svg-api-cls-12,.svg-api-cls-13{fill:#fff;}.svg-api-cls-14{fill:#f255a0;}.svg-api-cls-15{fill:#a30458;}.svg-api-cls-16{fill:#b8e6f2;}.svg-api-cls-17{fill:#a61511;}.svg-api-cls-18{fill:#124e00;}.svg-api-cls-19{fill:#231f20;}.svg-api-cls-20{fill:#206b01;}.svg-api-cls-21{fill:#20202b;}.svg-api-cls-22{fill:#082614;}.svg-api-cls-23{fill:#41404e;}.svg-api-cls-24{fill:#1a6300;}.svg-api-cls-25{fill:#726cb2;}.svg-api-cls-26{fill:#6d6d7c;}.svg-api-cls-27{fill:#6d6e71;}.svg-api-cls-28{fill:#26262b;}.svg-api-cls-29{fill:#585866;}.svg-api-cls-30{fill:#58595b;}.svg-api-cls-31{fill:#525096;}.svg-api-cls-32{fill:#343442;}.svg-api-cls-2{stroke:#41404e;stroke-width:6.29px;}.svg-api-cls-2,.svg-api-cls-3,.svg-api-cls-4,.svg-api-cls-5,.svg-api-cls-6{stroke-miterlimit:10;}.svg-api-cls-12{opacity:.15;}.svg-api-cls-13{opacity:.2;}.svg-api-cls-3{stroke-width:4.07px;}.svg-api-cls-3,.svg-api-cls-4,.svg-api-cls-6{stroke:#231f20;}.svg-api-cls-4{stroke-width:.58px;}.svg-api-cls-33{opacity:.84;}.svg-api-cls-5{stroke:#726cb2;stroke-width:8px;}.svg-api-cls-6{stroke-width:.98px;}
		</style>
		<clipPath id="svg-api-clippath">
			<path class="svg-api-cls-1" d="M212.17,212.79c-11.33,.04-22-2.86-31.29-7.98-19.97-11-93.32-50.54-93.35-74.99-.08-35.66,90.29-111.43,125.96-111.56,35.83-.04,106.35,79.99,106.43,115.65,.01,12.12-46.39,37.36-52.16,47.08-11.27,18.97-31.92,31.72-55.59,31.8Z" />
		</clipPath>
	</defs>
	<g>
		<path class="svg-api-cls-25" d="M325.38,128.27l-14.45-5.07c-2.32-.77-3.97-2.54-4.63-4.63-1.88-5.74-3.86-10.92-6.62-16-1.1-2.1-1.1-4.41-.22-6.61l6.84-13.79c1.21-3.2,.66-6.51-1.54-8.61l-18.09-18.09c-2.1-2.32-5.63-2.76-8.49-1.44l-13.9,6.73c-2.21,.88-4.52,.88-6.62-.11-5.07-2.65-10.37-4.85-15.77-6.62-2.32-.88-4.08-2.42-4.85-4.74l-5.07-14.45c-1.21-3.09-4.08-5.07-7.28-5.07h-25.26c-3.31,0-5.96,1.98-7.06,5.07l-5.07,14.45c-.77,2.32-2.65,3.86-4.96,4.74-5.29,1.77-10.7,3.97-15.66,6.62-1.98,.99-4.52,.99-6.62,.11l-14.01-6.73c-2.98-1.32-6.4-.88-8.71,1.44l-17.87,18.09c-2.21,2.1-2.76,5.41-1.43,8.61l6.84,13.79c.88,2.2,.88,4.52-.22,6.61-2.87,5.07-4.74,10.26-6.62,16-.77,2.1-2.54,3.86-4.63,4.63l-14.45,5.07c-3.31,1.22-5.29,4.08-5.29,7.28v25.26c0,3.2,1.98,5.96,5.29,7.06l14.45,5.07c2.43,.77,3.97,2.64,4.85,4.85,1.65,5.62,3.86,10.81,6.4,15.66,1.1,2.32,1.1,4.63,.22,6.95l-6.62,13.9c-1.54,2.76-.99,6.39,1.32,8.49l17.76,17.98c2.32,2.21,5.74,2.76,8.71,1.43l13.79-6.73c2.32-1,4.85-1,6.84,.22,5.07,2.64,10.37,4.97,15.66,6.51,2.32,.78,4.19,2.43,5.07,4.85l4.96,14.23c1.1,3.2,3.75,5.07,7.06,5.07h25.26c3.2,0,6.07-1.87,7.28-5.07l4.96-14.23c.88-2.42,2.65-4.08,4.96-4.85,5.4-1.54,10.7-3.86,15.77-6.51,1.99-1.22,4.41-1.22,6.73-.22l13.79,6.73c2.87,1.33,6.4,.78,8.49-1.43l18.09-17.98c2.21-2.1,2.76-5.74,1.54-8.49l-6.84-13.9c-.88-2.32-.88-4.63,.22-6.95,2.54-4.85,4.74-10.04,6.4-15.66,.66-2.21,2.32-4.08,4.85-4.85l14.45-5.07c2.98-1.1,5.07-3.86,5.07-7.06v-25.26c0-3.2-2.1-6.06-5.07-7.28Zm-113.19,95.19c-41.54,.15-75.54-33.62-75.59-75.35-.1-41.54,33.72-75.4,75.25-75.54,41.73-.05,75.54,33.67,75.64,75.2,.05,41.68-33.62,75.54-75.3,75.69Z" />
		<path class="svg-api-cls-31" d="M211.85,72.57c-41.54,.15-75.35,34.01-75.25,75.54,.05,41.73,34.06,75.5,75.59,75.35,41.68-.15,75.35-34.01,75.3-75.69-.1-41.54-33.91-75.25-75.64-75.2Zm.32,140.22c-35.66,.12-64.86-28.86-64.9-64.69-.08-35.66,28.95-64.73,64.61-64.86,35.83-.04,64.86,28.9,64.94,64.57,.04,35.79-28.86,64.86-64.65,64.98Z" />
	</g>
	<g class="svg-api-cls-7">
		<g>
			<g>
				<g>
					<path class="svg-api-cls-23" d="M190.94,77.56c-.48,0-.95-.04-1.42-.13l-8.63-1.75-.24-.04c-.15-.03-.3-.06-.45-.1h0s-.08-.02-.08-.02c-5.59-1.48-8.73-9.31-7.15-17.83,1.57-8.46,8.31-13.84,13.65-13.99,3.98-.11,6.26-.12,7.06-.12h.36c.12,0,.63,0,.63,0l.14,.02c.33,.02,.66,.06,.98,.12,4.27,.79,7.54,5.26,8.35,11.37,0,.07-.16,.28-.24,.4-.19,.25-.38,.52-.35,.8,.02,.29,.31,.42,.54,.53,.08,.04,.21,.1,.24,.13,.07,1.82-.07,3.77-.43,5.72-1.58,8.49-7.16,14.9-12.96,14.9Z" />
					<path class="svg-api-cls-19" d="M194.56,43.87h.24c.32,.03,.64,.07,.95,.13,4.12,.77,7.3,5.1,8.1,11.05-.04,.07-.12,.18-.18,.26-.21,.28-.44,.6-.41,1,.04,.46,.46,.66,.71,.77,.02,0,.04,.02,.06,.03,.07,1.81-.06,3.66-.41,5.51-1.56,8.36-7.01,14.66-12.68,14.66-.46,0-.92-.04-1.36-.12l-8.66-1.76c-.07-.01-.15-.02-.22-.04-.15-.03-.29-.06-.46-.1h0s-.04-.01-.04-.01c-5.45-1.44-8.49-9.12-6.93-17.5,1.71-9.18,8.99-13.63,13.37-13.75,3.99-.11,6.27-.12,7.06-.12h.38c.1,0,.2,0,.3,0h.07s.11,0,.11,0m.28-.59h-.4s-.04,0-.07,0c-.11,0-.22,0-.33,0,0,0-.12,0-.35,0-.82,0-3.09,.01-7.07,.12-5.13,.14-12.26,5.26-13.92,14.22-1.62,8.7,1.66,16.66,7.36,18.17h0s.08,.02,.08,.02c.15,.04,.31,.07,.47,.1,.08,.01,.16,.03,.24,.04l8.63,1.75c.49,.09,.98,.14,1.47,.14,5.88,0,11.62-6.39,13.25-15.14,.38-2.01,.5-3.99,.41-5.87-.01-.25-.74-.35-.76-.6-.03-.36,.64-.86,.59-1.21-.8-6.08-4.01-10.77-8.58-11.62-.34-.06-.68-.1-1.02-.12v-.02h0Z" />
				</g>
				<path class="svg-api-cls-28" d="M172.79,62.03c1.03,3.03,6.29,2.3,8.11,1.39,.34,2.02,1.04,7.75,2.17,9.44-.64,2.25-2.93,2.96-2.93,2.96,0,0-7.87-3.46-7.35-13.79Z" />
				<path class="svg-api-cls-19" d="M194.56,43.87h.24c.32,.03,.64,.07,.95,.13,4.12,.77,7.3,5.1,8.1,11.05-.04,.07-.12,.18-.18,.26-.21,.28-.44,.6-.41,1,.04,.46,.46,.66,.71,.77,.02,0,.04,.02,.06,.03,.07,1.81-.06,3.66-.41,5.51-1.56,8.36-7.01,14.66-12.68,14.66-.46,0-.92-.04-1.36-.12l-8.66-1.76c-.07-.01-.15-.02-.22-.04-.15-.03-.29-.06-.46-.1h0s-.04-.01-.04-.01c-5.45-1.44-8.49-9.12-6.93-17.5,1.71-9.18,8.99-13.63,13.37-13.75,3.99-.11,6.27-.12,7.06-.12h.38c.1,0,.2,0,.3,0h.07s.11,0,.11,0m.28-.59h-.4s-.04,0-.07,0c-.11,0-.22,0-.33,0,0,0-.12,0-.35,0-.82,0-3.09,.01-7.07,.12-5.13,.14-12.26,5.26-13.92,14.22-1.62,8.7,1.66,16.66,7.36,18.17h0s.08,.02,.08,.02c.15,.04,.31,.07,.47,.1,.08,.01,.16,.03,.24,.04l8.63,1.75c.49,.09,.98,.14,1.47,.14,5.88,0,11.62-6.39,13.25-15.14,.38-2.01,.5-3.99,.41-5.87-.01-.25-.74-.35-.76-.6-.03-.36,.64-.86,.59-1.21-.8-6.08-4.01-10.77-8.58-11.62-.34-.06-.68-.1-1.02-.12v-.02h0Z" />
				<path class="svg-api-cls-19" d="M194.48,44c.46,0,.92,.04,1.37,.13,3.99,.74,7.05,4.72,8,10.36,0,.11-.13,.47-.2,.69-.16,.45-.3,.84-.26,1.17,.06,.55,.44,.79,.64,.93,.04,.03,.1,.06,.11,.06,0,0,0,0,0,0,.06,1.77-.07,3.59-.41,5.41-1.56,8.36-7.01,14.66-12.68,14.66-.46,0-.92-.04-1.37-.13-2.88-.54-5.29-2.74-6.79-6.2-1.53-3.54-1.91-7.95-1.08-12.42,1.56-8.36,7.01-14.66,12.68-14.66m0-.58c-5.88,0-11.62,6.39-13.25,15.14-1.76,9.47,1.97,18.11,8.34,19.29,.49,.09,.98,.14,1.47,.14,5.88,0,11.62-6.39,13.25-15.14,.35-1.9,.49-3.76,.42-5.54-.02-.58-.69-.47-.76-1.03-.04-.4,.53-1.47,.46-1.86-.96-5.71-4.09-10.05-8.47-10.86-.49-.09-.98-.14-1.47-.14h0Z" />
				<path class="svg-api-cls-4" d="M190.76,43.67c-6.16-1.15-12.52,5.25-14.2,14.3-1.68,9.04,1.94,17.3,8.1,18.45" />
				<g>
					<path class="svg-api-cls-32" d="M191.04,77.69c-.48,0-.95-.04-1.42-.13-6.2-1.15-9.84-9.66-8.11-18.95,1.58-8.49,7.16-14.9,12.97-14.9,.47,0,.95,.04,1.42,.13,4.11,.77,7.26,4.84,8.24,10.62,.02,.12-.12,.53-.22,.8-.15,.42-.28,.78-.25,1.04,.05,.41,.33,.59,.51,.71,.19,.12,.24,.17,.24,.3,.07,1.8-.08,3.64-.42,5.47-1.58,8.49-7.15,14.9-12.96,14.9h0Z" />
					<path class="svg-api-cls-19" d="M194.48,44c.46,0,.92,.04,1.37,.13,3.99,.74,7.05,4.72,8,10.36,0,.11-.13,.47-.2,.69-.16,.45-.3,.84-.26,1.17,.06,.55,.44,.79,.64,.93,.04,.03,.1,.06,.11,.06,0,0,0,0,0,0,.06,1.77-.07,3.59-.41,5.41-1.56,8.36-7.01,14.66-12.68,14.66-.46,0-.92-.04-1.37-.13-2.88-.54-5.29-2.74-6.79-6.2-1.53-3.54-1.91-7.95-1.08-12.42,1.56-8.36,7.01-14.66,12.68-14.66m0-.58c-5.88,0-11.62,6.39-13.25,15.14-1.76,9.47,1.97,18.11,8.34,19.29,.49,.09,.98,.14,1.47,.14,5.88,0,11.62-6.39,13.25-15.14,.35-1.9,.49-3.76,.42-5.54-.02-.58-.69-.47-.76-1.03-.04-.4,.53-1.47,.46-1.86-.96-5.71-4.09-10.05-8.47-10.86-.49-.09-.98-.14-1.47-.14h0Z" />
				</g>
				<g class="svg-api-cls-33">
					<path class="svg-api-cls-21" d="M193.11,71.83c-.3,0-.59-.03-.89-.08-1.86-.35-3.42-1.76-4.38-3.98-.97-2.25-1.21-5.04-.69-7.87,.99-5.31,4.47-9.32,8.11-9.32,.3,0,.59,.03,.89,.08,1.86,.35,3.42,1.76,4.38,3.98,.97,2.25,1.21,5.04,.69,7.87-.99,5.31-4.47,9.32-8.11,9.32h0Z" />
					<path class="svg-api-cls-19" d="M195.26,50.76c.29,0,.57,.03,.85,.08,3.77,.7,5.98,5.92,4.91,11.63-.97,5.22-4.38,9.16-7.92,9.16-.29,0-.57-.03-.85-.08-3.77-.7-5.98-5.92-4.91-11.63,.97-5.22,4.38-9.16,7.92-9.16m0-.39c-3.68,0-7.28,4-8.3,9.48-1.1,5.93,1.23,11.34,5.22,12.08,.31,.06,.61,.08,.92,.08,3.68,0,7.28-4,8.3-9.48,1.1-5.93-1.23-11.34-5.22-12.08-.31-.06-.61-.08-.92-.08h0Z" />
				</g>
			</g>
			<g>
				<g>
					<path d="M175.82,72.71c-1.99,4.07-6.54,6.61-9.84,5-3.3-1.61-4.1-6.76-2.11-10.83,1.99-4.07,6.27-6.06,9.58-4.45,3.3,1.61,4.37,6.22,2.38,10.29Z" />
					<path d="M158.91,62.72c.93,1.88,2.82,6.43,4.35,7.05,.23,2.55,.52,7.58,.52,7.58-1.87-.02-6.06-3.13-7.35-6.32,1.27,.76,3.38,1.38,3.38,1.38-1.16-.91-2.09-2.65-2.23-3.78,1.13,1.14,3.12,1.76,3.12,1.76-1.38-1.31-2.15-6.46-1.79-7.66Z" />
					<path class="svg-api-cls-11" d="M175.69,73.47c-1.99,4.07-6.44,6.66-9.61,5.11-3.17-1.55-3.87-6.65-1.88-10.72,1.99-4.07,6.17-6.11,9.34-4.56s4.13,6.1,2.15,10.17Z" />
					<ellipse cx="170.27" cy="67.68" rx="3.29" ry="1.4" transform="translate(67.2 219.16) rotate(-77.45)" />
					<circle class="svg-api-cls-11" cx="169.51" cy="66.62" r="1.11" />
				</g>
				<path class="svg-api-cls-24" d="M203.13,55.37c-2.44-.97-11.73-5.44-19.08,.65-7.34,6.08-17.74,17.17-27.2,20.16-9.45,2.99-25.53,6.5-29.27,6.97-3.73,.47-8.07,4.31-8.91,6.85-.84,2.55,.07,12,1.21,14.29,2.21,4.44,4.79,4.43,12.52,4.94,5.01,.33,17.06,14.11,25.45,14.21,3.73,.05,7.85-.16,12.19-.88-.86,5.3-7.89,20.05-11.6,23.87-2.26,2.33-1.66,7.08,.37,9.35,2.44,2.72,11.42,6.76,15.36,7.11,4.69,.41,8.25-1.56,9.83-4.38,1.92-3.43,3.78-5.85,6.28-8.76,2.5-2.91,11.73-11.7,15.12-13.41,3.39-1.7,9.23-4.65,12-4.93,22.65,14.91-3.09,91.44-52.76,118.68l69-3.52c3.32-4.84,88.57-121.8-15.08-192.54-4.35-2.97-9.12-3.19-15.44,1.34Z" />
				<path class="svg-api-cls-18" d="M175.47,121.46c-.14,1.7-3.47,15.85-10.46,23.13-.69,.22-1.12,.25-1.78,.14,1.38,3.89,9.9,7.78,13.53,6.84,2.88-1.54,15.07-10.34,19.69-16.5,2.83-3.77,8.05-10.07,9.74-11.19,2.91-1.91,10.8-4.35,13.05-6.27,3.06-2.6,4.64-6.34,4.49-7.65-.98-1.43-6.04-7.86-8.68-7.89-1.21,2.12-23.07,14.72-39.59,19.38Z" />
				<path class="svg-api-cls-8" d="M177.26,120.71c-.15,1.75-5.57,20.15-11.74,24.57,.81,1.91,7.27,5.15,10.77,4.25,2.77-1.48,14.6-9.69,19.04-15.61,2.72-3.62,7.32-9.26,9.88-11.2,2.76-2.09,10.5-4.12,12.54-6.1,3.55-3.43,4.87-6.75,4.72-8.01-.94-1.37-4.7-6.85-7.23-6.88-1.16,2.03-23.44,16.83-37.97,18.99Z" />
				<path class="svg-api-cls-17" d="M193.55,115.35c-1.01,3.82-6.02,18.85-15.1,26.54,.02-1.03,2.06-5.31,1.94-7.56-1.69,1.87-3.84,3.56-6.94,4.61,6.66-7.01,11.47-16.48,12.38-20.78,1.89-.71,7.13-2.29,7.72-2.8Z" />
				<path class="svg-api-cls-18" d="M170.46,122.23c-.27,.97,33.17-6.31,45.18-20.24,.07-.46-1.61-1.06-1.61-1.06-6.16,6.67-16.64,12.79-43.57,21.3Z" />
				<path class="svg-api-cls-18" d="M212.15,99.97c5.56,2.23,10.39,7.25,12.78,14.63,.36-6.42-6.02-15.75-12.78-14.63Z" />
				<path class="svg-api-cls-18" d="M226.07,99.03c1.43,.88,13.42,12.85,3.23,24.92-2.18,2.58-6.9,5.21-12.11,7.41,2.61,1.31,6.14,6,6.75,9.13,12.27-4.95,25.51-33.35,2.14-41.46Z" />
				<path class="svg-api-cls-20" d="M163.21,100.48c-.14-.45-.84-1.6-1.18-1.99-.64-.72-1.37-1.34-2.16-1.85-2.53-1.67-4.96-2.3-7.91-2.22-3.22,.09-6.45,.4-9.63-.38-2.87-.7-5.32-2.21-7.7-4.02-3.32-2.53-5.79-5.52-10.57-5.51-.09,0-.17,.02-.25,.07-2.46,1.45-4.39,3.31-5.12,5.47-.85,2.54,.07,12,1.21,14.29,2.21,4.44,4.79,4.43,12.52,4.94,4.09,.27,12.85,9.48,20.5,12.93,2.16,.91,14.08-9.44,10.28-21.72Z" />
				<path class="svg-api-cls-18" d="M195.05,61.8c2.21-2.07,5.52-4.92,8.13-6.37-1.04-.58-1.76-.76-1.76-.76,0,0-4.18,1.84-6.37,7.13Z" />
				<path class="svg-api-cls-18" d="M218.25,54.05c-3.82-2.61-7.04-2.71-12.28,.28,4.88-1.05,6.87-.81,9.21,.78,97.99,66.88,24.56,176,13.73,191.7l4.42-.23c3.32-4.84,88.57-121.8-15.08-192.54Z" />
				<path class="svg-api-cls-13" d="M197.75,57.51c1.25-1.24,2.24-2.26,3.63-2.83-3.27-1.32-9.89-3.54-16.01,.36,7.93-1.7,10.43-.98,12.38,2.47Z" />
				<path class="svg-api-cls-13" d="M186.91,57.58c.46-.38,.93-.72,1.41-1.03-2.37,.29-4.81,1.16-7.06,3.02-6.58,5.45-15.61,14.91-24.22,18.97,.94-.27,1.83-.54,2.67-.81,9.45-2.99,19.85-14.08,27.2-20.16Z" />
				<g>
					<path d="M209.85,89.87c-2.09,7.32-9.2,12.8-15.14,11.1-5.93-1.7-8.77-9.99-6.67-17.3s8.6-11.87,14.54-10.17c5.93,1.7,9.37,9.06,7.27,16.37Z" />
					<path d="M217.31,76.51c-1.86,2.93-5.54,8.08-7.79,8.46-1.07,3.38-8.97,16.28-8.97,16.28,6.05-.72,15.84-9.38,18.54-13.3-1.94,.65-5.69,1.62-5.69,1.62,1.84-.89,4.19-3.97,4.72-5.46-1.87,1.2-5.32,2.46-5.32,2.46,2.26-1.37,4.64-8.32,4.52-10.05Z" />
					<path class="svg-api-cls-11" d="M208.54,91.01c-2.11,7.39-8.7,12.61-14.43,10.96-5.74-1.64-8.39-9.95-6.28-17.34,2.11-7.39,8.41-11.62,14.15-9.97,5.74,1.64,8.68,8.96,6.56,16.35Z" />
					<ellipse cx="199.36" cy="85.6" rx="6.21" ry="2.64" transform="translate(49.16 242.17) rotate(-69.43)" />
					<path class="svg-api-cls-16" d="M204.03,78.93c2.39,3.41,2.79,8.88,.41,13.55-2.2,4.33-4.74,6.96-9.32,8.8,4.75,.66,8.45-1.69,11.17-7.04,2.92-5.76,1.86-12.28-2.27-15.31Z" />
					<circle class="svg-api-cls-11" cx="198" cy="81.33" r="2.27" />
				</g>
				<path class="svg-api-cls-22" d="M131.53,100.98c-.86-2.43-4.16-7.09-6.25-7.77s-.97,2.51-.35,3.07c.77-1.92,4.45,1.97,6.6,4.7Z" />
				<path class="svg-api-cls-22" d="M146.43,104.85c.69-.77,12.96-6.11,8.89,1.97-.27-1.63-2.6-3.44-8.89-1.97Z" />
				<path class="svg-api-cls-12" d="M153.36,97.55c5.81,.11,10.74,2.76,8.54,7.75-.87-2.64-.98-5.88-8.54-7.75Z" />
				<path class="svg-api-cls-12" d="M130.72,90.03c-.06-1.13-5.28-4.54-6.1-4.78s-1.51,.81-1.22,2.38c-.25-3.41,6.71,1.89,7.32,2.4Z" />
				<path d="M212.44,75.21c-.34-3.09-8.73-19.05-14.79-8.4,2.79-.87,7.53-3.04,14.79,8.4Z" />
				<path d="M159.23,57.51c.63-1.62,7.83-19.61,14.26-5.7-2.28-1.57-5.69-8.57-14.26,5.7Z" />
			</g>
			<g>
				<g>
					<g>
						<path class="svg-api-cls-32" d="M255.59,110.54c-1.02,0-2.04-.12-3.02-.35-.53-.13-1.07-.29-1.61-.49l-.4-.15-.19-.09c-.21-.09-.4-.18-.59-.27-.06-.03-3.69-1.59-11.45-5.27-8.18-3.87-14.95-16.84-11.61-31.04,3.08-13.08,12.25-22.94,21.33-22.94,.66,0,1.32,.05,1.96,.15l.11,.02c.28,.05,.53,.1,.79,.16,.13,.03,.26,.06,.38,.1l14.62,3.19c10.41,2.45,15.89,17.15,12.21,32.76-3.25,13.81-12.94,24.22-22.53,24.22h0Z" />
						<path class="svg-api-cls-19" d="M248.05,50.43c.63,0,1.27,.05,1.88,.15h.08s.05,.02,.05,.02c.24,.04,.49,.09,.73,.15,.12,.03,.25,.06,.41,.11l14.58,3.19c4.84,1.14,8.75,5.06,11.01,11.04,2.31,6.12,2.61,13.62,.84,21.12-3.2,13.59-12.68,23.84-22.05,23.84-.98,0-1.96-.11-2.91-.34-.51-.12-1.03-.28-1.55-.47l-.28-.1-.3-.14c-.19-.08-.38-.17-.6-.28-.04-.02-3.66-1.58-11.41-5.25-6.72-3.18-14.97-15.06-11.34-30.48,3.03-12.86,11.99-22.56,20.85-22.56h0m0-.99c-9.25,0-18.61,9.71-21.81,23.32-3.54,15.05,4.01,27.88,11.88,31.6,7.87,3.72,11.45,5.26,11.45,5.26,.2,.1,.4,.19,.6,.28l.62,.28v-.03c.55,.2,1.1,.38,1.68,.51,1.04,.24,2.09,.36,3.14,.36,9.76,0,19.63-10.24,23.01-24.6,3.74-15.9-1.89-30.84-12.59-33.35l-14.59-3.19c-.13-.04-.27-.07-.4-.1-.26-.06-.53-.11-.79-.16l-.14-.03h0c-.68-.1-1.36-.15-2.04-.15h0Z" />
					</g>
					<path class="svg-api-cls-28" d="M225.8,79.84s4.98,6.32,13.57,5.34c-.03,2.45,.47,16.71,7.39,22.09-2.9,.07-11.96-5.27-12.52-5.78-1.19-.93-9.47-11.9-8.44-21.66Z" />
					<path class="svg-api-cls-19" d="M248.05,50.43c.63,0,1.27,.05,1.88,.15h.08s.05,.02,.05,.02c.24,.04,.49,.09,.73,.15,.12,.03,.25,.06,.41,.11l14.58,3.19c4.84,1.14,8.75,5.06,11.01,11.04,2.31,6.12,2.61,13.62,.84,21.12-3.2,13.59-12.68,23.84-22.05,23.84-.98,0-1.96-.11-2.91-.34-.51-.12-1.03-.28-1.55-.47l-.28-.1-.3-.14c-.19-.08-.38-.17-.6-.28-.04-.02-3.66-1.58-11.41-5.25-6.72-3.18-14.97-15.06-11.34-30.48,3.03-12.86,11.99-22.56,20.85-22.56h0m0-.99c-9.25,0-18.61,9.71-21.81,23.32-3.54,15.05,4.01,27.88,11.88,31.6,7.87,3.72,11.45,5.26,11.45,5.26,.2,.1,.4,.19,.6,.28l.62,.28v-.03c.55,.2,1.1,.38,1.68,.51,1.04,.24,2.09,.36,3.14,.36,9.76,0,19.63-10.24,23.01-24.6,3.74-15.9-1.89-30.84-12.59-33.35l-14.59-3.19c-.13-.04-.27-.07-.4-.1-.26-.06-.53-.11-.79-.16l-.14-.03h0c-.68-.1-1.36-.15-2.04-.15h0Z" />
					<path class="svg-api-cls-6" d="M244.72,106.81c-10.34-2.44-15.83-16.72-12.26-31.91s14.86-25.53,25.2-23.09" />
					<g>
						<path class="svg-api-cls-23" d="M255.83,110.44c-1.02,0-2.04-.12-3.03-.35-10.43-2.45-15.92-17.17-12.24-32.79,3.25-13.82,12.95-24.24,22.55-24.24,1.02,0,2.04,.12,3.03,.35,10.43,2.46,15.92,17.17,12.24,32.79-3.25,13.82-12.95,24.24-22.55,24.24Z" />
						<path class="svg-api-cls-19" d="M263.12,53.52h0c.99,0,1.97,.11,2.92,.34,4.86,1.14,8.78,5.08,11.05,11.08,2.31,6.13,2.61,13.64,.84,21.15-3.2,13.61-12.71,23.88-22.1,23.88-.99,0-1.97-.11-2.92-.34-4.86-1.14-8.78-5.08-11.05-11.08-2.31-6.13-2.61-13.64-.84-21.15,3.2-13.61,12.71-23.88,22.1-23.88m0-.93c-9.76,0-19.63,10.24-23.01,24.6-3.74,15.9,1.89,30.84,12.59,33.35,1.04,.24,2.09,.36,3.14,.36,9.76,0,19.63-10.24,23.01-24.6,3.74-15.9-1.89-30.84-12.59-33.35-1.04-.24-2.09-.36-3.14-.36h0Z" />
					</g>
					<g>
						<path class="svg-api-cls-29" d="M259.74,99.82c-.63,0-1.26-.07-1.88-.22-3.11-.73-5.62-3.24-7.06-7.06-1.46-3.87-1.65-8.62-.54-13.36,2.03-8.61,8.06-15.11,14.03-15.11,.63,0,1.26,.07,1.88,.22,3.11,.73,5.62,3.24,7.06,7.06,1.46,3.87,1.65,8.62,.54,13.36-2.03,8.61-8.06,15.11-14.03,15.11Z" />
						<path class="svg-api-cls-19" d="M264.3,64.47h0c.6,0,1.2,.07,1.79,.21,6.27,1.48,9.55,10.43,7.3,19.95-1.99,8.44-7.86,14.81-13.65,14.81-.6,0-1.2-.07-1.79-.21-6.27-1.48-9.55-10.43-7.3-19.95,1.99-8.44,7.86-14.81,13.65-14.81m0-.78c-6.11,0-12.29,6.41-14.41,15.41-2.34,9.96,1.19,19.31,7.88,20.89,.65,.15,1.31,.23,1.96,.23,6.11,0,12.29-6.41,14.41-15.41,2.34-9.96-1.19-19.31-7.88-20.89-.65-.15-1.31-.23-1.96-.23h0Z" />
					</g>
					<g>
						<path class="svg-api-cls-29" d="M259.74,99.82c-.63,0-1.26-.07-1.88-.22-3.11-.73-5.62-3.24-7.06-7.06-1.46-3.87-1.65-8.62-.54-13.36,2.03-8.61,8.06-15.11,14.03-15.11,.63,0,1.26,.07,1.88,.22,3.11,.73,5.62,3.24,7.06,7.06,1.46,3.87,1.65,8.62,.54,13.36-2.03,8.61-8.06,15.11-14.03,15.11Z" />
						<path class="svg-api-cls-19" d="M264.3,64.47h0c.6,0,1.2,.07,1.79,.21,6.27,1.48,9.55,10.43,7.3,19.95-1.99,8.44-7.86,14.81-13.65,14.81-.6,0-1.2-.07-1.79-.21-6.27-1.48-9.55-10.43-7.3-19.95,1.99-8.44,7.86-14.81,13.65-14.81m0-.78c-6.11,0-12.29,6.41-14.41,15.41-2.34,9.96,1.19,19.31,7.88,20.89,.65,.15,1.31,.23,1.96,.23,6.11,0,12.29-6.41,14.41-15.41,2.34-9.96-1.19-19.31-7.88-20.89-.65-.15-1.31-.23-1.96-.23h0Z" />
					</g>
					<g>
						<path class="svg-api-cls-26" d="M263.19,90.47c-.19,0-.38-.01-.57-.04-1.59-.22-2.97-1.36-3.87-3.22-.91-1.88-1.23-4.25-.89-6.68,.65-4.63,3.6-8.25,6.72-8.25,.19,0,.38,.01,.57,.04,1.59,.22,2.97,1.36,3.87,3.22,.91,1.88,1.23,4.25,.89,6.68-.65,4.63-3.6,8.25-6.72,8.25Z" />
						<path class="svg-api-cls-19" d="M264.59,72.48h0c.18,0,.36,.01,.54,.04,1.53,.21,2.85,1.32,3.72,3.11,.9,1.84,1.21,4.17,.87,6.57-.63,4.53-3.5,8.08-6.53,8.08-.18,0-.36-.01-.54-.04-3.22-.45-5.28-4.79-4.59-9.68,.63-4.53,3.5-8.08,6.53-8.08m0-.39c-3.22,0-6.25,3.61-6.92,8.42-.71,5.11,1.49,9.64,4.93,10.12,.2,.03,.4,.04,.6,.04,3.22,0,6.24-3.61,6.92-8.42,.71-5.11-1.49-9.64-4.93-10.12-.2-.03-.4-.04-.6-.04h0Z" />
					</g>
				</g>
				<g>
					<path class="svg-api-cls-27" d="M236.49,79.34c-.36,0-.67-.14-.94-.42-.46-.48-.99-1.59-.89-4.13,.23-5.91,6.34-14.27,8.94-17.84,.54-.74,.89-1.22,1.05-1.49,.96-1.61-.02-4.51-1-6.66l-.19-.42c-6.64-15.13-18.18-23.46-32.5-23.46-.65,0-1.31,.02-1.98,.05-20.38,1.04-25.06,16.7-25.66,19.09-.25,.05-.66,.14-1.27,.33,0-.07,.02-.13,.03-.21,2.28-19.01,17.45-23.76,29.78-24.39,.91-.05,1.82-.07,2.71-.07,18.31,0,26.3,10.08,32.72,18.18,1.59,2.01,3.09,3.9,4.64,5.51,.44,.45,.8,.9,1.14,1.34,1.21,1.51,2.25,2.81,5.4,3.08,9.11,.78,11.23,4.45,12.63,6.88,.21,.36,.4,.7,.6,.99-2.26-2.01-4.92-3.02-7.94-3.02-.23,0-.46,0-.69,.02-18.45,.94-24.2,24.19-24.25,24.43-.25,1.18-1.34,2.22-2.33,2.22h0Z" />
					<path class="svg-api-cls-19" d="M214.56,19.3v.86c18.11,0,26.03,9.99,32.39,18.02,1.6,2.01,3.11,3.92,4.67,5.54,.42,.44,.78,.88,1.12,1.31,1.22,1.52,2.37,2.95,5.7,3.24,7.81,.67,10.34,3.5,11.76,5.77-1.92-1.19-4.06-1.78-6.43-1.78-.23,0-.47,0-.71,.02-16,.82-23.34,18.6-24.65,24.77-.22,1.06-1.21,1.88-1.91,1.88-.24,0-.45-.09-.63-.29-.33-.34-.87-1.3-.77-3.82,.23-5.77,6.5-14.37,8.86-17.6,.54-.75,.91-1.24,1.07-1.52,.85-1.42,.52-3.79-.98-7.06-.05-.11-.11-.25-.19-.42-6.71-15.3-18.4-23.72-32.9-23.72-.66,0-1.33,.02-2,.05-20.01,1.02-25.12,15.97-25.98,19.16-.12,.03-.26,.06-.41,.1,2.42-18.35,17.25-22.95,29.32-23.57,.91-.05,1.81-.07,2.68-.07v-.86m0,0c-.89,0-1.79,.02-2.73,.07-30.13,1.54-29.85,24.21-30.32,25.65,1.65-.57,2.16-.58,2.16-.58,0,0,3.45-17.93,25.33-19.05,.66-.03,1.32-.05,1.96-.05,22.93,0,31.17,21.17,32.3,23.64,1.06,2.32,1.83,4.9,1.02,6.26-.88,1.49-9.76,12.29-10.05,19.53-.15,3.71,1.01,5,2.26,5s2.46-1.18,2.76-2.56c.71-3.34,7.04-23.23,23.85-24.09,.23-.01,.45-.02,.67-.02,9.1,0,12.34,9.72,13.07,11.5,.62-.69-2.4-6.97-4.23-8.52s-2.1-7.67-14.1-8.69c-3.85-.33-4.33-2.27-6.27-4.28-7.8-8.11-14.63-23.82-37.67-23.82h0Z" />
				</g>
				<path class="svg-api-cls-30" d="M275.93,61.02c-.01,.08-.04,.14-.07,.18-.17-.41-.48-1.26-.96-2.31-.82-1.51-1.77-2.94-2.52-3.58-.56-.47-.97-1.37-1.61-2.41-2.07-1.94-4.88-3.38-8.65-3.19-16.81,.86-23.14,20.75-23.85,24.09-.29,1.35-1.07,3.28-2.24,3.34-.58,.03-.87-.9-1.31-1.53,.19,2.62,.54,3.43,1.63,3.37,1.16-.06,2.38-1.21,2.66-2.56,.71-3.34,7.04-23.23,23.85-24.09,9.61-.49,12.99,9.66,13.74,11.49,.25-.27-.08-1.43-.68-2.81Z" />
				<path class="svg-api-cls-19" d="M214.56,19.3v.86c18.11,0,26.03,9.99,32.39,18.02,1.6,2.01,3.11,3.92,4.67,5.54,.42,.44,.78,.88,1.12,1.31,1.22,1.52,2.37,2.95,5.7,3.24,7.81,.67,10.34,3.5,11.76,5.77-1.92-1.19-4.06-1.78-6.43-1.78-.23,0-.47,0-.71,.02-16,.82-23.34,18.6-24.65,24.77-.22,1.06-1.21,1.88-1.91,1.88-.24,0-.45-.09-.63-.29-.33-.34-.87-1.3-.77-3.82,.23-5.77,6.5-14.37,8.86-17.6,.54-.75,.91-1.24,1.07-1.52,.85-1.42,.52-3.79-.98-7.06-.05-.11-.11-.25-.19-.42-6.71-15.3-18.4-23.72-32.9-23.72-.66,0-1.33,.02-2,.05-20.26,1.03-25.25,16.35-26.01,19.27-.13,.05-.27,.1-.4,.14,2.36-18.47,17.24-23.1,29.34-23.72,.91-.05,1.81-.07,2.68-.07v-.86m0,0c-.89,0-1.79,.02-2.73,.07-30.13,1.54-29.85,24.21-30.32,25.65,.03,0,.06,0,.09,0,.66,0,2.07-.58,2.07-.58,0,0,3.45-17.93,25.33-19.05,.66-.03,1.32-.05,1.96-.05,22.93,0,31.17,21.17,32.3,23.64,1.06,2.32,1.83,4.9,1.02,6.26-.88,1.49-9.76,12.29-10.05,19.53-.15,3.71,1.01,5,2.26,5s2.46-1.18,2.76-2.56c.71-3.34,7.04-23.23,23.85-24.09,.23-.01,.45-.02,.67-.02,9.1,0,12.34,9.72,13.07,11.5,.62-.69-2.4-6.97-4.23-8.52s-2.1-7.67-14.1-8.69c-3.85-.33-4.33-2.27-6.27-4.28-7.8-8.11-14.63-23.82-37.67-23.82h0Z" />
				<path class="svg-api-cls-30" d="M208.22,22.18c-21.88,1.12-25.71,21.84-25.71,21.84l.6-.21s3.08-18.09,25.95-19.34c24.42-1.33,33.61,21.05,34.78,23.59,.19,.42,.37,.84,.53,1.26-.18-1.2-.69-2.59-1.28-3.89-1.16-2.54-10.45-24.51-34.88-23.26Z" />
				<path class="svg-api-cls-11" d="M239.43,40.17c-.96-1.87,3.2-6.17,5.81-4.21,.92,1.14,4.08,5.14,4.08,5.14-1.59-.88-7.06,2.73-6.65,4.49-1.04-1.79-3.23-5.38-3.23-5.43Z" />
			</g>
			<path class="svg-api-cls-2" d="M251.09,109.55c-1.99,13.4-17.25,35.74-46.44,45.69" />
			<path class="svg-api-cls-3" d="M251.09,109.55c-1.99,13.4-17.25,35.74-46.44,45.69" />
			<ellipse class="svg-api-cls-9" cx="208.22" cy="154.19" rx="13.02" ry="8.01" transform="translate(-49.33 125.89) rotate(-30.25)" />
			<path class="svg-api-cls-15" d="M211.95,159c-5.48,3.19-11.51,3.05-13.47-.32-.55-.94-.72-2.04-.57-3.2-.8,1.88-.87,3.73,0,5.21,1.96,3.37,8,3.51,13.47,.32,3.94-2.3,6.52-5.7,6.92-8.68-1.03,2.41-3.28,4.88-6.35,6.67Z" />
			<ellipse class="svg-api-cls-14" cx="209.79" cy="151.66" rx="4.67" ry="2.92" transform="translate(-42.45 93.44) rotate(-22.87)" />
		</g>
	</g>
	<g>
		<g>
			<polyline class="svg-api-cls-5" points="287.95 77.06 318.76 46.25 376.74 46.25" />
			<g>
				<circle class="svg-api-cls-10" cx="395.33" cy="46.08" r="9.95" />
				<path class="svg-api-cls-10" d="M395.33,29.58c9.1,0,16.5,7.4,16.5,16.5s-7.4,16.5-16.5,16.5-16.5-7.4-16.5-16.5,7.4-16.5,16.5-16.5m0-4c-11.32,0-20.5,9.18-20.5,20.5s9.18,20.5,20.5,20.5,20.5-9.18,20.5-20.5-9.18-20.5-20.5-20.5h0Z" />
			</g>
		</g>
		<g>
			<polyline class="svg-api-cls-5" points="137.05 77.06 106.24 46.25 48.26 46.25" />
			<g>
				<circle class="svg-api-cls-10" cx="29.67" cy="46.08" r="9.95" />
				<path class="svg-api-cls-10" d="M29.67,29.58c9.1,0,16.5,7.4,16.5,16.5s-7.4,16.5-16.5,16.5-16.5-7.4-16.5-16.5,7.4-16.5,16.5-16.5m0-4c-11.32,0-20.5,9.18-20.5,20.5s9.18,20.5,20.5,20.5,20.5-9.18,20.5-20.5-9.18-20.5-20.5-20.5h0Z" />
			</g>
		</g>
	</g>
	<g>
		<polyline class="svg-api-cls-5" points="287.95 218.98 318.76 249.79 376.74 249.79" />
		<g>
			<circle class="svg-api-cls-10" cx="395.33" cy="249.96" r="9.95" />
			<path class="svg-api-cls-10" d="M395.33,233.46c9.1,0,16.5,7.4,16.5,16.5s-7.4,16.5-16.5,16.5-16.5-7.4-16.5-16.5,7.4-16.5,16.5-16.5m0-4c-11.32,0-20.5,9.18-20.5,20.5s9.18,20.5,20.5,20.5,20.5-9.18,20.5-20.5-9.18-20.5-20.5-20.5h0Z" />
		</g>
	</g>
	<g>
		<polyline class="svg-api-cls-5" points="137.05 218.98 106.24 249.79 48.26 249.79" />
		<g>
			<circle class="svg-api-cls-10" cx="29.67" cy="249.96" r="9.95" />
			<path class="svg-api-cls-10" d="M29.67,233.46c9.1,0,16.5,7.4,16.5,16.5s-7.4,16.5-16.5,16.5-16.5-7.4-16.5-16.5,7.4-16.5,16.5-16.5m0-4c-11.32,0-20.5,9.18-20.5,20.5s9.18,20.5,20.5,20.5,20.5-9.18,20.5-20.5-9.18-20.5-20.5-20.5h0Z" />
		</g>
	</g>
	<g>
		<line class="svg-api-cls-5" x1="301.26" y1="145.28" x2="359.24" y2="145.28" />
		<g>
			<circle class="svg-api-cls-10" cx="377.83" cy="145.45" r="9.95" />
			<path class="svg-api-cls-10" d="M377.83,128.95c9.1,0,16.5,7.4,16.5,16.5s-7.4,16.5-16.5,16.5-16.5-7.4-16.5-16.5,7.4-16.5,16.5-16.5m0-4c-11.32,0-20.5,9.18-20.5,20.5s9.18,20.5,20.5,20.5,20.5-9.18,20.5-20.5-9.18-20.5-20.5-20.5h0Z" />
		</g>
	</g>
	<g>
		<line class="svg-api-cls-5" x1="123.74" y1="145.28" x2="65.76" y2="145.28" />
		<g>
			<circle class="svg-api-cls-10" cx="47.17" cy="145.45" r="9.95" />
			<path class="svg-api-cls-10" d="M47.17,128.95c9.1,0,16.5,7.4,16.5,16.5s-7.4,16.5-16.5,16.5-16.5-7.4-16.5-16.5,7.4-16.5,16.5-16.5m0-4c-11.32,0-20.5,9.18-20.5,20.5s9.18,20.5,20.5,20.5,20.5-9.18,20.5-20.5-9.18-20.5-20.5-20.5h0Z" />
		</g>
	</g>
</svg>
