<svg xmlns="http://www.w3.org/2000/svg" xmlns:xlink="http://www.w3.org/1999/xlink" viewBox="0 0 425 300">
	<defs>
		<style>
			.svg-starter-cls-1{fill:none;}.svg-starter-cls-2{fill:url(#Spring_Dark);}.svg-starter-cls-3{clip-path:url(#svg-starter-clippath);}.svg-starter-cls-4{fill:url(#Degradado_sin_nombre_5);}.svg-starter-cls-4,.svg-starter-cls-5{mix-blend-mode:multiply;}.svg-starter-cls-6{mask:url(#mask);}.svg-starter-cls-7{filter:url(#luminosity-noclip-2);}.svg-starter-cls-8{fill:#f63599;}.svg-starter-cls-9{fill:#003948;}.svg-starter-cls-10{fill:#002d64;}.svg-starter-cls-11{fill:#02fcff;}.svg-starter-cls-12{fill:#67f6fc;}.svg-starter-cls-13{fill:#ffde1e;}.svg-starter-cls-14{fill:#f5b0d6;}.svg-starter-cls-15{fill:#e70b77;}.svg-starter-cls-16,.svg-starter-cls-5{fill:#e70a77;}.svg-starter-cls-17,.svg-starter-cls-18,.svg-starter-cls-19,.svg-starter-cls-20,.svg-starter-cls-21{fill:#fff;}.svg-starter-cls-22{fill:#ececec;}.svg-starter-cls-23{fill:#fd5a09;}.svg-starter-cls-24{fill:#fdbd00;}.svg-starter-cls-25{fill:#ff7d22;}.svg-starter-cls-26{fill:#ff652f;}.svg-starter-cls-27{fill:#742e89;}.svg-starter-cls-28{fill:#6d187a;}.svg-starter-cls-29{fill:#8c2f9e;}.svg-starter-cls-30{fill:#8f195c;}.svg-starter-cls-31{fill:#333;}.svg-starter-cls-32{fill:#b51800;}.svg-starter-cls-33{fill:#dadada;}.svg-starter-cls-34{fill:#e37cb1;}.svg-starter-cls-35{fill:#d5d5d5;}.svg-starter-cls-36{fill:#40338f;}.svg-starter-cls-37{fill:#424242;}.svg-starter-cls-38{fill:#3e0b4b;}.svg-starter-cls-39{fill:#726cb2;}.svg-starter-cls-40{fill:#2a3439;}.svg-starter-cls-41{fill:#4c5156;}.svg-starter-cls-42{fill:#777974;}.svg-starter-cls-43{fill:#5fc7b1;}.svg-starter-cls-44{fill:#828282;}.svg-starter-cls-45{fill:#4e0f5b;}.svg-starter-cls-46{fill:url(#Degradado_sin_nombre_37);}.svg-starter-cls-46,.svg-starter-cls-47{opacity:.57;}.svg-starter-cls-5,.svg-starter-cls-18{opacity:.2;}.svg-starter-cls-48{clip-path:url(#clippath-1);}.svg-starter-cls-49{stroke-width:1.36px;}.svg-starter-cls-49,.svg-starter-cls-50{fill:#d8d7ff;stroke:#c0c0f2;}.svg-starter-cls-49,.svg-starter-cls-50,.svg-starter-cls-51{stroke-miterlimit:10;}.svg-starter-cls-52{mix-blend-mode:hard-light;}.svg-starter-cls-53{fill:url(#radial-gradient);}.svg-starter-cls-53,.svg-starter-cls-54{mix-blend-mode:lighten;}.svg-starter-cls-47{fill:url(#Degradado_sin_nombre_37-2);}.svg-starter-cls-55{opacity:.14;}.svg-starter-cls-51{fill:#5b5b5b;stroke:#424242;stroke-width:.11px;}.svg-starter-cls-56{isolation:isolate;}.svg-starter-cls-54{fill:url(#linear-gradient);}.svg-starter-cls-57{mask:url(#mask-1);}.svg-starter-cls-58{fill:#373e42;opacity:.6;}.svg-starter-cls-59{fill:#802e05;opacity:.7;}.svg-starter-cls-19{opacity:.31;}.svg-starter-cls-20{opacity:.47;}.svg-starter-cls-21{opacity:.38;}
		</style>
		<linearGradient id="Degradado_sin_nombre_37" x1="82.11" y1="149.01" x2="348.93" y2="149.01" gradientUnits="userSpaceOnUse">
			<stop offset="0" stop-color="#00556a" />
			<stop offset="1" stop-color="#007d8d" />
		</linearGradient>
		<linearGradient id="Degradado_sin_nombre_37-2" x1="61.63" y1="152.68" x2="242.58" y2="152.68" xlink:href="#Degradado_sin_nombre_37" />
		<clipPath id="svg-starter-clippath">
			<rect class="svg-starter-cls-1" x="61.63" y="82.14" width="308.49" height="134.36" rx="4.1" ry="4.1" />
		</clipPath>
		<filter id="luminosity-noclip-2" x="60.86" y="148.21" width="66.36" height="74.29" color-interpolation-filters="sRGB" filterUnits="userSpaceOnUse">
			<feFlood flood-color="#fff" result="bg" />
			<feBlend in="SourceGraphic" in2="bg" />
		</filter>
		<filter id="luminosity-noclip-3" x="6989.5" y="-8892" width="-32766" height="32766" color-interpolation-filters="sRGB" filterUnits="userSpaceOnUse">
			<feFlood flood-color="#fff" result="bg" />
			<feBlend in="SourceGraphic" in2="bg" />
		</filter>
		<mask id="mask-1" x="6989.5" y="-8892" width="-32766" height="32766" maskUnits="userSpaceOnUse" />
		<linearGradient id="Degradado_sin_nombre_5" x1="97.29" y1="174.4" x2="70.85" y2="205.44" gradientUnits="userSpaceOnUse">
			<stop offset="0" stop-color="#fff" />
			<stop offset=".99" stop-color="#000" />
		</linearGradient>
		<mask id="mask" x="60.86" y="148.21" width="66.36" height="74.29" maskUnits="userSpaceOnUse">
			<g class="svg-starter-cls-7">
				<g class="svg-starter-cls-57">
					<path class="svg-starter-cls-4" d="M101.32,181.28c-.5,0-.99,.01-1.48,.04,.09-.47,.16-.94,.16-1.43,0-4.93-5.02-8.92-11.21-8.92-1.93,0-3.74,.39-5.32,1.07,.22-1.09,.35-2.21,.35-3.35,0-10.59-10.04-19.31-22.95-20.48v40.95c1.92-.18,3.78-.51,5.55-1,.32,4.35,4.54,7.86,9.92,8.33-.58,1.72-.9,3.53-.9,5.39,0,11.39,11.59,20.61,25.9,20.61s25.9-9.23,25.9-20.61-11.6-20.61-25.9-20.61Z" />
				</g>
			</g>
		</mask>
		<linearGradient id="linear-gradient" x1="97.51" y1="174.59" x2="71.07" y2="205.63" gradientUnits="userSpaceOnUse">
			<stop offset="0" stop-color="#e37cb1" />
			<stop offset=".99" stop-color="#742e89" />
		</linearGradient>
		<radialGradient id="radial-gradient" cx="-49.64" cy="481.44" fx="-49.64" fy="481.44" r="56.98" gradientTransform="translate(321.57 -635.53) scale(1.58 1.66)" gradientUnits="userSpaceOnUse">
			<stop offset="0" stop-color="#fff" />
			<stop offset=".99" stop-color="#742e89" />
		</radialGradient>
		<clipPath id="clippath-1">
			<circle class="svg-starter-cls-1" cx="216.56" cy="62.42" r="19.71" transform="translate(19.29 171.41) rotate(-45)" />
		</clipPath>
		<linearGradient id="Spring_Dark" x1="202.68" y1="63.35" x2="204.27" y2="63.35" gradientUnits="userSpaceOnUse">
			<stop offset="0" stop-color="#6d187a" />
			<stop offset="1" stop-color="#471371" />
		</linearGradient>
	</defs>
	<g class="svg-starter-cls-56">
		<g id="bg">
			<circle class="svg-starter-cls-39" cx="216.07" cy="150" r="138.87" />
		</g>
		<g id="Layer_2">
			<g>
				<path class="svg-starter-cls-50" d="M58.52,70.33H374.21c4.51,0,8.18,3.66,8.18,8.18V246.54c0,5.18-4.2,9.38-9.38,9.38H59.15c-5.18,0-9.38-4.2-9.38-9.38V79.09c0-4.83,3.92-8.76,8.76-8.76Z" />
				<rect class="svg-starter-cls-31" x="185.68" y="255.92" width="60.36" height="19.65" />
				<rect class="svg-starter-cls-5" x="185.68" y="255.92" width="60.36" height="8.74" />
				<path class="svg-starter-cls-31" d="M277.31,282.99h-122.91v-1.27c0-3.38,7.12-6.14,15.82-6.14h91.26c8.7,0,15.82,2.76,15.82,6.14v1.27Z" />
			</g>
			<g>
				<path class="svg-starter-cls-9" d="M66.91,82.08c-2.91,0-5.28,1.92-5.28,4.27v3.07l180.95,126.51h30.98L82.11,82.08h-15.2Z" />
				<path class="svg-starter-cls-9" d="M61.63,136.16v75.5c0,2.35,2.38,4.27,5.28,4.27H216.33L61.63,107.77v28.39Z" />
				<path class="svg-starter-cls-9" d="M364.84,82.08H157.48l191.45,133.85h15.91c2.9,0,5.28-1.92,5.28-4.27V86.35c0-2.35-2.38-4.27-5.28-4.27Z" />
				<polygon class="svg-starter-cls-46" points="143.61 82.08 82.11 82.08 273.56 215.93 291.69 215.93 348.93 215.93 157.48 82.08 143.61 82.08" />
				<polygon class="svg-starter-cls-47" points="61.63 107.77 216.33 215.93 242.58 215.93 61.63 89.42 61.63 107.77" />
			</g>
			<g class="svg-starter-cls-3">
				<g>
					<g>
						<path class="svg-starter-cls-27" d="M101.32,181.28c-.5,0-.99,.01-1.48,.04,.09-.47,.16-.94,.16-1.43,0-4.93-5.02-8.92-11.21-8.92-1.93,0-3.74,.39-5.32,1.07,.22-1.09,.35-2.21,.35-3.35,0-10.59-10.43-19.31-22.18-20.48v40.95c.76-.18,3-.51,4.77-1,.32,4.35,4.54,7.86,9.92,8.33-.58,1.72-.9,3.53-.9,5.39,0,11.39,11.59,20.61,25.9,20.61s25.9-9.23,25.9-20.61-11.6-20.61-25.9-20.61Z" />
						<path class="svg-starter-cls-27" d="M356.96,133.68v-27.88c-2.16-.69-4.52-1.07-6.99-1.07-10.41,0-18.86,6.72-18.86,15.01,0,2.91,1.05,5.63,2.85,7.93-5.63,.01-10.18,3.65-10.18,8.13,0,1.1,.28,2.15,.78,3.11-11.71,.33-21.07,7.99-21.07,17.39s9.79,17.4,21.86,17.4,21.86-7.79,21.86-17.4c0-5.44-3.14-10.3-8.05-13.49,3.01-1.41,5.05-4.02,5.05-7,0-.63-.1-1.25-.27-1.84,1.9,.51,3.93,.79,6.04,.79,2.47,0,4.82-.38,6.99-1.07Z" />
						<g class="svg-starter-cls-52">
							<g class="svg-starter-cls-6">
								<path class="svg-starter-cls-54" d="M101.32,181.28c-.5,0-.99,.01-1.48,.04,.09-.47,.16-.94,.16-1.43,0-4.93-5.02-8.92-11.21-8.92-1.93,0-3.74,.39-5.32,1.07,.22-1.09,.35-2.21,.35-3.35,0-10.59-9.27-19.31-22.18-20.48v40.95c1.92-.18,3-.51,4.77-1,.32,4.35,4.54,7.86,9.92,8.33-.58,1.72-.9,3.53-.9,5.39,0,11.39,11.59,20.61,25.9,20.61s25.9-9.23,25.9-20.61-11.6-20.61-25.9-20.61Z" />
							</g>
						</g>
						<path class="svg-starter-cls-36" d="M310.25,168.73c-12.81,0-23.44,7.4-25.52,17.13-1.77-1.18-4.06-1.89-6.54-1.89-3.24,0-6.13,1.21-8,3.08-3.24-4.54-9.37-7.61-16.4-7.61-2.49,0-4.86,.39-7.03,1.08-3.48-8.12-13.13-13.96-24.51-13.96-8.17,0-15.45,3.01-20.2,7.72-2.3-5.57-8.87-9.58-16.63-9.58-3.38,0-6.54,.77-9.22,2.09-6.75-9.91-19.94-16.64-35.1-16.64-22.04,0-39.9,14.22-39.9,31.76s17.86,31.76,39.9,31.76c17.78,0,32.83-9.25,37.99-22.04,1.96,.61,4.1,.94,6.33,.94,4.21,0,8.07-1.18,11.08-3.15,1.4,10.33,12.39,18.37,25.74,18.37,6.16,0,11.8-1.71,16.25-4.57,3.42,3.78,9,6.24,15.3,6.24,8.65,0,15.93-4.63,18.15-10.95,1.73,1.07,3.89,1.71,6.25,1.71,3.28,0,6.19-1.23,8.05-3.14,3.84,7.55,13.14,12.88,24.01,12.88,14.3,0,25.9-9.23,25.9-20.61s-11.59-20.61-25.9-20.61Z" />
						<path class="svg-starter-cls-27" d="M89.13,152.58c0-1.28,1.3-2.32,2.91-2.32s2.91,1.04,2.91,2.32-1.31,2.32-2.91,2.32-2.91-1.04-2.91-2.32Z" />
						<path class="svg-starter-cls-12" d="M349.71,143.16c0-2.18,2.22-3.95,4.96-3.95s4.96,1.77,4.96,3.95-2.22,3.95-4.96,3.95-4.96-1.77-4.96-3.95Z" />
						<path class="svg-starter-cls-27" d="M72.6,143.85c0-2.18,2.22-3.95,4.96-3.95s4.96,1.77,4.96,3.95-2.22,3.95-4.96,3.95-4.96-1.77-4.96-3.95Z" />
						<path class="svg-starter-cls-27" d="M293.58,147.79c0-2.18,2.22-3.95,4.96-3.95s4.96,1.77,4.96,3.95-2.22,3.95-4.96,3.95-4.96-1.77-4.96-3.95Z" />
						<path class="svg-starter-cls-27" d="M307.91,156.22c0-.67,.68-1.21,1.52-1.21s1.52,.54,1.52,1.21-.68,1.21-1.52,1.21-1.52-.54-1.52-1.21Z" />
						<path class="svg-starter-cls-12" d="M206.66,156.22c0-.67,.68-1.21,1.52-1.21s1.52,.54,1.52,1.21-.68,1.21-1.52,1.21-1.52-.54-1.52-1.21Z" />
					</g>
					<path class="svg-starter-cls-15" d="M348.03,106.85c0,4.35,1.17,8.42,3.19,11.88-2.33-.91-4.85-1.4-7.48-1.4-11.92,0-21.58,10.16-21.58,22.69,0,3.75,.87,7.28,2.4,10.4-.76-.24-1.56-.37-2.4-.37-4.58,0-8.28,3.9-8.28,8.71,0,.65,.07,1.28,.2,1.88-3.1-1.8-6.66-2.83-10.45-2.83-11.92,0-21.58,10.16-21.58,22.7,0,5.31,1.75,10.2,4.66,14.07-.85-.42-1.79-.67-2.8-.67-2.77,0-5.13,1.82-6.09,4.37-3.49-6.71-10.26-11.26-18.05-11.26-9.71,0-17.85,7.09-20,16.61-16.34-5.1-13.49-52.19-13.3-79.25h-18.28c.56,27.33-2.07,59.91-13.8,65.34-.3-4.55-4.25-6.39-5.69-3.79-1.95-11.7-11.65-20.6-23.33-20.6s-22.24,9.69-23.55,22.16c-1.23-.75-2.65-1.18-4.17-1.18-4.49,0-8.15,3.73-8.32,8.41-3.04-10.07-12-17.37-22.59-17.37-8.29,0-15.58,4.49-19.81,11.26-.18-4.68-3.83-8.42-8.32-8.42-2.05,0-3.93,.79-5.38,2.08,0-.23,.02-.47,.02-.69,0-11.49-1.52-21.16-11.58-24.03v58.96H370.12V84.55c-10.01,1.97-22.09,11.21-22.09,22.3Z" />
					<path class="svg-starter-cls-53" d="M348.03,106.85c0,4.35,1.17,8.42,3.19,11.88-2.33-.91-4.85-1.4-7.48-1.4-11.92,0-21.58,10.16-21.58,22.69,0,3.75,.87,7.28,2.4,10.4-.76-.24-1.56-.37-2.4-.37-4.58,0-8.28,3.9-8.28,8.71,0,.65,.07,1.28,.2,1.88-3.1-1.8-6.66-2.83-10.45-2.83-11.92,0-21.58,10.16-21.58,22.7,0,5.31,1.75,10.2,4.66,14.07-.85-.42-1.79-.67-2.8-.67-2.77,0-5.13,1.82-6.09,4.37-3.49-6.71-10.26-11.26-18.05-11.26-9.71,0-17.85,7.09-20,16.61-16.18-5.41-13.33-51.39-13.3-79.25h-18.28c.56,27.79-2.07,59.91-13.8,65.34-.3-4.55-4.25-6.39-5.69-3.79-1.95-11.7-11.65-20.6-23.33-20.6s-22.24,9.69-23.55,22.16c-1.23-.75-2.65-1.18-4.17-1.18-4.49,0-8.15,3.73-8.32,8.41-3.04-10.07-12-17.37-22.59-17.37-8.29,0-15.58,4.49-19.81,11.26-.18-4.68-3.83-8.42-8.32-8.42-2.05,0-3.93,.79-5.38,2.08,0-.23,.02-.47,.02-.69,0-11.49-1.52-21.16-11.58-24.03v58.96H370.12V84.55c-10.01,1.97-22.09,11.21-22.09,22.3Z" />
					<g>
						<path class="svg-starter-cls-34" d="M272.69,214.06c-2.45-1.97-5.84-3.18-9.59-3.18-5.13,0-9.58,2.27-11.87,5.62h62.06c-1.18-8.22-9.95-14.61-20.59-14.61-9.57,0-17.62,5.16-20.01,12.18Z" />
						<path class="svg-starter-cls-34" d="M214.69,196.61c-6.87,0-12.96,2.66-16.73,6.76-2.38-3.07-6.63-5.12-11.49-5.12s-9.02,2.01-11.41,5.02c-2.94-7.09-11.32-12.21-21.22-12.21-12,0-21.79,7.53-22.31,16.99-1.75-1.73-4.43-2.84-7.43-2.84-4.87,0-8.88,2.9-9.46,6.65-3.8-3.43-9.36-5.6-15.55-5.6-8.66,0-16.08,4.23-19.18,10.24H234.98c.29-1.09,.44-2.23,.44-3.39,0-9.11-9.28-16.5-20.73-16.5Z" />
					</g>
				</g>
			</g>
			<g>
				<path class="svg-starter-cls-13" d="M216.56,124.42c-7.26,0-13.14,6.24-13.14,13.94,0,14.1,13.14,29.87,13.14,29.87,0,0,13.14-15.77,13.14-29.87,0-7.7-5.88-13.94-13.14-13.94Z" />
				<path class="svg-starter-cls-25" d="M216.56,125.77c-4.36,0-7.89,3.99-7.89,8.92,0,9.02,7.89,19.12,7.89,19.12,0,0,7.89-10.09,7.89-19.12,0-4.93-3.53-8.92-7.89-8.92Z" />
				<path class="svg-starter-cls-26" d="M216.56,128.12c-2.42,0-4.38,2.22-4.38,4.96,0,5.01,4.38,10.62,4.38,10.62,0,0,4.38-5.61,4.38-10.62,0-2.74-1.96-4.96-4.38-4.96Z" />
				<g>
					<path class="svg-starter-cls-27" d="M234.24,71.41v39.43s17.68,23.66,17.68,23.66l6.92-27.79c1.21-4.85-.21-9.92-3.84-13.69l-20.77-21.61Z" />
					<path class="svg-starter-cls-27" d="M181.19,134.49l17.69-23.66v-39.43s-20.77,21.61-20.77,21.61c-3.62,3.77-5.04,8.84-3.84,13.69l6.92,27.79Z" />
				</g>
				<path class="svg-starter-cls-16" d="M253.8,106.71c.96-4.85-.17-9.92-3.05-13.69l-16.51-21.61v39.43s14.82,19.82,14.82,19.82l4.74-23.95Z" />
				<path class="svg-starter-cls-16" d="M182.36,93.02c-2.88,3.77-4.01,8.84-3.05,13.69l4.74,23.95,14.82-19.82v-39.43s-16.51,21.61-16.51,21.61Z" />
				<path class="svg-starter-cls-44" d="M216.56,122.94c-8.17,0-15.39-1.37-19.71-3.56,.6,2.32,1.2,4.5,1.74,6.5,3.83,2.07,10.45,3.36,17.97,3.36,7.52,0,14.15-1.29,17.97-3.36,.54-2,1.14-4.17,1.74-6.5-4.33,2.2-11.54,3.56-19.71,3.56Z" />
				<path class="svg-starter-cls-22" d="M216.56,.87c-17.92,14.62-32.87,31.66-32.86,67.22-.03,19.75,5.48,38.53,9.24,51.34,5.03,2.53,13.73,4.11,23.62,4.11,9.89,0,18.59-1.58,23.62-4.11,3.75-12.81,9.26-31.59,9.24-51.34,.01-35.56-14.93-52.59-32.86-67.22Z" />
				<path class="svg-starter-cls-16" d="M216.56,23.12c6.97,0,13.55-.89,19.34-2.47-5.46-7.67-12.16-13.92-19.34-19.78-7.18,5.86-13.89,12.11-19.34,19.78,5.8,1.58,12.37,2.47,19.34,2.47Z" />
				<g>
					<path class="svg-starter-cls-35" d="M192.93,119.43c.85,.43,1.81,.83,2.86,1.2-3.18-13.07-7.42-31.42-7.4-50.66-.01-36.55,12.8-54.06,28.17-69.09-17.92,14.62-32.87,31.66-32.86,67.22-.03,19.75,5.48,38.53,9.24,51.34Z" />
					<path class="svg-starter-cls-17" d="M216.56,.87c15.36,15.03,28.18,32.54,28.17,69.09,.02,19.25-4.22,37.59-7.4,50.66,1.05-.37,2.01-.77,2.86-1.2,3.75-12.81,9.26-31.59,9.24-51.34,.01-35.56-14.93-52.59-32.86-67.22Z" />
				</g>
				<circle class="svg-starter-cls-33" cx="216.56" cy="62.42" r="26.29" />
				<circle class="svg-starter-cls-15" cx="216.56" cy="62.42" r="25.19" />
				<circle class="svg-starter-cls-27" cx="216.56" cy="62.42" r="21.91" transform="translate(19.29 171.41) rotate(-45)" />
				<circle class="svg-starter-cls-43" cx="216.56" cy="62.42" r="19.71" transform="translate(19.29 171.41) rotate(-45)" />
				<circle class="svg-starter-cls-43" cx="216.56" cy="62.42" r="19.71" transform="translate(19.29 171.41) rotate(-45)" />
				<path class="svg-starter-cls-27" d="M222.47,114.92c0,14.15-5.91,25.63-5.91,25.63,0,0-5.91-11.47-5.91-25.63,0-14.15,5.91-25.63,5.91-25.63,0,0,5.91,11.47,5.91,25.63Z" />
				<path class="svg-starter-cls-16" d="M218.53,114.92c0,14.15-1.97,25.63-1.97,25.63,0,0-1.97-11.47-1.97-25.63,0-14.15,1.97-25.63,1.97-25.63,0,0,1.97,11.47,1.97,25.63Z" />
				<path class="svg-starter-cls-27" d="M216.56,.87h0c-7.18,5.86-13.89,12.11-19.34,19.78,.89,.24,1.8,.46,2.72,.67,4.68-7.94,10.45-14.4,16.62-20.45Z" />
				<path class="svg-starter-cls-27" d="M233.18,21.32c.92-.21,1.83-.43,2.72-.67-5.46-7.67-12.16-13.92-19.34-19.78,6.18,6.06,11.94,12.52,16.62,20.45Z" />
			</g>
			<circle class="svg-starter-cls-49" cx="216.56" cy="237.46" r="10.59" />
			<g class="svg-starter-cls-48">
				<g>
					<path class="svg-starter-cls-38" d="M210.54,66.67c.14-.1,.79-.49,1.22-.45,.33-.61,.68-2.92,.68-2.92,0,0-.86-1.08-.98-1.08s-1.92,2.39-1.92,2.39l1,2.06Z" />
					<path class="svg-starter-cls-38" d="M202.22,84.67c.22,.26,.24,.36,.52,.49,.06,.51-2.38,1.8-2.49,1.78s-2.3,.07-2.36,0-.13-1.52-.13-1.52c0,0,3.33-.9,3.39-.92s1.07,.17,1.07,.17Z" />
					<path d="M197.43,86.15s.01,0,.02,0c-.07-.04-.15-.07-.22-.1,.07,.03,.13,.07,.2,.1Z" />
					<path class="svg-starter-cls-32" d="M224.37,65.31s3.57,3.09,7.04,3.15c-2.2,.2-3.25,.19-3.75-.23,.83,1.07,1.17,1.97,1.31,2.75-1.17-1.55-5.13-4.9-5.53-5.04,.25-.22,.93-.64,.93-.64Z" />
					<path class="svg-starter-cls-28" d="M200.58,69.36s.67-2.35,1.96-5.12c.17-.35,2.06,.62,2.24,.26,.22-.42-.57-2.22-1.03-2.61,1.34-2.34,3.1-4.62,5.25-5.77,5.1-2.73,10.45-2.71,13.71-.5,3-2.38,3.66,4.24,3.29,5.43,.89,1.12,2.39,3.96,1.71,5.42s-1.61,2.96-4.26,2.78c-2.65-.19-9.4-.84-10.29-1.28-.89-.44-2.13-1.37-1.41-4.24-.57,.24-1.21,2.21-1.15,2.89-2.49,1.61-3.83,3.26-4.58,4.31-2.34-.42-6.88,1.12-6.88,1.12l1.45-2.69Z" />
					<path class="svg-starter-cls-24" d="M218.62,64.64c.03-.93-.5-4.32-3.32-5.41-1.3-.17-1.88,1.2-1.68,2.2,.3,1.52,1.47,3.37,5,3.21Z" />
					<path class="svg-starter-cls-59" d="M213.98,61.38c-.14-.73,.24-1.8,.96-2.06-1.01,0-1.39,1.27-1.22,2.13,.26,1.37,1.54,3.23,4.63,3.08,0-.02,0-.04,0-.06-2.77-.01-4.11-1.78-4.36-3.09Z" />
					<path d="M215.18,61.77c.59,.89,1.54,1.29,1.54,1.29,0,0-.01-1.03-.6-1.92s-1.54-1.29-1.54-1.29c0,0,.01,1.03,.6,1.92Z" />
					<path class="svg-starter-cls-24" d="M223.24,56.72s1.83,2.64,2.19,3.76c.48-1.65-.79-6.04-2.19-3.76Z" />
					<path class="svg-starter-cls-19" d="M223.25,56.74s0,.01,.02,.03c1.19-1.52,2.23,1.71,2.04,3.44,.02,.06,.05,.12,.07,.18,.47-1.61-.77-5.86-2.12-3.65Z" />
					<path class="svg-starter-cls-38" d="M226.35,64.45c-.05-.16-.11,1.42-.11,1.42,.11,.18,.57,.2,.11-1.42Z" />
					<path class="svg-starter-cls-38" d="M223.68,66.29s.63,.94,1,.99c.35-.38-.35-.49-1-.99Z" />
					<path class="svg-starter-cls-38" d="M217.75,59.43c-1.95-2.06-4.97-3.58-4.93-.97,.82-1.71,3.87,.16,4.93,.97Z" />
					<path d="M224.84,59.26c.02-.19,.02-.39,0-.6-.1-.89-.66-1.56-.66-1.56,0,0-.14,.27-.23,.68,.21,.4,.42,.57,.89,1.48Z" />
					<path class="svg-starter-cls-28" d="M202.67,85.13c.68,.27,1.89,1.5,2.7,2.77,.73,1.14,2.43,3.38,7.47,3.38,8.19,0,16.13-16.38,29.8-12.42,6.2,1.8,9.11,10.82,8.51,14.09-1.49,8.19-7.24,11.44-13.22,11.44-6.57,0-7.44-4.28-14.88-4.28-2.72,0-6.08,1.4-6.64,3.1-.92,2.83,2.36,6.82,4.71,2.29,.43,2.79-1.8,3.22-2.73,3.22s-3.84-1.55-3.84-5.15c0-2.67,2.84-6.31,10.98-6.64,8.3-.33,9.23,2.19,12.28,2.36,3.72,.2,8.5-4.46,6.2-9.36-2.29-4.9-7.26-6.3-10.73-3.1-4.03,3.72-10.42,12.59-24.56,10.85-6.93-.85-11.8-7.38-12.17-11.04,2.04-.32,5.51-1.27,6.12-1.53Z" />
					<path class="svg-starter-cls-37" d="M195.66,83.75c0-1.44,3.2-11.58,3.2-11.58l-.67,.44s-3.05,8.28-3.29,9.27c-.3,1.23-.3,2.87,.76,1.86Z" />
					<path class="svg-starter-cls-45" d="M205.93,70.81c.75-1.05,2.09-2.69,4.58-4.31-.02-.18,.02-.46,.09-.78-1.96,1.42-3.09,2.81-3.75,3.74-2.34-.42-6.88,1.12-6.88,1.12l1.45-2.69s.47-1.66,1.39-3.83c-.18-.03-.31-.02-.35,.06-1.29,2.77-1.96,5.12-1.96,5.12l-1.45,2.69s4.54-1.55,6.88-1.12Z" />
					<path class="svg-starter-cls-45" d="M246.09,88.18c-2.39-5.11-7.96-6.26-11.19-3.23-.35,.33-.73,.7-1.13,1.1,3.56-2.61,8.28-1.04,10.54,3.77,1.22,2.61,.52,5.15-.97,6.99,2.57-1.71,4.4-5.11,2.76-8.62Z" />
					<path class="svg-starter-cls-45" d="M209.98,95.76c-5.69-.7-9.86-5.6-10.88-9.01-.64,.15-1.27,.27-1.79,.36,.34,3.34,4.79,9.3,11.11,10.08,9.78,1.2,15.49-3.15,19.29-6.81-3.77,3.26-9.21,6.43-17.73,5.38Z" />
					<path class="svg-starter-cls-45" d="M213.16,66.78c-.75-.63-1.22-1.56-.45-4.36-.55,.41-.86,1.26-1.05,2.09-.32,2.23,.74,3.03,1.54,3.42,.88,.43,7.55,1.08,10.16,1.27,2.39,.17,3.36-1.06,4.02-2.37-.66,.68-1.89,2.13-3.4,2.02-2.61-.18-10.13-1.5-10.82-2.08Z" />
					<path class="svg-starter-cls-45" d="M207.84,58.66c-.83,.34-3.2,3.27-3.72,4.51,.41,.93,1.34,2.17,1.34,2.17-.21-1.27,1.58-6.06,2.37-6.67Z" />
					<path class="svg-starter-cls-38" d="M197.49,89.57c-.32-.58-.64-1.51-.68-1.62,.29-.46,1.75-1.53,2.93-1.96-.35-.01-.8,.08-.8,.08,.81-.34,3.28-1.35,3.28-1.35,0,0-4.02,3.37-4.73,4.84Z" />
					<path class="svg-starter-cls-29" d="M242.55,79.81c-7.85-2.28-13.76,2.62-18.83,6.75,0,.02,0,.05-.01,.07,4.79-3.83,10.39-7.29,17.56-5.21,5.82,1.69,8.33,9.73,7.89,12.82-.23,1.61-1.08,3.73-2.04,4.75,6.18-6.23,1.26-17.49-4.56-19.18Z" />
					<path class="svg-starter-cls-29" d="M219.91,88.33c-2.48,1.89-4.85,3.29-7.24,3.29-5.04,0-6.98-2.43-7.71-3.57-.82-1.27-2.06-2.5-2.74-2.77-.61,.26-1.55,.45-1.72,.5,.5,.8,2.38,2.42,3.2,3.69,.73,1.14,2.43,3.38,7.47,3.38,2.85,0,5.68-1.99,8.73-4.42,0-.03,.01-.07,.02-.1Z" />
					<path class="svg-starter-cls-29" d="M225.99,61.06c.37-1.19-.53-7.9-3.35-5.18-3.26-2.21-8.4-1.84-13.51,.89-.46,.24-.89,.55-1.31,.89,8.05-3.58,13.39-3.57,17.54,2.86,.03-.55-1.93-3.6-2.13-3.79-.16-1.05,.78-1.42,1.33-.91,.98,.89,1.87,3.81,1.24,5.8,.84,1.06,2.2,3.63,1.78,5.15,.04-.09,.09-.17,.13-.26,.68-1.46-.82-4.3-1.71-5.42Z" />
					<path class="svg-starter-cls-23" d="M190.65,90.67l.87-4.21-2.07,.9,2.74-4.2,2.79,1.43-1.07,4.62-.99-1.37-2.28,2.83Zm1.59-5.11l-.63,3.07,1.34-1.66,.71,.99,.71-3.08-2-1.02-1.51,2.32,1.38-.6Z" />
					<polygon class="svg-starter-cls-24" points="192.24 85.57 191.61 88.64 192.95 86.97 193.66 87.96 194.37 84.88 192.37 83.85 190.86 86.17 192.24 85.57" />
					<path class="svg-starter-cls-10" d="M203.93,61.18c.23-7.08,5.39-11.58,14.07-11.61,8.17-.02,17.83,7.96,17.58,15.73-.23,7.08-11.53,9.75-19.57,8.28-6.95-1.28-10.87-4.13-11.85-9.16-.06-.32,.38-.75,.35-1.1-.04-.38-.57-.67-.58-1.07-.01-.35-.01-.71,0-1.08Zm12.45,11.52c7.59,1.39,18.27-1.13,18.48-7.82,.23-7.34-8.89-14.84-16.61-14.82-8.2,.02-13.07,4.24-13.29,10.92-.21,6.69,3.54,10.27,11.41,11.72Z" />
					<g class="svg-starter-cls-55">
						<path class="svg-starter-cls-11" d="M216.34,72.69c7.59,1.39,18.27-1.13,18.48-7.82,.23-7.34-8.89-14.84-16.61-14.82-8.2,.02-13.07,4.24-13.29,10.92-.21,6.69,3.54,10.27,11.41,11.72Z" />
					</g>
					<path class="svg-starter-cls-51" d="M190.39,81.73s.01-.57,.08-1.4c.55,.07,.77-.05,.94-1.14,.13-.83-.3-1.02-.72-1.09,.09-.54,.29-1.42,.42-1.92,.12,.09,1.37,.47,1.37,.47l.13-.42s-1.06-.67-1.26-.79c.14-.41,.31-.77,.49-1.08,.86,.16,2.35,1.34,2.84,1.75l.34-1.19-2.37-1.85s1.03-2.23,1.64-2.8l1.8,.51-1.96-1.06c.25-.51,.5-.95,.71-1.14l3.13,1.48c.2,.1,.39,.22,.55,.37,.08-.16,.17-.34,.26-.52-1.12-.08-2.02-.55-3.59-1.82-1.75-1.41-1.79-4.4-.4-5.77,1.01-1,4.38-1.99,7.27,2.58,0,0,0,.02,.02,.02,.15-.16,.43-.76,.68-.64l.92,.62,2.41,5.55-.17,.63c-.31,.77-.97,2.01-1.29,1.94-.51-.1-1.85-1.59-1.85-1.59l1.03,2.21c-.64,.08-.81,.93-.86,1.38l1.11,.71-.29,1.56-2.97-1.85s.02,.02,.03,.04l2.64,2.43-.47,1.7-3.44-.05s2.42,.93,2.78,.98c-.1,.82-.31,1.23-.31,1.23l-2.78,1.49,3.14-.51-.15,1.95s-2.44,1.12-3.78,1.49c.27-.01,.57-.04,.88-.07-.49,.22-.95,.49-1.38,.82-.46,.27-.85,.61-1.17,1.01-.25-.78-.43-1.56-.51-2.32-.21-.1-.62-.3-.74-.41-.1,.67-.23,1.58-.23,1.58-.93-.46-3.4-2.2-3.87-3.07-.08-.63,.05-1.73,.09-2.16l-.41,.39-.71-.2Zm8.9-12.77s.01-.02,.02-.04l-.51-.38s.23-.46,.35-.54c-.35-.29-.08-.6-.08-.6l.4-.77,.85,.59c.06-.09,.12-.18,.18-.27-.42-.54-.94-1.28-.03-2.4-2.17-2.73-4.16-2.06-4.77-1.74-.77,.39-2.02,2.32,.15,4.76l.88,.15c.69,1.14,1.57,1.42,2.55,1.25Zm-1.86,17.19s.01,0,.02,0c-.07-.04-.15-.07-.22-.1,.07,.03,.13,.07,.2,.1Zm-1.77-2.4c0-1.44,3.2-11.58,3.2-11.58l-.67,.44s-3.05,8.28-3.29,9.27c-.3,1.23-.3,2.87,.76,1.86Z" />
					<path class="svg-starter-cls-42" d="M203.37,60.18l6.03,11.7-2.98,.17-4.95-9.65,1.9-2.22Z" />
					<circle class="svg-starter-cls-2" cx="203.48" cy="63.35" r=".79" />
					<circle class="svg-starter-cls-8" cx="203.49" cy="63.32" r=".73" />
					<path class="svg-starter-cls-17" d="M216.3,51.37c9.65-1.35,15.25,6.11,15.75,8.62-.92-2.24-8.28-9.27-15.75-8.62Z" />
					<path class="svg-starter-cls-58" d="M198.03,70.12l-3.12-1.47c-.21,.19-.46,.63-.7,1.14l1.95,1.06-1.8-.51c-.61,.56-1.63,2.73-1.63,2.73l2.33,1.79-.35,1.35c-.49-.41-2-1.62-2.86-1.78-.19,.3-.32,.59-.47,1,.2,.12,1.25,.82,1.25,.82l-.14,.46s-1.24-.37-1.36-.45c-.13,.5-.3,1.31-.39,1.84,.42,.07,.84,.3,.71,1.13-.17,1.08-.4,1.23-.95,1.17-.06,.83-.07,1.29-.07,1.29l.63,.18,.45-.42c-.04,.43-.13,1.62-.05,2.25,.23,.44,2.95,2.42,3.76,3.03,0-.16,.11-.78,.22-1.58-.28-.11-1.1-.4-1.65-.64-.46-4.07,2.99-10.34,4.63-14.1-.13-.1-.26-.2-.4-.27Z" />
					<polygon class="svg-starter-cls-41" points="206.68 71.27 201.58 62.29 201.46 62.41 206.42 72.05 209.39 71.88 209.01 71.14 206.68 71.27" />
					<path class="svg-starter-cls-40" d="M191.55,75.38c.09-.25,.47-.68,.57-.89-.09-.03-.18-.06-.26-.08-.19,.3-.33,.62-.47,1.02,.2,.12,1.26,.79,1.26,.79h0c.2,.06,.35,.11,.35,.11,0,0-1.25-.84-1.45-.95Z" />
					<path class="svg-starter-cls-41" d="M199.36,86.1c-.06,0-.11,0-.16,.01-.19,.11-.37,.23-.55,.35,.23-.13,.47-.25,.71-.37Z" />
					<path class="svg-starter-cls-40" d="M203.85,73.64v-.03s-.04,.03-.05,.04c.02,0,.03-.01,.05-.01Z" />
					<path class="svg-starter-cls-40" d="M196.78,71.06l-2.11-1.65c.14-.28,.23-.48,.36-.69l-.17-.08c-.21,.19-.42,.58-.66,1.09l2.59,1.34Z" />
					<path class="svg-starter-cls-40" d="M195.25,74.68l-2.08-1.93s.7-1.55,1.3-2.38l-.17-.05c-.62,.57-1.6,2.74-1.6,2.74l2.35,1.82-.35,1.32,.55-1.53Z" />
					<path class="svg-starter-cls-40" d="M191.78,78.96c.13-.83-.27-1-.69-1.07,.07-.4,.31-1.02,.42-1.5-.18-.06-.32-.12-.36-.14-.14,.51-.33,1.32-.42,1.86,.42,.07,.85,.26,.72,1.09-.06,.39-.13,.66-.22,.83,.37-.02,.39-.17,.53-1.07Z" />
					<path class="svg-starter-cls-40" d="M198.14,72.57c.54-.27,.73-.41,.73-.41,0,0-3.15,10.24-3.17,11.58,.13-.03,.28-.12,.47-.3,0-1.44,3.2-11.69,3.2-11.69l-1.23,.83Z" />
					<path class="svg-starter-cls-40" d="M190.96,80.36c-.12,.05-.27,.05-.45,.03-.05,.65-.07,1.31-.07,1.31l.65,.16,.44-.44-.9,.09s.02-.2,.33-1.14Z" />
					<path class="svg-starter-cls-40" d="M201.89,69.93l.74,1.25c.27,.24,1.81,1.72,1.98,1.75,.11,.02,.26-.12,.43-.33-.54-.17-3.14-2.67-3.14-2.67Z" />
					<path class="svg-starter-cls-40" d="M200.43,75.08l2.77,1.8,.49,.3,.1-.55-3.39-1.59s.02,.02,.03,.04Z" />
					<path class="svg-starter-cls-40" d="M200.71,64.43c-2.17-2.73-4.59-2.05-5.08-1.69,.83-.39,2.86-.75,4.89,1.8-.67,.83-.57,1.47-.3,1.96l.34,.48c.06-.09,.13-.23,.19-.32-.42-.54-.95-1.1-.04-2.22Z" />
					<path class="svg-starter-cls-40" d="M199.1,67.42s-.27,.31,.08,.6c-.12,.08-.35,.54-.35,.54,0,0,.27,.21,.54,.35,.02-.01,.03-.05,.05-.1-.13-.09-.27-.2-.38-.3,.13-.16,.26-.38,.35-.5-.2-.07-.26-.35-.2-.48s.52-.66,.52-.66l-.22-.16-.38,.7Z" />
					<path class="svg-starter-cls-40" d="M198.11,86.2c1.41-.35,4.04-1.55,4.04-1.55l.02-.36c-.77,.34-3.69,1.7-4.68,1.97,.19,0,.41-.03,.62-.05Z" />
					<path class="svg-starter-cls-40" d="M195.52,84.55c-.03,.17-.05,.36-.08,.55,.13,.07,.76,.43,.85,.47,.08,.76,.2,1.46,.46,2.24,.13-.16,.28-.31,.43-.45-.23-.73-.34-1.39-.42-2.1-.21-.1-1.12-.6-1.25-.71Z" />
					<path class="svg-starter-cls-40" d="M191.94,83.39c-.08-.63,.05-1.73,.09-2.16l-.48,.18c-.04,.46-.16,1.69-.08,2.3,.46,.87,2.83,2.51,3.75,2.98,0,0,.03-.23,.08-.53-1.1-.65-2.95-1.99-3.36-2.76Z" />
					<path class="svg-starter-cls-40" d="M198.24,83.76l3.67-2.02s.01-.03,.03-.08l-4.24,2.13,.53-.03Z" />
					<path class="svg-starter-cls-40" d="M199.3,79.49l3.64,.03,.09-.32-4.62-.05s.39,.15,.89,.33Z" />
					<path class="svg-starter-cls-40" d="M195.33,67.94c-1.75-1.41-1.68-4.12-.49-5.62-1.39,1.37-1.35,4.36,.4,5.76,.13,.11,.25,.2,.38,.29,1.29,1,2.13,1.41,3.1,1.51,.04,0,.08,.01,.12,.01,.04-.1,.09-.21,.13-.3-1.19,0-2.2-.5-3.64-1.66Z" />
					<polygon class="svg-starter-cls-40" points="202.34 64.64 205.47 71.85 205.96 70.75 202.62 64.31 202.34 64.64" />
					<path class="svg-starter-cls-40" d="M198.58,70.55c-1.04,1.03-5.08,11.44-4.78,13.96-.23-.02-.92-.47-.99-1.08,.11-.74,.28-1.61,.62-2.28-.25-.12-.99-.29-1.38-.26,.04-.29,.09-.59,.13-.87,0-.02,.93-.03,1.41,.09,.11-.63,.23-1.21,.36-1.6,.01-.04-1.9-.74-1.9-.74l.24-.69s2.01,.44,2.02,.41c.06-.16,.11-.31,.17-.44,.02-.05-2.08-1.38-2.08-1.38l.23-.55s2.1,1.35,2.11,1.33c.29-.65,.61-1.32,.94-1.96,.02-.04-1.55-1.41-1.53-1.45,.34-.88,.47-1.07,.93-1.7,.03-.04,2.01,.53,2.01,.53,0,0,.25-.45,.36-.64,.02-.03-1.62-1.15-1.6-1.18,.05-.09,.1-.24,.19-.29,.15,.08,1.84,.81,1.87,.76,.09-.16,.16-.28,.2-.35,.28,.17,.47,.37,.47,.37Z" />
					<path class="svg-starter-cls-40" d="M198.83,69.9s.09-.24,.11-.29c.34-.6,2.57-4.41,3.61-5.21,.36,.48,.39,.78,.39,.78-.64,.59-5.21,6.51-5.33,6.93,.17-.48,.62-1.14,.92-1.62,.2-.33,.3-.6,.3-.6Z" />
					<path class="svg-starter-cls-30" d="M203.01,63.21c0-.2,.1-.38,.24-.5-.26,.09-.45,.33-.45,.62,0,.37,.3,.66,.66,.66,.16,0,.31-.07,.42-.16-.07,.02-.14,.04-.21,.04-.37,0-.66-.3-.66-.66Z" />
					<path class="svg-starter-cls-18" d="M196.62,67.83l-.86-.15c-1.87-2.1-1.26-3.92-.55-4.61-.66,.32-1.78,2.41,.38,4.85l.88,.08c.61,1.01,1.19,1.52,2.61,1.38,.03-.06,.11-.19,.15-.28-1.37,.22-2.13-.47-2.62-1.27Z" />
					<polygon class="svg-starter-cls-18" points="202.84 78.26 202.49 79.47 202.88 79.47 203.32 77.94 200.07 75.05 202.84 78.26" />
					<path class="svg-starter-cls-18" d="M203.2,73.88c.12-.15,.28-.26,.48-.28l-1.5-2.93,1.02,3.22Z" />
					<path class="svg-starter-cls-18" d="M202.35,75.41l1.11,.71-.15,.76,.37,.23,.25-1.31-1.19-.72c.03-.29,.08-.77,.31-1.08-.6,.12-.65,.98-.69,1.42Z" />
					<path class="svg-starter-cls-18" d="M201.64,80.95c-.08,.62-.13,.79-.19,.94l.44-.23s.12-.2,.22-1.02c-.21-.03-2.9-1.05-3.63-1.32,0,0,2.8,1.59,3.16,1.64Z" />
					<path class="svg-starter-cls-18" d="M194.78,86.34c.15,.09,.28,.16,.4,.22,0,0,.14-.93,.21-1.46-.16-.09-.32-.17-.39-.23-.05,.34-.17,1.17-.22,1.48Z" />
					<path class="svg-starter-cls-18" d="M194.33,70.36c-.08,.08-.16,.18-.24,.29l3.06,.54-2.82-.83Z" />
					<path class="svg-starter-cls-18" d="M201.73,83.21l-.13,1.57c.28-.13,.46-.21,.46-.21l.14-1.67-3.34,.54-.63,.34,3.5-.57Z" />
					<path class="svg-starter-cls-20" d="M205.64,70.57l-.28,.69c-.2,.51-.56,1.2-.86,1.61,.01,0,.03,.02,.05,.02,.32,.06,.98-1.17,1.29-1.94l-.19-.38Z" />
					<path class="svg-starter-cls-18" d="M199.26,67.34s.84,.22,1.34,.3c-.11-.14-1.09-.77-1.09-.77l-.25,.47Z" />
					<path class="svg-starter-cls-18" d="M193.19,76.96c-.38-.12-1.94-.53-2.02-.59-.04,.13-.07,.29-.11,.46,.35,.27,2.13,.13,2.13,.13Z" />
					<path class="svg-starter-cls-18" d="M190.8,80.47c-.08,0-.16,0-.25-.01,0,.1-.01,.19-.02,.28,.11-.04,.2-.13,.27-.27Z" />
					<path class="svg-starter-cls-18" d="M194.68,76.28c-.65-.51-2.07-1.62-2.79-1.76-.07,.12-.14,.26-.21,.39,.87,.31,3,1.37,3,1.37Z" />
					<path class="svg-starter-cls-18" d="M201.76,65.26s.01,.02,.02,.02c.09-.09,.06-.13,.2-.29-2.77-4.23-5.93-3.48-7.05-2.54,1.4-.75,4.36-1.1,6.83,2.8Z" />
					<path class="svg-starter-cls-18" d="M194.86,81.94c.24-.99,3.28-9.37,3.28-9.37l-.39,.36s-3.12,8.33-3.36,9.33c-.33,1.38,.17,2.57,1.25,1.59-1.29,.34-1.02-.9-.78-1.9Z" />
					<path class="svg-starter-cls-18" d="M194.7,68.92l.17-.24s2.97,1.5,3.16,1.61,.33,.18,.5,.31c-.99-.29-3.83-1.67-3.83-1.67Z" />
					<polygon class="svg-starter-cls-20" points="209.03 71.89 209.4 71.89 203.37 60.18 201.46 62.41 203.25 60.67 209.03 71.89" />
					<circle class="svg-starter-cls-14" cx="203.73" cy="63.02" r=".21" />
					<circle class="svg-starter-cls-14" cx="203.86" cy="63.53" r=".1" />
					<path class="svg-starter-cls-18" d="M203.18,68.36l-.98-1.22s-3.52,6.8-4.05,11.44c.33-.91,.83-2.31,1.37-3.71-.07-.17-.08-.51-.08-.51,0,0,.13-.06,.33-.11,.6-1.5,1.23-2.93,1.72-3.64-.1-.38,.02-1.21,.02-1.21,0,0,.35,.06,.69,.22,.58-.79,.98-1.26,.98-1.26Z" />
					<polygon class="svg-starter-cls-18" points="207 67.28 204.66 68.23 205.07 68.99 207.46 68.17 207 67.28" />
					<polygon class="svg-starter-cls-18" points="206.71 66.74 204.37 67.68 204.52 67.94 206.94 67.1 206.71 66.74" />
				</g>
			</g>
			<circle class="svg-starter-cls-21" cx="208.46" cy="53.06" r="5.41" />
			<circle class="svg-starter-cls-21" cx="214.58" cy="46.64" r="2.86" />
			<circle class="svg-starter-cls-21" cx="226.77" cy="74.26" r="2.86" />
		</g>
	</g>
</svg>
