<?xml version="1.0" encoding="UTF-8"?><svg id="text" xmlns="http://www.w3.org/2000/svg" viewBox="0 0 710 260"><defs><style>.cls-1{fill:none;}.cls-2{fill:#ffffff;}.cls-3{fill:#e70b77;isolation:isolate;}</style></defs><g id="snake"><g><g><path class="cls-1" d="M377.76,49.84h-19.26V126.3c0,.19,.19,.19,.19,.39v.39c.19,.19,1.17,.39,1.36,.19,0-.39-1.36-1.75-1.17-2.33,.19-.58,1.17-1.95,1.56-1.95,.19,0,.39,.97,.78,1.36,2.33,3.89,4.86,7.59,5.64,12.06q0,.19,.19,.39c.58,1.36,.78,2.92,1.36,4.28,.58,1.36,1.17,2.33,1.75,3.7,.58,1.36,.97,2.33,1.56,3.7,.58,1.36,1.56,3.5,2.14,5.06,.78,1.56,1.56,3.31,2.53,4.47,.39,.39,.78,0,1.17,0s.58-.39,.97-.39,.78-.19,1.36-.39c5.45-1.95,11.09-4.09,16.54-6.23,.78,.97,1.75,1.95,2.53,3.11,.19-2.14,.19-4.09,.39-6.23v-4.28h-21.4V49.84h-.19Z"/><path class="cls-1" d="M202.85,125.91l-7.59,19.85c7.98-7,16.54-13.62,24.9-19.85h-17.32Z"/><path class="cls-1" d="M75.99,17.93c-6.03,0-10.7,4.67-10.7,10.7s4.67,10.7,10.7,10.7,10.7-4.67,10.7-10.7-4.47-10.7-10.7-10.7Zm0,14.79h0c-1.17,0-2.14-.39-2.92-1.17-.78-.78-1.17-1.75-1.17-2.92,0-2.33,1.75-4.28,4.28-4.28,2.33,0,4.28,1.75,4.28,4.28-.19,2.33-1.95,4.09-4.47,4.09Z"/><polygon class="cls-1" points="213.55 94.98 225.23 94.98 246.82 94.98 230.09 50.62 213.55 94.98"/><path class="cls-1" d="M418.23,145.57c.58-.78,.58-.97,1.17-1.56,.19-.19,.19-.39,.39-.39h-1.56v1.95Z"/><path class="cls-1" d="M290.21,145.18q0,.58-.39,.58h-.39v.39c.19,.19,.39,.39,.39,.58v.97h.19l-.19,.19v-.39h-.39c.19,.97,.58,1.75,.58,2.72,3.11,7.2,5.84,14.79,8.17,22.37,.19-.39,.39-.97,.58-1.36,.97-3.11,1.75-6.23,1.95-9.53v-9.14h0v-5.64c0-1.17-.19-2.33-.39-3.5h-10.9c.19,.58,.58,1.17,.78,1.75Z"/><path class="cls-1" d="M640.81,39.33c6.03,0,10.7-4.67,10.7-10.7s-4.67-10.7-10.7-10.7-10.7,4.67-10.7,10.7,4.48,10.7,10.7,10.7Zm0-14.98c2.33,0,4.28,1.75,4.28,4.28,0,2.33-1.75,4.28-4.28,4.28-1.17,0-2.14-.39-2.92-1.17-.78-.78-1.17-1.75-1.17-2.92-.19-2.72,1.56-4.47,4.09-4.47Z"/><path class="cls-1" d="M355.39,149.46c-.19,.39-.19,.97-.39,1.17-.97,1.95-2.14,3.89-2.92,5.84-.78,1.95-1.56,3.89-2.14,5.84-.19,.78-.58,1.56-.78,2.14-.19,.58-.78,1.56-.58,2.14,0,.19,.78-.19,1.17-.19,.19,0,.78-.19,1.17-.19,1.95-.39,3.89-.78,5.64-1.17,1.95-.39,3.7-.97,5.64-1.56-.97-2.33-2.14-4.47-3.11-6.81-1.36-2.53-2.53-4.86-3.7-7.2Z"/><path class="cls-2" d="M189.43,151.01l-42.22-42.41L191.76,6.45H11.79V24.55l28.41,19.85L6.34,73.97H88.06l-22.37,48.25,25.29,26.07L11.79,252.96l177.44-96.5c-.58-1.36-.97-2.72-1.17-4.09,.39-.39,.97-.78,1.36-1.36ZM75.99,39.33c-6.03,0-10.7-4.67-10.7-10.7s4.67-10.7,10.7-10.7,10.7,4.67,10.7,10.7-4.47,10.7-10.7,10.7Z"/><path class="cls-2" d="M644.32,122.22l-22.37-48.25h81.72l-33.85-29.57,28.41-19.85V6.45h-180.17l44.56,101.56-45.53,46.5,182.7,99.23-80.74-105.65,25.29-25.88Zm-3.5-104.29c6.03,0,10.7,4.67,10.7,10.7s-4.67,10.7-10.7,10.7-10.7-4.67-10.7-10.7,4.48-10.7,10.7-10.7Z"/><path class="cls-2" d="M463.76,129.22v-.39c0-.19-.58-.97-.58-1.17,.19-.97,1.36-2.53,1.95-3.11l.78-.78c-1.56,0-2.14-1.75-.58-2.33,4.86-1.75,9.73-3.31,14.4-5.45-.78-.39-.97-1.36-.19-1.95,1.95-1.17,4.47-1.56,6.62-2.14,2.14-.58,4.28-1.36,6.42-1.95,.58-.19,1.36-.39,1.95-.58,6.03-2.92,12.26-5.64,18.48-8.17,.39-.19,.39,.19,.78,0,.39-.19,.97-.58,1.56-.78,.58-.39,.97,.39,1.36,.39,.78,0,1.75-.58,2.53-.97,3.89-1.75,7.98-3.5,12.26-4.09,.39,0,.58,.19,.78,.39h.39c.39-.19,.97,.39,.97,.78s.19,0,.39,0,.78,.39,.78,.39c0,0,.58-.19,.39-.39-.78-.97-.19-2.33,.78-2.33s.97,.39,1.36,.97c2.14-.78,4.09-1.56,6.23-2.33-.19,.58-.58,1.56-.78,1.95-.19,.39-.58,.39-.97,.58-1.56,.78-3.31,1.56-4.86,2.53-.78,.39-1.75,.97-2.33,1.17q-.39,.19-.58,.39c-1.56,.78-3.11,1.56-4.28,2.33-.19,.19,.19-.19,.58,.19,.39,.19,1.95,.39,1.95,1.75,.19,1.36-.97,2.72-2.53,2.33-.78-.19-1.56,0-1.95-.19h-.19c0,.19,1.17,.78,1.75,.78,.39,0,1.95-.39,1.95-.19s.19,1.36,0,1.56c-.39,.58-1.75,.78-2.53,1.56-.97,.78-.39,2.53,.58,2.53s1.56,0,1.95-.39c.39-.19-.19-.39,.19-.78,.19-.39,.39-.39,.78-.78,.39-.39,.78-.78,1.36-.58,.58,.19,.78,.58,.97,1.17,.19,.58-.39,1.36-.78,1.56-.39,.19-.19,.19-.39,.19h-.78c-.19,0,0,0,0,0,.19,0,0,0-.19,0s-.19-.19-.39-.19-.19-.58-.39-.39c-.97,.78,0,2.14,.97,2.33,.78,.19,1.36-.19,1.95,0,.58,0,1.36-.39,1.56-.19,.19,.19-.19,1.36-.58,1.75-.39,.39-1.95,.78-2.53,.97-2.53,.97-5.25,1.75-7.78,2.92-.78,.39-.78,.78-.58,1.56-4.09,1.36-8.17,2.72-12.26,4.28-5.25,2.14-10.7,4.28-15.76,6.62-4.09,1.95-8.37,4.09-12.45,6.23-.19,0,0-.19,0,.58,0,.39-.58,2.72-.97,4.86l35.22,.19,35.8-35.41-6.81-15.76h-36.38V6.26h-49.42l-.78,136.78h2.92c0-4.47-.19-9.14,0-13.81Z"/><path class="cls-2" d="M338.46,139.34c3.31-4.47,4.47-9.53,6.62-14.59,.39,.19,.78,.19,1.17,.39,2.33,1.17,4.67,2.33,7,3.31,1.36,.58,2.72,.19,3.31-.78,.78-.97,.78-1.36,1.56-2.14v.19c.19,0,.19,.19,.39,.39V49.84h19.26v93.59h21.4c0-1.95-.19-3.7-.19-5.64,0-.97,.78-1.75,.78-3.11-.19-1.36,0-3.7-.19-5.45v-1.95c-.19-.58,0-.97,0-1.36,.39-3.7,.58-7,5.06-7,1.75-1.56,3.7-2.72,5.45-4.28,1.17-.97,1.56-2.33,2.53-3.5,1.17-1.17,3.11-.39,2.53,1.56,1.17,0,1.95-.19,1.95,1.36,.19,1.56-.78,3.5-.19,5.06,.58,2.33,1.36,4.09,1.36,7s.19,6.81,.19,9.73v7.59h1.56c.58-.78,1.36-1.75,1.95-2.33,.78-.97,1.36-1.75,1.95-2.72,1.75-2.72,2.14-3.7,4.47-6.42V49.84h24.52V6.26h-195.73l17.51,43.58h33.66l.19,72.38c2.33,2.53,4.47,5.25,6.81,7.98l.78,.58c.58-.19,1.17,0,1.56,.39,2.72,2.72,4.47,6.42,4.47,10.31,0,.78-.19,1.36-.19,2.14h14.59c.39-1.36,.58-2.72,1.36-3.7,.19-.19,.58-.39,.58-.58Z"/><path class="cls-2" d="M268.42,138.76c5.64-5.06,10.7-10.51,15.37-16.54l.78-.58c.19,.19,.39,.39,.39,.58,0,.39,.19,.58,.39,.97h.19c.78,0,1.56,.58,1.56,1.36,.58,6.03,1.17,12.06,2.14,17.9,.19,.39,.19,.58,.39,.97h10.9c0-.97-.19-1.95-.19-2.92,.39-.78,.78-1.56,.97-2.33-.58-.39-.97-.97-.78-1.56,.19-.78,.19-1.75,.39-2.53L247.8,6.26h-47.67l-.39,.78c-7,16.73-14.2,33.66-21.01,50-7,16.34-14.01,33.08-21.21,50l-.39,.78,37.75,38.33,.19-.19,7.59-19.85h17.32c.19-.19,.58-.39,.78-.58,4.67-3.5,9.53-7,14.01-10.31,4.47-3.5,9.34-6.81,14.4-9.73,1.17-.58,1.95,.78,1.17,1.56-4.09,3.7-8.95,6.81-13.42,10.12-.39,.39-.97,.58-1.36,.97l1.95-.97c1.75-1.56,3.7-2.72,5.64-3.89l4.47-2.72c.39-.58,.97-.97,1.56-1.17h.58c2.14-1.36,4.28-2.72,6.62-4.09,0-.58,.39-1.17,.97-1.17,.39-.19,.78-.19,1.17,0,.39-.19,.97-.19,1.36,0l4.47-3.11c-.39,.39-.97,.78-1.17,1.17v.58c-.78,.58-1.75,.97-2.53,1.56,.39,.19,.58,.78,.58,1.17,.39,0,.78,.19,1.17,.39,.39,.19,.58,.78,.58,1.17,.39,.39,.39,.97,0,1.56,.39,.19,.58,.78,.58,1.17l.58-.19h0c.78-.19,1.56,0,1.75,.78l1.17-1.75h.19c.58,0,1.17,.58,.97,1.36-.58,.78-.97,1.75-1.36,2.53,.78,0,1.17,.58,1.36,1.17v.97c0,.19-.19,.39-.39,.58-.39,.39-1.17,.39-1.56,0-.19,1.56-.78,3.11-1.95,4.47,0,.19-.19,.19-.39,.19,0,.58,.39,1.36,.97,1.75,.19,.97,.78,1.75,1.56,2.14v-.39l-4.86,2.53c-4.47,3.31-9.14,6.42-13.81,9.34l3.31,8.37h14.79v-.19c.78-1.75,1.56-3.11,2.53-4.67Zm-43.19-43.78h-11.67l16.73-44.36,16.73,44.36h-21.79Z"/></g><path class="cls-3" d="M168.61,234.09l3.31-2.14c-.39,.58-.97,.97-1.75,1.36l-1.56,.78ZM543.73,92.64c-.19,.58-.58,1.56-.78,1.95s-.58,.39-.97,.58c-1.56,.78-3.31,1.56-4.86,2.53-.78,.39-1.75,.97-2.33,1.17q-.39,.19-.58,.39c-1.56,.78-3.11,1.56-4.28,2.33-.19,.19,.19-.19,.58,.19,.39,.19,1.95,.39,1.95,1.75s-.97,2.72-2.53,2.33c-.78-.19-1.56,0-1.95-.19-.39-.19-.19-.19-.19,0s1.17,.78,1.75,.78c.39,0,1.95-.39,1.95-.19s.19,1.36,0,1.56c-.39,.58-1.75,.78-2.53,1.56-.97,.78-.39,2.53,.58,2.53s1.56,0,1.95-.39c.39-.19-.19-.39,.19-.78,.19-.39,.39-.39,.78-.78,.39-.39,.78-.78,1.36-.58,.58,.19,.78,.58,.97,1.17,0,.58-.39,1.36-.78,1.56-.39,.19-.19,.19-.39,.19h-.78c-.19,0,0,0,0,0,.19,0,0,0-.19,0s-.19-.19-.39-.19-.19-.58-.39-.39c-.97,.78,0,2.14,.97,2.33,.78,.19,1.36-.19,1.95,0,.58,0,1.36-.39,1.56-.19,.19,.19-.19,1.36-.58,1.75-.39,.39-1.95,.78-2.53,.97-2.53,.97-5.25,1.75-7.78,2.92-.78,.39-.78,.78-.58,1.56-4.09,1.36-8.17,2.72-12.26,4.28-5.25,2.14-10.7,4.28-15.76,6.62-4.09,1.95-8.37,4.09-12.45,6.23-.19,0,0-.19,0,.58s-1.95,8.37-1.36,8.56c2.53,1.17,5.45-.39,7.98-.58,1.56-.19,3.89-.78,5.45-1.17,1.36-.19,2.53-.58,3.5-.97,.97-.19,1.17,.19,1.56,.39,.39,.19,.19,.19,.39,.19s0-.19,.19-.39c.78-1.36,2.53-1.36,3.11,.19,.19,.39,.39,.58,.39,.97-.19,1.56-.19,2.92-.19,4.47,0,0-.19-.19,0,0s1.36,0,1.75,.19c.39,.19,.78,1.36,.97,1.95,.19,.58,.58,1.56,.19,2.33-.39,.97-1.95,2.14-2.72,3.11-.19,.19-.39,0-.39,.58v2.53c0,.78-.39,.97-1.17,1.56-.78,.39-1.95,.78-2.53-.39,0,0,0,.19-.39,.19s-1.36,.58-1.75,.58c-.19,0-.19,.19-.39,.19-1.36,.58-2.92,.97-4.47,1.17h-1.17c-.19,0-.39,0-.78,.19-.39,.19-1.17,.39-1.95,.19-.78-.19-1.56,.39-2.33,.58-.78,.19-1.95-.39-2.92-.19-.97,.19-1.56,0-2.33,0,.19,2.14,0,4.47,0,6.42v5.84c1.17,.19,1.95,.58,3.31,.39,1.36-.19,2.92-.58,4.28-.97,1.36-.39,2.53-.58,4.28-1.17,1.56-.58,3.7-.19,5.45-.97,1.36-.39,2.92-1.95,4.67-2.14,1.75-.19,3.31-1.36,5.06-1.95,.58-.19,1.17,.58,1.75,.97,.39,.39,.97,.97,1.56,1.56,.39,.39,.97,.78,1.56,1.17,.39,.39,1.17,.19,1.56,.39,.39,.19,.78,.58,.78,.97-.39,1.56-.58,2.33-1.17,4.09-.58,1.75-.78,5.06-1.17,7.2-.19,.58-1.17,.97-1.95,1.36-1.36,.97-3.5,1.75-5.25,2.33,1.95-.39,3.89-1.17,5.84-1.17s1.95,2.33,.39,2.92c-2.92,.97-6.62,1.56-9.34,2.53-2.92,.97-4.86,1.75-7.78,2.53-2.72,.78-6.62,1.36-9.34,1.95-2.72,.58-5.25,1.36-7.59,1.95-2.33,.58-4.09,1.17-5.84,1.56-1.95,.39-2.72,1.17-4.67,.97-1.95-.19-2.33-2.14-2.53-3.7,0-.19-.19-.19-.19-.19-1.56-1.95-1.36-4.67-1.17-7v-1.75c0-.39,0-.19,0-.19-1.36-1.95-1.56-3.5-.97-5.64,0-.19,.39-.39,.39-.58,0-1.36-.19-2.53-.19-3.89-2.33,.39-4.67,.58-7,.78-.78,0-1.56,.19-2.33,.39-1.95,.19-4.09,.19-5.84,0-1.95-.19-3.31-.39-5.25-.78,0,0,0-.19-.39-.19-.39-.19-2.14-.58-2.72-.78-.58-.19-.39,0-.97,0-.58-.19-.78-.39-1.56-.58-4.28-.97-8.56-1.95-12.65-3.89-.97-.39-1.95-1.17-2.92-1.95-1.36,2.53-2.72,5.25-3.89,7.78-.39,.97-.58,1.75-.78,2.72-.58,2.33-1.17,4.47-1.95,6.62-.78,2.14-2.14,3.7-3.7,5.25-.19,.19-.58,0-.78,.19-1.75,3.11-2.92,6.42-4.86,9.53-.97,1.75-3.11,.19-2.53-1.56,.19-.78,.78-1.36,.97-2.14,0,0,0-.19,0,0-.19,.39-1.17,1.95-1.56,2.53-.19,.58-.78,.58-.97,.78l-.19,.19c-1.56,1.17-2.92-.19-2.33-1.75,.19-.58,.78-.97,.78-1.36,.19-1.56,.39-3.11,.39-4.47,0-.39-.39-.78-.19-1.17,0-.39,.19-.78,.19-1.36-.19-3.31-.58-6.62-.97-9.92h-.19c0-.19,.19,0,.19-.39,0-.19,0-.97-.19-1.36,0-.39-.19-.39-.39-.58-.19-.39-.58-.78-.58-1.17-.19-.39-.39-.97-.19-1.36,.19-.19,.78-.19,.97-.39v-.19c0-.19-.58-.58-.58-.78s-.19-.19-.39-.39c-.19-.19-.19-.58,0-.78,.19-.39,.78,.19,.58-.58-.39-3.7-.19-8.37-.58-12.26-1.75,.58-7.78,3.7-8.56,4.28-2.92,2.33-5.25,.97-7.59,2.33-.58,.39,.39,.78,.39,1.36s.39,.58,.58,1.36c.19,.58,.78,2.14,1.17,2.92,1.17-.39,1.95,.58,1.95,1.56s-.58,2.14-.78,2.72c-.19,.58,0,.19,0,.58s0,.19-.19,.58c0,.39-.39,1.36-.19,1.75,0,.39,.19,.58,0,.78-.19,.39-.39,.39-.39,.78-.19,.19-.19,.58-.39,.97-.58,1.36-1.36,2.53-2.14,3.89-.19,.39-.58,.58-.78,.97-.97,2.14-1.95,3.89-2.92,6.23-.97,2.33-1.36,5.06-3.11,7-.39,.39-.97,.19-1.17-.19-1.17-6.62-2.33-13.04-4.09-19.65l-.19-.19c-.19-.19-1.36-.58-1.75-.58s0-.19-.39-.39c0,0,.19,.39,0-.19-.19-.78-.97-2.92-1.36-3.89-.97,.19-2.14,.58-3.11,.97-3.89,1.36-7.59,2.92-11.28,4.67v.19c0,1.36-1.36,2.33-2.53,.97-1.17-1.36-2.14-4.09-3.11-5.84,0,.97,0,2.53-.19,3.5-.19,3.5-.58,6.62-1.17,9.92-1.36,7.39-2.53,14.4-1.95,21.79,.19,1.36-1.56,1.75-2.53,.97-2.72-2.14-5.06-4.47-7.59-7-1.56,.39-3.11-.39-3.89-1.36-.78-.97-.78-1.56-1.17-2.53,0-.19,0,.19,0,.19v1.17h0s0-.19-.19-.19c0,0,0,.19-.19,.19h0v.39h-.19v-.58c0-.19-.19-.78-.19-.97v-.39c-.19,0,0,0,0,0v-1.17h0v-.97h0v2.14h0v-.58c0-.19,0,0,0,0h0v-.39h0v-4.47h0v-1.36h.19c.19,0,0,.19,0,.19v-.97s0-.39,.19-.39h0v.19h0v.78c0,.19-.19,0-.19,0,0,.19,0,.58,.19,.58v.19h0v3.11c0,.19,0,.78,.19,.97,0,.19,0,0,0,0v-.97c0-.19,0,0,0,0h0v-.19c0-.19,0,.19,0-.19v-2.33c0-.39,0,0,0-.19v-1.17s-.19,0,0-.19v-.39h0v-.97h0v-.19h0v-.19h0v-2.33h0v-.19h0v-.78c0-.19,0,0,0,0v-2.14h0v-.19c0-.19,.19,0,0-.39-.19-.19-.78-.78-1.17-.78,.39-.39,.58-.78,.97-1.17,0-.58-.39-1.36-.39-1.95,.19-4.09,1.17-7.78,2.14-11.48,.19-.58,.39-1.56,.39-1.95s0,0,0-.19,0,0,0,0c0-.19,0-.39,.19-.58h0v-.39h0v-.39h0v-1.36s-.19-.19,0-.19h0v-.19c0-.19,0,0-.19,0v-.58h0v-.39h0v-.39c0-.19,.19-.78,.19-.78,0-.19,0,.19,0,0v-.58h0v-.19s.19-.19,.19-.39v-.97h0v-.19h0v-.19h0c0-.19,0,.19,.19-.19,.19-.39,.19-1.17,.39-1.95,.19-.97,.58-2.53,.78-3.7,.19-1.17,.58-2.53,.78-3.7,0-.19-.19-.58-.19-.78v-.97c.39-.97,.97-2.72,1.17-3.5,.19-.78,.39-.39,.19-.97-.19-.58-.78-.78-.19-1.75,.39-.97,1.17-2.72,1.75-4.09,0-.19,.19-.39,.19-.58,.39-1.36,.58-2.72,1.56-3.89,0-.19,.39-.19,.58-.39,3.31-4.47,4.47-9.53,6.62-14.59,.39,.19,.78,.19,1.17,.39,2.33,1.17,4.67,2.33,7,3.31,1.36,.58,2.72,.19,3.31-.78,.78-.97,.78-1.36,1.56-2.14v.19s.58,.58,.58,.78v.39c.19,.19,1.17,.39,1.36,.19,0-.39-1.36-1.75-1.17-2.33,.19-.58,1.17-1.95,1.56-1.95,.19,0,.39,.97,.78,1.36,2.33,3.89,4.86,7.59,5.64,12.06q0,.19,.19,.39c.58,1.36,.78,2.92,1.36,4.28,.58,1.36,1.17,2.33,1.75,3.7,.58,1.36,.97,2.33,1.56,3.7,.58,1.36,1.56,3.5,2.14,5.06,.78,1.56,1.56,3.31,2.53,4.47,.39,.39,.78,0,1.17,0s.58-.39,.97-.39,.78-.19,1.36-.39c5.45-1.95,11.09-4.09,16.54-6.23,.78,.97,1.75,1.95,2.53,3.11,.19-2.14,.19-4.09,.39-6.23,.19-3.31-.19-6.62-.19-9.92,0-.97,.78-1.75,.78-3.11-.19-1.36,0-3.7-.19-5.45v-3.31c.39-3.7,.58-7,5.06-7,1.75-1.56,3.7-2.72,5.45-4.28,1.17-.97,1.56-2.33,2.53-3.5,1.17-1.17,3.11-.39,2.53,1.56,1.17,0,1.95-.19,1.95,1.36,.19,1.56-.78,3.5-.19,5.06,.58,2.33,1.36,4.09,1.36,7s.19,6.81,.19,9.73v9.73c.58-.78,.58-.97,1.17-1.56,.58-.78,1.56-1.95,2.14-2.92,.78-.97,1.36-1.75,1.95-2.72,1.75-2.92,2.14-3.89,4.86-6.81,2.72-3.11,7.59-8.95,10.51-12.45,.58-.78,.78-.19,1.17-.39,.39-.19,.78,.39,.97,.19,.19-.19-.39-.58-.58-.58s-.78-.58-.39-.78c.58-.39,1.56-1.17,2.14-1.56,.58-.39,1.36-1.56,1.95-1.56,.78,0,1.56,1.17,2.14,1.56,.58,.58,1.75,.58,2.53,.97,.78,.19,.97,1.17,1.75,1.56,.78,.19,1.17,.58,1.75,.97,.58,.39,1.17,.58,1.56,1.17,.58,.58,1.17,1.56,1.17,2.33s-.19,1.17-.39,1.95c-.19,.78,.19,1.36-.19,2.33-.97,1.75-1.36,2.33-3.11,4.47-1.75,2.14-6.81,8.17-8.56,10.31-1.75,2.14-2.14,2.33-3.5,3.89-1.36,1.56-2.33,2.72-3.5,4.28-.39,.58-.39,1.17-.78,1.56-.39,.39-.78,1.17-1.17,1.56-.39,.39-.97,1.17-.97,1.56l-.19,.19c1.36,1.95,2.92,4.28,4.47,5.84,1.56,1.56,3.11,2.33,4.67,3.7,.19,.19,.39,.19,.78,.19s.58,.78,.97,.78c2.14,.19,4.86,0,7-.19,4.09-.39,7.98-1.17,12.06-1.95,.39,0,.78-.19,.97-.39-.39-11.09-.78-22.18-.39-33.47v-.39c0-.19-.58-.97-.58-1.17,.19-.97,1.36-2.53,1.95-3.11l.78-.78c-1.56,0-2.14-1.75-.58-2.33,4.86-1.75,9.73-3.31,14.4-5.45-.78-.39-.97-1.36-.19-1.95,1.95-1.17,4.47-1.56,6.62-2.14,2.14-.58,4.28-1.36,6.42-1.95,.58-.19,1.36-.39,1.95-.58,6.23-2.92,12.26-5.64,18.48-8.17,.39-.19,.39,.19,.78,0,.39,0,.97-.58,1.56-.78,.58-.39,.97,.39,1.36,.39,.78,0,1.75-.58,2.53-.97,3.89-1.75,7.98-3.5,12.26-4.09,.39,0,.58,.19,.78,.39h.39c.39-.19,.97,.39,.97,.78s.19,0,.39,0,.78,.39,.78,.39c0,0,.58-.19,.39-.39-.78-.97-.19-2.33,.78-2.33s.97,.39,1.36,.97c2.72-2.14,4.86-2.92,6.81-3.7Zm-181.72,70.63c-.97-2.33-2.14-4.47-3.11-6.81-1.17-2.33-2.33-4.67-3.5-7-.19,.39-.19,.97-.39,1.17-.97,1.95-2.14,3.89-2.92,5.84-.78,1.95-1.56,3.89-2.14,5.84-.19,.78-.58,1.56-.78,2.14-.19,.58-.78,1.56-.58,2.14,0,.19,.78-.19,1.17-.19,.19,0,.78-.19,1.17-.19,1.95-.39,3.89-.78,5.64-1.17,1.75-.58,3.5-1.17,5.45-1.75Zm-39.89-21.79c-.39,4.47-1.17,8.95-1.75,13.42-.78,5.84-1.56,11.67-2.14,17.32-.19,1.75-.58,3.7-.58,5.84-.39,1.95-.58,4.09-.58,6.03-.39,.58-.78,.97-.97,1.56-.19,8.17-3.11,23.15-4.09,31.32,0,.39-.19,.97-.58,1.17-.58,.39-1.56,.19-1.95-.39-1.56-1.95-3.11-3.7-5.06-5.45-2.33-3.11-4.28-6.23-6.03-9.53-.97-1.95-7.78-15.37-8.95-17.9-.19-.39-.39-.58-.78-.58v-.97c0-1.36-3.89,1.36-4.09,2.14l-.39-.78-5.45,30.55c0,.39-.39,.78-.78,.97-.78,.39-1.56,.19-1.95-.58-1.17-2.72-2.72-5.45-4.09-7.98-.39-.39-.97-.58-1.36-.97-1.17-1.17-2.14-2.53-3.11-3.89-.97-1.56-2.14-3.31-2.72-4.47-.58-1.17-1.36-2.33-1.95-3.31-1.17-1.56-1.95-3.11-2.53-5.06,0-.58,.19-.97,.58-1.17,.39-1.95,.78-4.09,1.17-6.23h0c-.19,0-.58-.19-.58-.58,.19-3.89,.97-7.78,1.95-11.48l2.53-11.67c1.17-5.06,2.14-10.31,3.11-15.57l-.78,.97c-.19,.19-.39,.39-.78,.58-.19-.78-.97-1.56-1.75-1.75v-.19c.97-1.56,1.95-2.92,2.92-4.47,5.64-5.06,10.7-10.51,15.37-16.54l.78-.58c.19,.19,.39,.39,.39,.58,0,.39,.19,.58,.39,.97h.19c.78,0,1.56,.58,1.56,1.36,.58,6.03,1.17,12.06,2.14,17.9,.39,.78,.78,1.75,1.17,2.72q0,.58-.39,.58h-.39v.39c.19,.19,.39,.39,.39,.58v1.17l.19-.19c-.39-.19-.58,0-.58,0h0c.19,.97,.58,1.75,.58,2.72,3.11,7.2,5.84,14.79,8.17,22.37,.19-.39,.39-.97,.58-1.36,.97-3.11,1.75-6.23,1.95-9.53v-1.36c.19,0,0,0,0,0h0v-.19h0v-1.36s0,.58,0,0v-1.75h0v-.39h0v-2.53h0v-.58h0v-.78h0v-.58s0,.19,0,0v-1.17h0v-2.14h0v-.19s0,.39,0,0v-1.36c-.19-1.95-.39-4.28-.39-6.42,.39-.78,.78-1.56,.97-2.33-.58-.39-.97-.97-.78-1.56,.78-4.67,1.36-9.34,2.14-14.2h0v-.39h0l.58-4.09c0-.39,.19-.78,.58-.97,4.09,4.09,7.78,8.56,11.67,13.04l.78,.58c.58-.19,1.17,0,1.56,.39,2.14,2.72,3.89,6.42,3.89,10.31Zm-55.06-33.47c.58,0,1.17,.58,.97,1.36-.58,.78-.97,1.75-1.36,2.53h0c.78,0,1.17,.58,1.36,1.17v.97c0,.19-.19,.39-.39,.58-.39,.39-1.17,.39-1.56,0-.19,1.56-.78,3.11-1.95,4.47,0,.19-.19,.19-.39,.19,0,.58,.39,1.36,.97,1.75,.19,.97,.78,1.75,1.56,2.14v.19l-4.86,2.53c-7.2,5.45-14.98,10.12-22.37,14.98-5.84,3.89-11.87,7.78-17.9,11.67,0,.19,.19,.39,.39,.58,2.92,1.56,6.23,2.72,9.34,3.31,3.11,1.17,6.23,2.72,8.95,4.47,2.72,1.75,5.06,3.89,7,6.42,.97,1.36,1.75,2.92,2.53,4.47l1.36,2.72c.78,1.75,1.36,3.5,1.56,5.25,.39,3.31,.19,6.81-.58,9.92-.78,3.11-1.95,6.23-3.7,8.95l-1.17,1.75h0c.19,.19,0,.58-.19,.78-.97,.58-1.95,1.17-2.72,1.75-.78,.78-1.75,1.56-2.92,2.33l-1.17,.97c-1.17,.97-2.53,1.75-3.7,2.72l-2.33,1.95c-1.36,.97-2.72,1.75-4.28,2.53-2.72,1.75-5.45,3.31-8.37,4.47h0c-.58,.39-1.17,.97-1.75,1.56-.19,.19-.39,.19-.58,.19-.39-.19-.58-.58-.39-.78h0v.97h0c0,.39-.39,.58-.78,.58-.97-.19-1.95-.19-2.92,0l-.78,.39-5.84,3.31c-2.72,.97-5.45,1.95-8.17,2.72-.78,.19-1.17-.78-.58-1.17l.78-.39v-.78c-3.7,1.75-7.2,3.5-10.7,5.45,.78-.97-.19-2.33-1.36-1.75l-.78,.58c-.58,.39-1.17,.58-1.75,.97l.39-.19c.39-.19,.58-.58,.39-1.17l2.53-1.36-1.95,.78h-.19l-.39,.19h0c-.39-.78-1.36-1.36-2.14-.97-2.14,1.17-4.47,2.33-6.42,3.7h-.58l-.97,.39h0c2.72-2.53,5.45-4.86,8.37-7.2,.97-.97-.19-2.14-1.36-1.75-5.25,2.33-10.31,5.25-14.98,8.56,0-.19-.19-.19-.39-.39,3.11-1.95,6.03-4.09,8.95-6.03,7.2-4.47,14.2-9.34,20.82-14.79l-.58,.19c-2.72,1.56-5.45,2.72-8.37,3.5-.19,0-.58,0-.78-.19-.39-.39-.58-.97-.19-1.36-.39,0-.58-.19-.78-.58-.39-.58-.19-1.17,.39-1.56,3.31-1.56,6.62-2.92,10.12-4.09,1.36-.39,2.92-1.17,4.67-1.75v-.58c2.72-1.56,5.25-2.72,8.37-4.47,3.31-1.75,6.42-3.31,9.73-4.86,2.92-2.14,5.45-4.67,7.78-7.39,1.56-3.11,.97-6.81-1.36-9.34-1.75-1.17-3.5-2.14-5.64-2.53-1.95-.58-3.89-1.36-5.84-1.95-6.23-1.75-12.45-2.92-18.68-3.89-2.92-5.45-7.39-10.31-8.37-16.54h0c1.56-1.56,3.5-3.11,5.45-4.48,0-.39,.19-.78,.58-.97,8.56-7.59,17.9-14.59,26.85-21.4,4.67-3.5,9.53-7,14.01-10.31,4.47-3.5,9.34-6.81,14.4-9.73,1.17-.58,1.95,.78,1.17,1.56-4.09,3.7-8.95,6.81-13.42,10.12-.39,.39-.97,.58-1.36,.97l1.95-.97c1.75-1.56,3.7-2.72,5.64-3.89l4.47-2.72c.39-.58,.97-.97,1.56-1.17h.58c2.14-1.36,4.28-2.72,6.62-4.09,0-.58,.39-1.17,.97-1.17,.39-.19,.78-.19,1.17,0,.39-.19,.97-.19,1.36,0l4.47-3.11h0c-.39,.39-.97,.78-1.17,1.17v.58c-.78,.58-1.75,.97-2.53,1.56h0c.39,.19,.58,.78,.58,1.17,.39,0,.78,.19,1.17,.39,.39,.19,.58,.78,.58,1.17h0c.39,.39,.39,.97,0,1.56,.39,.19,.58,.78,.58,1.17l.58-.19h0c.78-.19,1.56,0,1.75,.78l.97-2.14h0Z"/></g></g></svg>
