<?xml version="1.0" encoding="UTF-8"?><svg id="Layer_1" xmlns="http://www.w3.org/2000/svg" viewBox="0 0 30 30"><defs><style>.cls-1{fill:#00acd7;}</style></defs><path class="cls-1" d="M2.26,12.79c-.06,0-.07-.03-.04-.07l.31-.39s.1-.07,.16-.07H7.9c.06,0,.07,.04,.04,.09l-.25,.38s-.1,.09-.15,.09H2.26s0-.01,0-.01ZM.06,14.13c-.06,0-.07-.03-.04-.07l.31-.39s.1-.07,.16-.07H7.14c.06,0,.09,.04,.07,.09l-.12,.35c-.01,.06-.07,.09-.13,.09H.06Zm3.53,1.36c-.06,0-.07-.04-.04-.09l.2-.37s.09-.09,.15-.09h2.92c.06,0,.09,.04,.09,.1l-.03,.35c0,.06-.06,.1-.1,.1H3.59s0-.01,0-.01Zm15.16-2.95l-2.45,.64c-.22,.06-.23,.07-.42-.15-.22-.25-.38-.41-.69-.55-.92-.45-1.81-.32-2.64,.22-.99,.64-1.5,1.59-1.49,2.78,.01,1.17,.82,2.13,1.97,2.29,.99,.13,1.83-.22,2.48-.96,.13-.16,.25-.34,.39-.54h-2.82c-.31,0-.38-.19-.28-.44,.19-.45,.54-1.21,.74-1.59,.04-.09,.15-.23,.37-.23h5.32c-.03,.39-.03,.79-.09,1.18-.16,1.05-.55,2.02-1.2,2.86-1.05,1.39-2.42,2.25-4.16,2.48-1.43,.19-2.76-.09-3.93-.96-1.08-.82-1.69-1.9-1.86-3.24-.19-1.59,.28-3.02,1.24-4.28,1.04-1.36,2.41-2.22,4.09-2.53,1.37-.25,2.69-.09,3.87,.72,.77,.51,1.33,1.21,1.69,2.06,.09,.13,.03,.2-.15,.25h0Z"/><path class="cls-1" d="M23.59,20.6c-1.33-.03-2.54-.41-3.56-1.29-.86-.74-1.4-1.69-1.58-2.82-.26-1.65,.19-3.11,1.18-4.41,1.07-1.4,2.35-2.13,4.09-2.44,1.49-.26,2.89-.12,4.16,.74,1.15,.79,1.87,1.86,2.06,3.26,.25,1.97-.32,3.58-1.68,4.95-.96,.98-2.15,1.59-3.51,1.87-.39,.07-.79,.09-1.17,.13h0Zm3.48-5.9c-.01-.19-.01-.34-.04-.48-.26-1.45-1.59-2.26-2.98-1.94-1.36,.31-2.23,1.17-2.56,2.54-.26,1.14,.29,2.29,1.34,2.76,.8,.35,1.61,.31,2.38-.09,1.15-.6,1.78-1.53,1.86-2.79h0Z"/></svg>