<?xml version="1.0" encoding="UTF-8"?><svg id="Layer_1" xmlns="http://www.w3.org/2000/svg" viewBox="0 0 30 30"><defs><style>.cls-1{fill:#f7df1e;}</style></defs><path class="cls-1" d="M0,0H30V30H0V0Z"/><path d="M7.89,25.07l2.3-1.39c.44,.79,.85,1.45,1.81,1.45s1.51-.36,1.51-1.77V13.77h2.82v9.63c0,2.92-1.71,4.25-4.21,4.25-2.26,0-3.56-1.17-4.23-2.58"/><path d="M17.86,24.77l2.3-1.33c.6,.99,1.39,1.71,2.78,1.71,1.17,0,1.91-.58,1.91-1.39,0-.97-.77-1.31-2.05-1.87l-.7-.3c-2.03-.87-3.38-1.95-3.38-4.25,0-2.11,1.61-3.73,4.13-3.73,1.79,0,3.08,.62,4.01,2.26l-2.2,1.41c-.48-.87-1.01-1.21-1.81-1.21s-1.35,.52-1.35,1.21c0,.85,.52,1.19,1.73,1.71l.7,.3c2.4,1.03,3.75,2.07,3.75,4.43,0,2.54-1.99,3.93-4.67,3.93s-4.31-1.25-5.14-2.88"/></svg>