<?xml version="1.0" encoding="UTF-8"?><svg id="Layer_1" xmlns="http://www.w3.org/2000/svg" viewBox="0 0 30 30"><defs><style>.cls-1{fill:#f8d34b;}.cls-2{fill:#3574a7;}</style></defs><path id="path1948" class="cls-2" d="M14.82,0c-1.22,0-2.39,.11-3.42,.29-3.03,.54-3.58,1.65-3.58,3.72v2.73h7.16v.91H5.14c-2.08,0-3.9,1.25-4.47,3.63C.01,14-.02,15.71,.67,18.55c.51,2.12,1.72,3.63,3.8,3.63h2.46v-3.27c0-2.36,2.04-4.45,4.47-4.45h7.15c1.99,0,3.58-1.64,3.58-3.64V4.01c0-1.94-1.64-3.4-3.58-3.72C17.32,.09,16.05,0,14.82,0Zm-3.87,2.19c.74,0,1.34,.61,1.34,1.37s-.6,1.36-1.34,1.36-1.34-.61-1.34-1.36,.6-1.37,1.34-1.37Z"/><path id="path1950" class="cls-1" d="M23.02,7.65v3.18c0,2.46-2.09,4.54-4.47,4.54h-7.15c-1.96,0-3.58,1.68-3.58,3.64v6.82c0,1.94,1.69,3.08,3.58,3.64,2.27,.67,4.44,.79,7.15,0,1.8-.52,3.58-1.57,3.58-3.64v-2.73h-7.15v-.91h10.73c2.08,0,2.86-1.45,3.58-3.63,.75-2.24,.72-4.4,0-7.27-.51-2.07-1.5-3.63-3.58-3.63h-2.69Zm-4.02,17.26c.74,0,1.34,.61,1.34,1.36s-.6,1.37-1.34,1.37-1.34-.61-1.34-1.37,.6-1.36,1.34-1.36Z"/></svg>