<?xml version="1.0" encoding="UTF-8"?><svg id="Layer_1" xmlns="http://www.w3.org/2000/svg" viewBox="0 0 30 30"><path d="M14.06,3.53c0-.49,.4-.89,.89-.89s.89,.4,.89,.89-.4,.89-.89,.89-.89-.4-.89-.89M3.42,11.61c0-.49,.4-.89,.89-.89s.89,.4,.89,.89h0c0,.49-.4,.89-.89,.89s-.89-.4-.89-.89m21.28,.04c0-.49,.4-.89,.89-.89s.89,.4,.89,.89-.4,.89-.89,.89-.89-.4-.89-.89m-18.7,1.22c.41-.18,.6-.66,.41-1.07l-.4-.89h1.56v7.01h-3.14c-.39-1.36-.51-2.78-.36-4.19l1.92-.85Zm6.51,.17v-2.07h3.71c.19,0,1.35,.22,1.35,1.09,0,.72-.89,.98-1.62,.98h-3.43Zm-5.06,11.13c0-.49,.4-.89,.89-.89s.89,.4,.89,.89-.4,.89-.89,.89-.89-.4-.89-.89m13.22,.04c0-.49,.4-.89,.89-.89s.89,.4,.89,.89-.4,.89-.89,.89-.89-.4-.89-.89m.28-2.02c-.44-.09-.87,.19-.97,.63l-.45,2.09c-2.91,1.32-6.26,1.3-9.16-.04l-.45-2.09c-.09-.44-.53-.72-.97-.63l-1.84,.4c-.34-.35-.66-.73-.95-1.12H15.14c.1,0,.17-.02,.17-.11v-3.17c0-.09-.07-.11-.17-.11h-2.63v-2.01h2.84c.26,0,1.39,.08,1.75,1.51l.53,2.34c.17,.52,.86,1.55,1.59,1.55h4.63c-.31,.42-.65,.81-1.02,1.18l-1.88-.4Zm4.98-8.38c.06,.63,.07,1.27,.02,1.91h-1.13c-.11,0-.16,.08-.16,.18v.52c0,1.22-.69,1.48-1.29,1.55-.57,.07-1.21-.24-1.29-.59-.34-1.9-.9-2.31-1.78-3.01,1.1-.7,2.25-1.73,2.25-3.12,0-1.49-1.02-2.44-1.72-2.9-.98-.65-2.06-.78-2.36-.78H6.82c1.61-1.8,3.77-3.02,6.14-3.47l1.37,1.44c.31,.33,.83,.34,1.15,.03l1.54-1.47c3.17,.59,5.92,2.55,7.52,5.35l-1.05,2.38c-.18,.41,0,.89,.41,1.07l2.02,.9Zm2.62,.04l-.04-.37,1.08-1.01c.22-.21,.14-.62-.14-.72l-1.39-.52-.11-.36,.86-1.2c.18-.24,.01-.63-.28-.68l-1.46-.24-.18-.33,.61-1.35c.13-.27-.11-.63-.41-.61l-1.48,.05-.23-.28,.34-1.44c.07-.29-.23-.59-.52-.52l-1.44,.34-.29-.23,.05-1.48c.01-.3-.34-.53-.61-.41l-1.35,.61-.33-.18-.24-1.46c-.05-.3-.44-.46-.68-.28l-1.2,.86-.36-.11-.52-1.39c-.11-.28-.52-.36-.72-.14l-1.01,1.08-.37-.04-.78-1.26c-.16-.26-.58-.26-.74,0l-.78,1.26-.37,.04-1.01-1.09c-.21-.22-.62-.14-.72,.14l-.52,1.39-.36,.11-1.2-.86c-.24-.18-.63-.01-.68,.28l-.24,1.46-.33,.18-1.35-.61c-.27-.12-.63,.11-.61,.41l.05,1.48-.29,.23-1.44-.34c-.29-.07-.59,.23-.52,.52l.34,1.44-.23,.28-1.48-.05c-.3,0-.53,.34-.41,.61l.61,1.35-.18,.33-1.46,.24c-.3,.05-.46,.44-.28,.68l.86,1.2-.11,.36-1.39,.52c-.28,.11-.36,.52-.14,.72l1.08,1.01-.04,.37-1.26,.78c-.26,.16-.26,.58,0,.74l1.26,.78,.04,.37-1.09,1.01c-.22,.21-.14,.62,.14,.72l1.39,.52,.11,.36-.86,1.2c-.18,.24-.01,.63,.28,.68l1.46,.24,.18,.33-.61,1.35c-.12,.27,.11,.63,.41,.61l1.48-.05,.23,.29-.34,1.44c-.07,.29,.23,.59,.52,.52l1.44-.34,.29,.23-.05,1.48c-.01,.3,.34,.53,.61,.41l1.35-.61,.33,.18,.24,1.46c.05,.3,.44,.46,.68,.28l1.2-.86,.36,.11,.52,1.39c.11,.28,.52,.36,.72,.14l1.01-1.08,.37,.04,.78,1.26c.16,.25,.58,.26,.74,0l.78-1.26,.37-.04,1.01,1.08c.21,.22,.62,.14,.72-.14l.52-1.39,.36-.11,1.2,.86c.24,.18,.63,.01,.68-.28l.24-1.46,.33-.18,1.35,.61c.27,.12,.62-.11,.61-.41l-.05-1.48,.28-.23,1.44,.34c.29,.07,.59-.23,.52-.52l-.34-1.44,.23-.29,1.48,.05c.3,.01,.53-.34,.41-.61l-.61-1.35,.18-.33,1.46-.24c.3-.05,.46-.44,.28-.68l-.86-1.2,.11-.36,1.39-.52c.28-.11,.36-.52,.14-.72l-1.08-1.01,.04-.37,1.26-.78c.26-.16,.26-.58,0-.74l-1.25-.78Z"/></svg>