<?xml version="1.0" encoding="UTF-8"?><svg id="Layer_1" xmlns="http://www.w3.org/2000/svg" viewBox="0 0 30 30"><defs><style>.cls-1{fill:#3178c6;}.cls-2{fill:#fff;fill-rule:evenodd;}</style></defs><rect class="cls-1" width="30" height="30" rx="1.41" ry="1.41"/><path class="cls-2" d="M17.41,23.31v3.29c.53,.27,1.16,.48,1.89,.62,.73,.14,1.49,.21,2.3,.21s1.53-.08,2.24-.23c.71-.15,1.33-.4,1.86-.74,.53-.35,.95-.8,1.26-1.36,.31-.56,.47-1.25,.47-2.07,0-.6-.09-1.12-.27-1.57-.18-.45-.43-.85-.77-1.2-.33-.35-.74-.66-1.2-.94-.47-.28-1-.54-1.58-.79-.43-.18-.82-.35-1.16-.52-.34-.17-.63-.34-.87-.51-.24-.17-.42-.36-.55-.55-.13-.2-.19-.42-.19-.66,0-.23,.06-.43,.17-.61s.28-.34,.49-.47c.21-.13,.47-.23,.78-.3,.31-.07,.65-.11,1.02-.11,.27,0,.56,.02,.87,.06,.3,.04,.61,.1,.92,.19,.31,.09,.61,.19,.9,.32,.29,.13,.56,.28,.8,.45v-3.07c-.5-.19-1.04-.33-1.63-.43s-1.27-.14-2.03-.14-1.52,.08-2.21,.25c-.7,.17-1.31,.43-1.84,.79-.53,.36-.95,.81-1.25,1.36-.31,.55-.46,1.21-.46,1.98,0,.98,.28,1.81,.84,2.51,.56,.69,1.42,1.28,2.57,1.76,.45,.18,.87,.37,1.26,.54,.39,.18,.73,.36,1.01,.55s.51,.4,.67,.63c.16,.23,.25,.48,.25,.77,0,.21-.05,.41-.15,.59s-.26,.34-.47,.47c-.21,.13-.47,.24-.78,.31-.31,.08-.67,.11-1.09,.11-.71,0-1.41-.12-2.11-.37-.7-.25-1.34-.62-1.94-1.12Zm-5.52-8.18h4.29v-2.71H4.22v2.71h4.27v12.06h3.4V15.13Z"/></svg>